<?xml version="1.0" encoding="iso-8859-1"?>
<!-- Generator: Adobe Illustrator 23.0.2, SVG Export Plug-In . SVG Version: 6.00 Build 0)  -->
<svg version="1.1" id="illustration" xmlns="http://www.w3.org/2000/svg" xmlns:xlink="http://www.w3.org/1999/xlink" x="0px"
	 y="0px" viewBox="0 0 1080 720" style="enable-background:new 0 0 1080 720;" xml:space="preserve">
<title>coming soon</title>
<g id="dog">
	<g id="chair">
		
			<linearGradient id="back_leg_1_" gradientUnits="userSpaceOnUse" x1="804.9663" y1="224.7596" x2="803.2205" y2="246.2085" gradientTransform="matrix(1 0 0 -1 0 722)">
			<stop  offset="0" style="stop-color:#EEEEEE"/>
			<stop  offset="1" style="stop-color:#DCE3EA"/>
		</linearGradient>
		<polygon id="back_leg" style="fill:url(#back_leg_1_);" points="824.51,645.08 820.05,645.08 793.37,447.04 803.56,447.04 
			803.56,446.47 		"/>
		
			<linearGradient id="front_leg_1_" gradientUnits="userSpaceOnUse" x1="712.2576" y1="228.8719" x2="714.2529" y2="260.0477" gradientTransform="matrix(1 0 0 -1 0 722)">
			<stop  offset="0" style="stop-color:#EEEEEE"/>
			<stop  offset="1" style="stop-color:#DCE3EA"/>
		</linearGradient>
		<polygon id="front_leg" style="fill:url(#front_leg_1_);" points="724.44,447.04 697.76,645.08 693.3,645.08 714.22,446.64 
			714.22,447.04 		"/>
		
			<linearGradient id="top_1_" gradientUnits="userSpaceOnUse" x1="714.2216" y1="279.4876" x2="803.5639" y2="279.4876" gradientTransform="matrix(1 0 0 -1 0 722)">
			<stop  offset="0" style="stop-color:#EEEEEE"/>
			<stop  offset="1" style="stop-color:#DCE3EA"/>
		</linearGradient>
		<rect id="top" x="714.222" y="437.986" style="fill:url(#top_1_);" width="89.342" height="9.052"/>
	</g>
	
		<linearGradient id="R_F_leg_1_" gradientUnits="userSpaceOnUse" x1="707.6791" y1="326.5962" x2="789.89" y2="283.7469" gradientTransform="matrix(1 0 0 -1 0 722)">
		<stop  offset="0" style="stop-color:#A1C3FC"/>
		<stop  offset="0.6955" style="stop-color:#81AEF2"/>
		<stop  offset="1" style="stop-color:#78A9EF"/>
	</linearGradient>
	<path id="R_F_leg" style="fill:url(#R_F_leg_1_);" d="M737.051,432.507c-4.605,0.871-6.035,2.803-6.294,5.455h15.117
		c2.001-1.438,3.688-6.22,3.579-14.164c-0.132-9.632,0.396-36.945,0.396-36.945l-20.075-5.093c0,0,6.881,18.683,8.728,29.37
		S741.933,431.583,737.051,432.507z"/>
	
		<linearGradient id="L_B_leg_1_" gradientUnits="userSpaceOnUse" x1="732.0764" y1="316.1455" x2="786.3854" y2="301.1981" gradientTransform="matrix(1 0 0 -1 0 722)">
		<stop  offset="0" style="stop-color:#A1C3FC"/>
		<stop  offset="0.6955" style="stop-color:#81AEF2"/>
		<stop  offset="1" style="stop-color:#78A9EF"/>
	</linearGradient>
	<path id="L_B_leg" style="fill:url(#L_B_leg_1_);" d="M757.223,390.897c0,0-4.592,21.761,5.39,28.549s13.975,3.993,15.772,7.187
		s-1.398,4.791-6.389,3.993s-12.578-0.799-13.576,7.387h24.157c4.791,0,17.968-22.759,17.569-38.332L757.223,390.897z"/>
	<path id="tail" style="fill:#23286B;" d="M840.748,434.112c-6.099-5.89-15.328-8.602-21.618-14.159
		c-2.266-2.663-4.222-5.576-5.831-8.681c-0.033-0.104-0.072-0.203-0.104-0.308c-0.024-0.08-0.076-0.15-0.146-0.195
		c-2.657-5.341-3.355-9.516-3.068-10.277c-12.578,24.744,4.089,34.241,7.388,50.737s-1.856,19.795-1.856,19.795
		c18.146,3.093,26.374-4.883,26.374-4.883c4.306-21.528-5.982-29.04-20.041-43.22c3.221,2.216,6.824,4.047,10.234,5.971
		c11.526,6.503,18.434,17.637,16.717,31.104c-0.061,0.477,0.69,0.473,0.75,0C850.854,450.465,847.594,440.874,840.748,434.112z"/>
	<path id="R_ear" style="fill:#23286B;" d="M741.119,323.803c2.028-12.845-9.465-25.149-9.465-25.149
		c1.466,2.931,0.092,15.02-3.551,24.785l0,0c-1.749,4.465-7.023,6.623-9.397,10.645c-1.711,2.991-2.201,6.527-1.367,9.871
		c0.104,0.471,0.827,0.272,0.723-0.199c-1.208-5.488,0.96-9.822,4.999-13.43c1.414-1.172,2.698-2.492,3.833-3.936
		c-0.719,1.637-1.569,3.214-2.542,4.715c-6.355,9.6-3.651,14.738-3.651,14.738c7.031,3.921,23.526,0.406,23.526,0.406
		C740.974,339.244,739.891,331.427,741.119,323.803z"/>
	<path id="body" style="fill:#A1C3FC;" d="M809.983,399.57c-0.453-7.592-3.801-14.722-9.354-19.92
		c-17.261-16.183-45.042-32.635-46.12-51.784s0.809-24.004-7.552-29.938s-13.485-0.809-22.386-2.158
		c-4.017-0.556-7.943-1.643-11.673-3.234c-0.974-0.433-2.114,0.006-2.547,0.98c-0.026,0.06-0.05,0.12-0.07,0.182
		c-1.39,4.179-3.169,13.63,6.944,18.238c14.833,6.758,13.626,21.138,10.372,32.943c-4.114,14.921-8.016,36.601,15.388,47.213
		l0.001,0.001c2.139,6.179,3.859,12.496,5.148,18.907c1.847,10.688,3.431,20.451-1.451,21.375c-4.682,0.886-6.084,2.866-6.308,5.587
		h14.946c2.081-1.27,3.877-6.107,3.765-14.295c-0.072-5.253,0.052-15.758,0.18-24.23c2.463,1.115,4.907,2.223,7.294,3.307
		c0.115,6.26,1.475,13.33,6.435,16.703c9.982,6.788,13.975,3.993,15.772,7.187s-1.398,4.792-6.389,3.993s-12.578-0.799-13.576,7.387
		h24.157c2.807,0,9.186-7.495,13.333-17.098c1.854-4.395,3.052-9.039,3.558-13.782C809.922,404.26,810.043,401.924,809.983,399.57z"
		/>
	<path id="texture" style="opacity:0.86;fill:#FFFFFF;enable-background:new    ;" d="M765.973,377.179
		c-0.138,0.138-0.148,0.359-0.022,0.509c0.106,0.14,0.305,0.167,0.444,0.061c0.011-0.008,0.022-0.018,0.032-0.028
		c0.138-0.138,0.148-0.359,0.022-0.509c-0.113-0.14-0.317-0.162-0.457-0.05C765.985,377.168,765.979,377.173,765.973,377.179z
		 M772.114,371.393c-0.138,0.138-0.148,0.359-0.022,0.509c0.12,0.14,0.33,0.156,0.47,0.036c0.005-0.004,0.009-0.008,0.014-0.013
		c0.141-0.133,0.155-0.352,0.032-0.501C772.479,371.28,772.259,371.266,772.114,371.393L772.114,371.393z M778.272,365.604
		c-0.143,0.136-0.153,0.361-0.022,0.509c0.106,0.14,0.305,0.167,0.444,0.061c0.011-0.008,0.022-0.018,0.032-0.028
		c0.137-0.142,0.149-0.363,0.029-0.519c-0.12-0.14-0.33-0.156-0.469-0.036C778.281,365.596,778.277,365.6,778.272,365.604
		L778.272,365.604z M760.358,359.581c0.049,0.177,0.233,0.281,0.41,0.232c0.008-0.002,0.016-0.005,0.024-0.008
		c0.183-0.074,0.273-0.28,0.203-0.465c-0.05-0.178-0.236-0.281-0.414-0.231c-0.007,0.002-0.014,0.004-0.02,0.006
		C760.383,359.194,760.294,359.397,760.358,359.581L760.358,359.581z M768.144,356.711c0.049,0.177,0.232,0.281,0.41,0.232
		c0.008-0.002,0.016-0.005,0.024-0.008c0.183-0.074,0.273-0.28,0.203-0.465c-0.05-0.178-0.235-0.281-0.413-0.231
		c-0.007,0.002-0.014,0.004-0.021,0.007C768.168,356.324,768.079,356.526,768.144,356.711L768.144,356.711z M781.199,384.278
		c-0.079,0.178-0.007,0.387,0.165,0.479c0.16,0.081,0.357,0.017,0.438-0.143c0.003-0.007,0.007-0.014,0.01-0.021
		c0.095-0.165,0.038-0.376-0.128-0.471s-0.376-0.038-0.471,0.128C781.208,384.259,781.203,384.268,781.199,384.278L781.199,384.278z
		 M784.784,376.449c-0.076,0.18-0.009,0.388,0.158,0.489c0.169,0.079,0.37,0.007,0.449-0.162c0.002-0.004,0.004-0.008,0.005-0.012
		c0.082-0.178,0.009-0.39-0.165-0.479c-0.16-0.081-0.356-0.017-0.438,0.143C784.79,376.436,784.787,376.442,784.784,376.449
		L784.784,376.449z M776.274,377.516c-0.083,0.156-0.036,0.35,0.109,0.451c0.133,0.086,0.31,0.048,0.395-0.085
		c0.006-0.009,0.011-0.018,0.016-0.028c0.091-0.151,0.047-0.346-0.099-0.444C776.55,377.325,776.362,377.371,776.274,377.516
		L776.274,377.516z M780.087,370.9c-0.083,0.15-0.037,0.339,0.106,0.433c0.133,0.086,0.31,0.048,0.396-0.085
		c0.006-0.009,0.011-0.018,0.016-0.028c0.091-0.151,0.047-0.346-0.099-0.444c-0.146-0.083-0.331-0.031-0.414,0.115
		C780.09,370.895,780.089,370.898,780.087,370.9L780.087,370.9z M767.298,363.391c-0.133,0.113-0.157,0.308-0.057,0.45
		c0.089,0.134,0.27,0.171,0.404,0.082c0.006-0.004,0.011-0.008,0.016-0.012c0.134-0.111,0.166-0.305,0.074-0.453
		c-0.096-0.138-0.287-0.173-0.425-0.076C767.306,363.385,767.302,363.388,767.298,363.391L767.298,363.391z M773.237,358.804
		c-0.14,0.104-0.17,0.302-0.067,0.443c0.089,0.134,0.27,0.171,0.404,0.082c0.005-0.004,0.011-0.007,0.016-0.012
		c0.134-0.111,0.166-0.305,0.074-0.453c-0.096-0.134-0.282-0.165-0.416-0.069C773.245,358.798,773.241,358.801,773.237,358.804
		L773.237,358.804z M791.157,379.183c-0.031,0.163,0.076,0.321,0.24,0.352c0.004,0.001,0.008,0.002,0.013,0.002
		c0.166,0.028,0.323-0.084,0.351-0.25c0.001-0.006,0.002-0.012,0.002-0.018c0.022-0.171-0.093-0.329-0.262-0.362
		c-0.165-0.024-0.318,0.091-0.342,0.256C791.158,379.17,791.157,379.176,791.157,379.183L791.157,379.183z M752.335,357.26
		c-0.151,0.134-0.178,0.359-0.064,0.525c0.106,0.156,0.318,0.196,0.474,0.09c0.006-0.004,0.012-0.008,0.017-0.013
		c0.153-0.132,0.181-0.36,0.063-0.525c-0.106-0.156-0.318-0.196-0.474-0.09C752.346,357.252,752.341,357.256,752.335,357.26
		L752.335,357.26z M782.988,376.702c-0.025,0.201,0.108,0.388,0.307,0.429c0.191,0.023,0.365-0.113,0.388-0.305
		c0.001-0.005,0.001-0.01,0.001-0.015c0.039-0.191-0.083-0.377-0.274-0.417c-0.191-0.039-0.377,0.083-0.417,0.274
		C782.991,376.679,782.989,376.69,782.988,376.702z M784.189,367.841c-0.027,0.197,0.102,0.381,0.297,0.421
		c0.193,0.027,0.371-0.107,0.398-0.3c0.001-0.004,0.001-0.008,0.002-0.013c0.039-0.191-0.083-0.377-0.274-0.417
		c-0.191-0.039-0.377,0.083-0.417,0.274C784.192,367.818,784.191,367.83,784.189,367.841L784.189,367.841z M767.346,366.251
		c-0.09,0.179-0.036,0.396,0.127,0.513c0.166,0.094,0.377,0.036,0.471-0.13c0.002-0.004,0.004-0.007,0.006-0.011
		c0.102-0.173,0.051-0.395-0.117-0.505c-0.163-0.1-0.375-0.049-0.475,0.113C767.353,366.237,767.35,366.244,767.346,366.251
		L767.346,366.251z M771.681,358.54c-0.1,0.178-0.044,0.402,0.127,0.513c0.157,0.096,0.363,0.046,0.459-0.111
		c0.004-0.006,0.007-0.013,0.011-0.019c0.107-0.172,0.055-0.398-0.117-0.505c0,0,0,0,0,0c-0.149-0.103-0.354-0.065-0.457,0.085
		C771.695,358.514,771.688,358.527,771.681,358.54L771.681,358.54z M761.748,364.532c-0.104,0.169-0.06,0.39,0.1,0.508
		c0.156,0.105,0.367,0.065,0.473-0.091c0.003-0.005,0.006-0.009,0.009-0.014c0.11-0.17,0.07-0.397-0.093-0.518
		c-0.159-0.105-0.372-0.062-0.477,0.097C761.756,364.519,761.752,364.526,761.748,364.532L761.748,364.532z M766.361,357.053
		c-0.105,0.174-0.057,0.399,0.11,0.515c0.162,0.104,0.378,0.057,0.482-0.105c0,0,0,0,0,0c0.102-0.176,0.058-0.401-0.102-0.526
		c-0.165-0.104-0.382-0.054-0.486,0.111C766.363,357.049,766.362,357.051,766.361,357.053L766.361,357.053z M779.284,367.105
		c-0.035,0.198,0.093,0.388,0.289,0.431c0.19,0.031,0.37-0.097,0.401-0.287c0-0.002,0.001-0.005,0.001-0.007
		c0.046-0.193-0.074-0.387-0.267-0.433c-0.002,0-0.003-0.001-0.005-0.001c-0.191-0.038-0.377,0.085-0.416,0.276
		C779.286,367.091,779.285,367.098,779.284,367.105z"/>
	<path id="R_ear-2" style="fill:#23286B;" d="M480.821,224.051c0,0-2.229-4.236,3.01-12.151s7.58-23.633,6.02-26.754
		c0,0,9.475,10.144,7.803,20.734c-1.012,6.286-0.12,12.731,2.564,18.505C500.218,224.385,486.618,227.284,480.821,224.051z"/>
	<path id="L_ear" style="fill:#23286B;" d="M767.35,326.101c-8.518-4.732-9.465-11.493-11.763-17.036
		c-1.733-4.181-4.47-7.871-7.969-10.741c0.984,1.173,2.838,5.025,1.614,16.961c-0.011,0.108-0.019,0.209-0.03,0.317
		c-3.059,12.672-4.637,26.421,4.597,36.972c0.318,0.364,0.847-0.168,0.53-0.53c-7.758-8.864-7.657-20.09-5.57-30.94
		c-0.699,12.472,1.27,20.947,9.396,30.958c0,0,10.276,0.406,22.174-10.817C780.33,341.245,775.868,330.834,767.35,326.101z"/>
	<path id="eye" style="fill:#1C2868;" d="M732.646,293.523c-1.495,2.932,0.92,6.009,4.275,5.606
		c0.405-0.049,0.297-0.635-0.106-0.587c-1.801,0.354-3.549-0.819-3.903-2.62c-0.147-0.749-0.032-1.526,0.326-2.2
		C733.416,293.372,732.822,293.177,732.646,293.523L732.646,293.523z"/>
</g>
<g id="artwork">
	
		<linearGradient id="front_leg_2_1_" gradientUnits="userSpaceOnUse" x1="441.8087" y1="173.6733" x2="455.3417" y2="307.4117" gradientTransform="matrix(1 0 0 -1 0 722)">
		<stop  offset="0" style="stop-color:#EEEEEE"/>
		<stop  offset="1" style="stop-color:#DCE3EA"/>
	</linearGradient>
	<polygon id="front_leg_2" style="fill:url(#front_leg_2_1_);" points="464.88,354.6 438.27,649.43 433.81,649.43 454.72,354.6 	"/>
	
		<linearGradient id="front_leg_1_1_" gradientUnits="userSpaceOnUse" x1="546.4451" y1="146.2844" x2="539.2805" y2="252.9566" gradientTransform="matrix(1 0 0 -1 0 722)">
		<stop  offset="0" style="stop-color:#EEEEEE"/>
		<stop  offset="1" style="stop-color:#DCE3EA"/>
	</linearGradient>
	<polygon id="front_leg_1" style="fill:url(#front_leg_1_1_);" points="557.03,649.43 552.57,649.43 525.96,354.6 536.12,354.6 	"/>
	
		<linearGradient id="back_leg-2_1_" gradientUnits="userSpaceOnUse" x1="585.7498" y1="180.9581" x2="577.4701" y2="279.7965" gradientTransform="matrix(1 0 0 -1 0 722)">
		<stop  offset="0" style="stop-color:#EEEEEE"/>
		<stop  offset="1" style="stop-color:#DCE3EA"/>
	</linearGradient>
	<polygon id="back_leg-2" style="fill:url(#back_leg-2_1_);" points="596.13,649.43 591.68,649.43 564.861,352.51 575.057,352.57 	
		"/>
	
		<linearGradient id="L_trousers_1_" gradientUnits="userSpaceOnUse" x1="424.6662" y1="465.3795" x2="459.8438" y2="465.3795" gradientTransform="matrix(1 0 0 -1 0 722)">
		<stop  offset="0" style="stop-color:#FFBEB6"/>
		<stop  offset="1" style="stop-color:#F2A19C"/>
	</linearGradient>
	<path id="L_trousers" style="fill:url(#L_trousers_1_);" d="M424.666,271.846c0,0,23.207-17.081,23.389-21.577
		s-1.632-5.394-2.357-12.406s-0.544-5.934,0.725-4.675s1.45,5.574,2.901,5.934s-0.725-8.091-2.538-12.586s6.89-3.057,9.972,1.259
		c3.684,5.655,4.098,12.839,1.088,18.879c-3.445,6.833-6.632,45.65-21.938,42.614C435.001,289.107,424.666,271.846,424.666,271.846z
		"/>
	
		<linearGradient id="artwork-2_1_" gradientUnits="userSpaceOnUse" x1="509.9769" y1="401.3029" x2="549.78" y2="734.8527" gradientTransform="matrix(1 0 0 -1 0 722)">
		<stop  offset="0" style="stop-color:#EEEEEE"/>
		<stop  offset="1" style="stop-color:#DCE3EA"/>
	</linearGradient>
	<polygon id="artwork-2" style="fill:url(#artwork-2_1_);" points="575.482,352.565 421.328,352.565 460.869,151.42 615.023,151.42 
			"/>
	
		<linearGradient id="bottom_1_" gradientUnits="userSpaceOnUse" x1="438.342" y1="373.633" x2="553.818" y2="373.633" gradientTransform="matrix(1 0 0 -1 0 722)">
		<stop  offset="0" style="stop-color:#28306D"/>
		<stop  offset="0.51" style="stop-color:#1F275F"/>
		<stop  offset="1" style="stop-color:#171F51"/>
	</linearGradient>
	<polygon id="bottom" style="fill:url(#bottom_1_);" points="550.818,354.598 438.342,354.598 441.342,342.136 553.818,342.136 	"/>
	
		<linearGradient id="L_F_leg_1_" gradientUnits="userSpaceOnUse" x1="470.8025" y1="460.4643" x2="528.7825" y2="421.4689" gradientTransform="matrix(1 0 0 -1 0 722)">
		<stop  offset="0" style="stop-color:#A1C3FC"/>
		<stop  offset="0.6955" style="stop-color:#81AEF2"/>
		<stop  offset="1" style="stop-color:#78A9EF"/>
	</linearGradient>
	<path id="L_F_leg" style="fill:url(#L_F_leg_1_);" d="M488.3,253.665c0,0,5.673,15.403,7.196,24.215s2.828,16.862-1.197,17.623
		s-5.113,2.502-5.222,4.895H500.5c2.067,0,4.134-4.134,4.025-12.075s0.326-30.46,0.326-30.46L488.3,253.665z"/>
	
		<linearGradient id="L_B_leg-2_1_" gradientUnits="userSpaceOnUse" x1="496.6762" y1="464.2165" x2="540.2061" y2="428.7165" gradientTransform="matrix(1 0 0 -1 0 722)">
		<stop  offset="0" style="stop-color:#A1C3FC"/>
		<stop  offset="0.6955" style="stop-color:#81AEF2"/>
		<stop  offset="1" style="stop-color:#78A9EF"/>
	</linearGradient>
	<path id="L_B_leg-2" style="fill:url(#L_B_leg-2_1_);" d="M510.931,261.198c0,0-3.786,17.941,4.444,23.538
		c8.23,5.596,11.522,3.292,13.003,5.926s-1.152,3.95-5.267,3.292s-10.37-0.658-11.193,6.09h19.917
		c3.95,0,14.814-18.764,14.485-31.603L510.931,261.198z"/>
	<path id="body-2" style="fill:#A1C3FC;" d="M554.429,268.348c-0.374-6.26-3.134-12.138-7.712-16.423
		c-14.231-13.342-37.135-26.906-38.025-42.694s0.667-19.791-6.226-24.683s-11.118-0.667-18.456-1.779
		c-3.312-0.458-6.548-1.355-9.624-2.667c-0.803-0.357-1.743,0.005-2.1,0.808c-0.022,0.049-0.041,0.099-0.058,0.15
		c-1.146,3.445-2.613,11.238,5.725,15.037c12.229,5.572,11.234,17.428,8.551,27.16c-3.392,12.302-6.609,30.176,12.687,38.925
		l0.001,0.001c1.764,5.095,3.182,10.302,4.245,15.588c1.523,8.811,2.828,16.862-1.197,17.623s-5.113,2.502-5.222,4.895h11.422
		c2.067,0,4.134-4.134,4.025-12.075c-0.059-4.331,0.043-12.992,0.148-19.977c2.031,0.919,4.045,1.833,6.014,2.727
		c0.094,5.161,1.216,10.99,5.306,13.771c8.23,5.596,11.522,3.292,13.003,5.926s-1.152,3.95-5.267,3.292s-10.37-0.658-11.193,6.09
		h19.917c2.315,0,7.574-6.18,10.993-14.096l0,0c1.528-3.624,2.517-7.452,2.933-11.363
		C554.379,272.215,554.479,270.289,554.429,268.348L554.429,268.348z"/>
	<path style="fill:#23286B;" d="M502.564,185.625c7.684,4.564,6.719,15.295,13.876,20.617c6.547,4.869,17.121,6.247,18.728,15.746
		c0.08,0.475,0.803,0.273,0.723-0.199c-1.427-8.432-10.011-10.788-16.461-14.53c-5.857-3.398-7.574-8.011-10.003-13.95
		c-1.427-3.49-3.2-6.38-6.485-8.331c-0.182-0.098-0.41-0.03-0.508,0.152C502.341,185.304,502.398,185.52,502.564,185.625
		L502.564,185.625z"/>
	
		<linearGradient id="top-2_1_" gradientUnits="userSpaceOnUse" x1="532.4901" y1="597.5862" x2="527.0027" y2="573.3502" gradientTransform="matrix(1 0 0 -1 0 722)">
		<stop  offset="0" style="stop-color:#28306D"/>
		<stop  offset="0.51" style="stop-color:#1F275F"/>
		<stop  offset="1" style="stop-color:#171F51"/>
	</linearGradient>
	<polygon id="top-2" style="fill:url(#top-2_1_);" points="533.463,151.139 519.715,151.139 524.715,127.732 538.463,127.732 	"/>
	<path id="eye-2" style="fill:#1C2868;" d="M488.184,180.037c-1.494,2.932,0.92,6.009,4.275,5.606
		c0.405-0.049,0.297-0.635-0.106-0.587c-1.801,0.354-3.549-0.819-3.903-2.62c-0.147-0.749-0.032-1.526,0.326-2.2
		C488.954,179.886,488.361,179.69,488.184,180.037L488.184,180.037z"/>
</g>
<g id="woman">
	<g id="shoes">
		
			<linearGradient id="R_shoe_1_" gradientUnits="userSpaceOnUse" x1="286.5785" y1="90.194" x2="379.6467" y2="90.194" gradientTransform="matrix(1 0 0 -1 0 722)">
			<stop  offset="0" style="stop-color:#A1C3FC"/>
			<stop  offset="0.6955" style="stop-color:#81AEF2"/>
			<stop  offset="1" style="stop-color:#78A9EF"/>
		</linearGradient>
		<path id="R_shoe" style="fill:url(#R_shoe_1_);" d="M299.762,614.463l-13.183,34.688l93.068,0.003c0,0-4.772-8.682-20.68-15.113
			s-28.83-19.581-28.83-19.581L299.762,614.463"/>
		<path id="L_shoe" style="fill:#A1C3FC;" d="M352.362,614.463l-13.183,34.688l93.068,0.003c0,0-4.772-8.682-20.68-15.113
			s-30.756-19.578-30.756-19.578H352.362"/>
	</g>
	
		<linearGradient id="L_trousers-2_1_" gradientUnits="userSpaceOnUse" x1="265.0144" y1="239.535" x2="343.0043" y2="239.535" gradientTransform="matrix(1 0 0 -1 0 722)">
		<stop  offset="0" style="stop-color:#23286B"/>
		<stop  offset="1" style="stop-color:#151A4F"/>
	</linearGradient>
	<path id="L_trousers-2" style="fill:url(#L_trousers-2_1_);" d="M375.992,484.78c0,16.52-23.748,76.42-37.063,108.71
		c-5.184,12.58-8.789,20.97-8.789,20.97h-30.374c-5.258-35.12,1.378-76.41,18.023-106.16c12.075-21.59,10.315-47.52,8.439-60.13
		c-0.7-4.77-1.431-7.63-1.431-7.63c-7.856-29.68-9.647-50.99-9.276-65.4c0-0.12,0-0.23,0.011-0.34
		c0.435-15.24,3.297-22.67,3.901-24.08c0.074-0.17,0.106-0.25,0.106-0.25l53.973,6.54c-0.36,5.92-0.406,11.855-0.138,17.78
		C371.974,407.41,375.992,466.11,375.992,484.78z"/>
	
		<linearGradient id="R_trousers_1_" gradientUnits="userSpaceOnUse" x1="352.0876" y1="248.2809" x2="408.1192" y2="485.7147" gradientTransform="matrix(1 0 0 -1 0 722)">
		<stop  offset="0" style="stop-color:#23286B"/>
		<stop  offset="1" style="stop-color:#151A4F"/>
	</linearGradient>
	<path id="R_trousers" style="fill:url(#R_trousers_1_);" d="M380.859,614.48l-28.497-0.02c0,0-10.623-7.66-13.432-20.97
		c-0.032-0.17-0.074-0.35-0.106-0.53c-2.629-13.64-0.011-10.29-4.389-33.02c-4.378-22.72-8.322-29.33-3.944-53.29
		c3.573-19.59,2.481-28.41-4.262-58.48c-1.505-6.73-3.297-14.52-5.375-23.74c-4.75-21.02-5.767-37.37-5.333-49.29
		c0-0.12,0-0.23,0.011-0.34c0.562-14.74,3.339-22.61,3.901-24.08c0.074-0.17,0.106-0.25,0.106-0.25l54.312,2.9
		c-0.138,1.16-0.244,2.37-0.339,3.64c-0.36,5.92-0.406,11.855-0.138,17.78c1.251,33.13,9.149,79.65,10.559,100.87
		C385.682,502.1,380.859,614.48,380.859,614.48z"/>
	<path id="texture-2" style="opacity:0.72;fill:#FFFFFF;enable-background:new    ;" d="M341.042,361.663
		c0.004,0.12,0.104,0.213,0.224,0.209c0.114,0,0.207-0.092,0.207-0.206c0-0.003,0-0.006,0-0.008
		c-0.002-0.119-0.101-0.214-0.22-0.211C341.135,361.449,341.041,361.545,341.042,361.663L341.042,361.663z M346.362,361.566
		c-0.007,0.123,0.087,0.228,0.211,0.235c0.123,0.007,0.228-0.087,0.235-0.211s-0.087-0.228-0.211-0.235c-0.004,0-0.009,0-0.013,0
		C346.465,361.356,346.368,361.448,346.362,361.566z M351.696,361.472c-0.003,0.111,0.086,0.204,0.197,0.206
		c0.004,0,0.008,0,0.012,0c0.116,0.006,0.215-0.082,0.222-0.199s-0.082-0.215-0.199-0.222c-0.008,0-0.017,0-0.025,0
		c-0.109-0.006-0.202,0.077-0.208,0.185C351.695,361.453,351.695,361.462,351.696,361.472L351.696,361.472z M357.016,361.375
		c0.004,0.12,0.104,0.213,0.224,0.209c0.116-0.002,0.209-0.097,0.207-0.213c-0.002-0.114-0.094-0.206-0.209-0.207
		C357.119,361.161,357.019,361.255,357.016,361.375C357.016,361.375,357.016,361.375,357.016,361.375L357.016,361.375z
		 M362.336,361.278c-0.007,0.123,0.088,0.228,0.211,0.235s0.228-0.088,0.235-0.211s-0.088-0.228-0.211-0.235
		c-0.004,0-0.009,0-0.013,0C362.439,361.064,362.339,361.158,362.336,361.278L362.336,361.278z M350.079,381.191
		c0.088,0.079,0.222,0.078,0.308-0.003c0.079-0.075,0.083-0.199,0.008-0.279c-0.004-0.004-0.008-0.008-0.012-0.012
		c-0.088-0.079-0.222-0.078-0.308,0.004c-0.079,0.075-0.083,0.199-0.008,0.278C350.071,381.184,350.075,381.187,350.079,381.191z
		 M353.768,377.573c0.093,0.079,0.229,0.078,0.322,0c0.076-0.081,0.073-0.208-0.008-0.285c-0.003-0.003-0.007-0.006-0.01-0.009
		c-0.083-0.084-0.218-0.085-0.303-0.002c-0.002,0.002-0.004,0.004-0.005,0.005c-0.079,0.075-0.083,0.199-0.008,0.279
		C353.76,377.565,353.764,377.569,353.768,377.573z M357.471,373.957c0.088,0.079,0.222,0.078,0.308-0.004
		c0.083-0.084,0.083-0.22,0-0.304c-0.098-0.074-0.235-0.069-0.326,0.014c-0.076,0.081-0.073,0.208,0.008,0.285
		C357.465,373.951,357.468,373.954,357.471,373.957z M361.161,370.339c0.088,0.079,0.222,0.078,0.308-0.003
		c0.084-0.082,0.085-0.217,0.003-0.301c-0.001-0.001-0.002-0.002-0.003-0.003c-0.088-0.079-0.222-0.078-0.308,0.003
		c-0.084,0.083-0.084,0.218-0.002,0.302C361.159,370.337,361.16,370.337,361.161,370.339L361.161,370.339z M370.89,388.762
		c0.004,0.12,0.104,0.213,0.224,0.209c0.109,0.006,0.202-0.077,0.208-0.185c0.001-0.01,0-0.019,0-0.029
		c-0.001-0.114-0.095-0.206-0.209-0.206C370.993,388.548,370.893,388.643,370.89,388.762z M346.06,370.996
		c0.045,0.105,0.167,0.155,0.272,0.11c0.003-0.001,0.005-0.002,0.008-0.004c0.099-0.03,0.155-0.135,0.125-0.235
		c-0.003-0.01-0.007-0.02-0.012-0.03c-0.045-0.105-0.167-0.155-0.272-0.11c-0.003,0.001-0.005,0.002-0.008,0.004
		c-0.099,0.03-0.155,0.135-0.124,0.235C346.051,370.977,346.055,370.987,346.06,370.996L346.06,370.996z M350.939,368.991
		c0.039,0.083,0.13,0.127,0.219,0.107l0.015,0.003c0.016,0.005,0.033,0.004,0.047-0.004c0.064-0.024,0.113-0.078,0.129-0.145
		c0.01-0.045,0.006-0.091-0.012-0.133c-0.051-0.103-0.173-0.149-0.28-0.106c-0.105,0.036-0.161,0.151-0.125,0.257
		C350.933,368.976,350.936,368.984,350.939,368.991L350.939,368.991z M355.819,366.985c0.056,0.1,0.18,0.141,0.284,0.092
		c0.099-0.029,0.155-0.133,0.126-0.232c-0.003-0.011-0.008-0.022-0.013-0.032c-0.045-0.105-0.167-0.155-0.272-0.11
		c-0.003,0.001-0.005,0.002-0.008,0.004c-0.105,0.036-0.161,0.151-0.125,0.256C355.813,366.971,355.816,366.978,355.819,366.985
		L355.819,366.985z M360.702,364.966c0.045,0.105,0.167,0.155,0.272,0.11c0.003-0.001,0.005-0.002,0.008-0.004
		c0.105-0.036,0.161-0.151,0.125-0.256c-0.003-0.007-0.005-0.015-0.009-0.022c-0.051-0.103-0.173-0.149-0.28-0.106
		c-0.106,0.037-0.161,0.154-0.124,0.259C360.696,364.953,360.699,364.959,360.702,364.966L360.702,364.966z M360.612,384.288
		c-0.036,0.112,0.021,0.232,0.13,0.275c0.114,0.04,0.24-0.013,0.292-0.123c0.04-0.112-0.018-0.235-0.13-0.275c0,0,0,0-0.001,0
		C360.789,384.13,360.666,384.182,360.612,384.288L360.612,384.288z M362.556,379.613c-0.037,0.105,0.018,0.221,0.123,0.258
		c0.003,0.001,0.007,0.002,0.01,0.003c0.103,0.052,0.228,0.011,0.28-0.091s0.011-0.228-0.091-0.28
		c-0.01-0.005-0.02-0.009-0.031-0.013C362.734,379.455,362.611,379.507,362.556,379.613L362.556,379.613z M322.551,372.435
		c0.085,0.213,0.325,0.318,0.539,0.237c0.201-0.06,0.315-0.272,0.255-0.473c-0.002-0.007-0.005-0.015-0.007-0.022
		c-0.085-0.213-0.325-0.318-0.539-0.237c-0.201,0.06-0.315,0.272-0.255,0.473C322.546,372.42,322.548,372.428,322.551,372.435
		L322.551,372.435z M332.048,369.219c0.086,0.212,0.325,0.316,0.539,0.237c0.204-0.059,0.321-0.272,0.262-0.476
		c-0.003-0.011-0.007-0.022-0.011-0.033c-0.084-0.206-0.315-0.308-0.525-0.233C332.101,368.78,331.982,369.006,332.048,369.219
		C332.048,369.219,332.048,369.219,332.048,369.219L332.048,369.219z M341.56,366.007c0.09,0.207,0.325,0.31,0.539,0.237
		c0.208-0.068,0.322-0.291,0.254-0.499c-0.001-0.003-0.002-0.006-0.003-0.01c-0.092-0.206-0.325-0.309-0.539-0.237
		c-0.204,0.059-0.321,0.272-0.262,0.476C341.552,365.985,341.556,365.996,341.56,366.007L341.56,366.007z M351.057,362.791
		c0.07,0.149,0.219,0.245,0.383,0.245c0.052,0.013,0.106,0.01,0.156-0.009c0.077-0.027,0.144-0.078,0.19-0.146l0.015,0.003
		c0.08-0.105,0.098-0.245,0.046-0.366c-0.085-0.213-0.325-0.318-0.539-0.237c-0.208,0.068-0.322,0.291-0.254,0.499
		C351.055,362.785,351.056,362.788,351.057,362.791L351.057,362.791z M360.572,359.565c0.08,0.208,0.309,0.317,0.521,0.247
		c0.213-0.066,0.332-0.292,0.266-0.505c0,0,0,0,0-0.001c-0.086-0.212-0.325-0.316-0.539-0.237c-0.197,0.052-0.314,0.254-0.262,0.451
		C360.561,359.536,360.566,359.551,360.572,359.565L360.572,359.565z M341.638,405.029c-0.09,0.195-0.005,0.427,0.19,0.517
		c0.005,0.002,0.011,0.005,0.016,0.007c0.202,0.101,0.449,0.021,0.552-0.18c0.09-0.195,0.005-0.427-0.19-0.517
		c-0.005-0.002-0.01-0.005-0.016-0.007C341.987,404.754,341.746,404.833,341.638,405.029L341.638,405.029z M345.938,396.422
		c-0.09,0.195-0.005,0.427,0.19,0.517c0.005,0.002,0.01,0.005,0.016,0.007c0.207,0.09,0.449,0.005,0.555-0.194
		c0.094-0.187,0.019-0.416-0.168-0.51c-0.008-0.004-0.015-0.007-0.023-0.011C346.297,396.144,346.054,396.225,345.938,396.422
		L345.938,396.422z M350.256,387.804c-0.093,0.188-0.017,0.415,0.171,0.509c0.011,0.006,0.023,0.011,0.035,0.015
		c0.194,0.105,0.437,0.033,0.542-0.161s0.033-0.437-0.161-0.542c-0.01-0.006-0.021-0.011-0.032-0.015
		C350.604,387.52,350.362,387.605,350.256,387.804L350.256,387.804z M354.556,379.197c-0.09,0.195-0.005,0.427,0.19,0.517
		c0.005,0.002,0.011,0.005,0.016,0.007c0.207,0.09,0.449,0.006,0.555-0.194c0.094-0.187,0.019-0.416-0.168-0.51
		c-0.008-0.004-0.015-0.007-0.023-0.011C354.916,378.904,354.663,378.989,354.556,379.197L354.556,379.197z M358.874,370.579
		c-0.097,0.18-0.03,0.404,0.15,0.501c0.013,0.007,0.027,0.014,0.042,0.019c0.206,0.1,0.454,0.014,0.554-0.191
		c0-0.001,0.001-0.002,0.001-0.003c0.095-0.184,0.023-0.411-0.161-0.507c-0.01-0.005-0.02-0.01-0.03-0.014
		C359.222,370.295,358.98,370.38,358.874,370.579L358.874,370.579z M324.556,355.568c-0.004,0.222,0.172,0.405,0.394,0.409
		c0.003,0,0.006,0,0.009,0c0.219-0.004,0.392-0.185,0.388-0.404c-0.004-0.219-0.185-0.392-0.404-0.388
		C324.733,355.19,324.563,355.358,324.556,355.568z M334.65,356.018c-0.008,0.222,0.164,0.409,0.386,0.419
		c0.224,0.012,0.416-0.157,0.433-0.381c0.011-0.213-0.154-0.395-0.367-0.405c-0.007,0-0.015-0.001-0.022,0
		c-0.216-0.021-0.408,0.136-0.429,0.352C334.65,356.008,334.65,356.013,334.65,356.018L334.65,356.018z M327.33,389.793
		c0.157,0.166,0.417,0.18,0.591,0.031c0.159-0.134,0.18-0.371,0.046-0.531c-0.009-0.01-0.018-0.02-0.028-0.03
		c-0.158-0.165-0.417-0.178-0.591-0.031c-0.16,0.141-0.174,0.385-0.033,0.545C327.32,389.783,327.325,389.788,327.33,389.793z
		 M334.806,383.388c0.157,0.166,0.417,0.18,0.591,0.031c0.159-0.134,0.18-0.371,0.046-0.53c-0.009-0.01-0.018-0.021-0.028-0.03
		c-0.158-0.165-0.417-0.178-0.591-0.031c-0.16,0.141-0.174,0.385-0.033,0.544C334.796,383.378,334.801,383.383,334.806,383.388z
		 M342.278,376.997c0.165,0.155,0.42,0.163,0.594,0.017c0.163-0.137,0.183-0.38,0.046-0.543c-0.004-0.005-0.008-0.01-0.013-0.014
		c-0.165-0.16-0.423-0.175-0.605-0.034c-0.165,0.151-0.175,0.407-0.024,0.572C342.276,376.996,342.277,376.997,342.278,376.997z
		 M349.757,370.579c0.157,0.166,0.417,0.18,0.591,0.031c0.163-0.139,0.182-0.384,0.043-0.546c-0.003-0.004-0.006-0.007-0.01-0.011
		c-0.165-0.157-0.421-0.164-0.594-0.017c-0.157,0.12-0.187,0.345-0.066,0.503C349.731,370.553,349.744,370.566,349.757,370.579z
		 M357.229,364.188c0.165,0.155,0.42,0.163,0.594,0.017c0.155-0.126,0.177-0.354,0.051-0.509c-0.011-0.014-0.023-0.026-0.036-0.038
		c-0.152-0.165-0.409-0.177-0.576-0.028c-0.162,0.13-0.188,0.366-0.059,0.528C357.211,364.169,357.22,364.179,357.229,364.188
		L357.229,364.188z M362.021,405.337c0,0.224,0.18,0.406,0.404,0.409c0.22,0.018,0.412-0.146,0.43-0.366c0,0,0-0.001,0-0.001
		c0.019-0.212-0.139-0.399-0.351-0.418c-0.012-0.001-0.023-0.001-0.035-0.001C362.245,404.952,362.052,405.115,362.021,405.337
		L362.021,405.337z M362.514,395.819c0.003,0.223,0.177,0.407,0.4,0.423c0.224,0.012,0.416-0.157,0.433-0.381
		c-0.005-0.231-0.197-0.414-0.428-0.409C362.712,395.457,362.539,395.613,362.514,395.819L362.514,395.819z M363.003,386.315
		c-0.01,0.213,0.154,0.395,0.367,0.405c0.007,0,0.015,0.001,0.022,0c0.216,0.029,0.415-0.122,0.445-0.338
		c0.029-0.216-0.122-0.415-0.338-0.445c-0.02-0.003-0.041-0.004-0.062-0.003C363.212,385.923,363.02,386.092,363.003,386.315
		L363.003,386.315z M363.48,376.794c0,0.224,0.18,0.406,0.404,0.409c0.216,0.021,0.408-0.136,0.429-0.352
		c0-0.005,0.001-0.01,0.001-0.015c0.008-0.222-0.164-0.409-0.386-0.419C363.702,376.403,363.505,376.569,363.48,376.794
		L363.48,376.794z M320.869,382.714c0.128,0.155,0.353,0.186,0.519,0.073c0.154-0.096,0.2-0.298,0.104-0.452
		c-0.008-0.013-0.017-0.026-0.027-0.037c-0.125-0.16-0.355-0.192-0.519-0.073c-0.155,0.107-0.194,0.32-0.087,0.475
		C320.862,382.705,320.866,382.71,320.869,382.714L320.869,382.714z M328.09,377.628c0.129,0.154,0.353,0.186,0.519,0.073
		c0.159-0.105,0.204-0.318,0.099-0.478c-0.006-0.009-0.012-0.017-0.018-0.026c-0.134-0.15-0.359-0.175-0.522-0.059
		c-0.154,0.098-0.199,0.302-0.102,0.456C328.073,377.606,328.081,377.617,328.09,377.628L328.09,377.628z M335.249,372.296
		c-0.02,0.087,0.003,0.178,0.061,0.245c0.129,0.154,0.353,0.186,0.519,0.073c0.159-0.105,0.204-0.318,0.099-0.478
		c-0.006-0.009-0.012-0.017-0.018-0.026c-0.077-0.096-0.194-0.149-0.317-0.143l-0.014-0.003c-0.07,0-0.137,0.026-0.187,0.074
		C335.302,372.093,335.248,372.191,335.249,372.296L335.249,372.296z M342.531,367.455c0.132,0.147,0.351,0.178,0.519,0.073
		c0.161-0.114,0.199-0.337,0.084-0.498c-0.001-0.002-0.002-0.003-0.004-0.005c-0.128-0.155-0.353-0.186-0.519-0.073
		c-0.159,0.105-0.204,0.319-0.099,0.478C342.518,367.438,342.524,367.447,342.531,367.455L342.531,367.455z M349.751,362.369
		c0.134,0.15,0.359,0.175,0.522,0.059c0.155-0.107,0.195-0.32,0.087-0.475c-0.003-0.005-0.007-0.01-0.01-0.014
		c-0.134-0.155-0.362-0.188-0.533-0.076c-0.158,0.12-0.189,0.344-0.069,0.502C349.749,362.366,349.75,362.367,349.751,362.369
		L349.751,362.369z M353.404,400.729c-0.018,0.201,0.127,0.381,0.328,0.406c0.193,0.034,0.377-0.094,0.411-0.287
		c0.034-0.193-0.094-0.377-0.287-0.411c-0.008-0.001-0.016-0.003-0.024-0.003C353.634,400.407,353.449,400.535,353.404,400.729
		L353.404,400.729z M354.704,392.333c-0.021,0.194,0.119,0.368,0.313,0.389c0.001,0,0.002,0,0.003,0
		c0.193,0.034,0.377-0.094,0.411-0.287c0.034-0.193-0.094-0.377-0.287-0.411c-0.008-0.001-0.016-0.003-0.024-0.003
		C354.92,391.997,354.737,392.135,354.704,392.333L354.704,392.333z M355.996,383.906c-0.029,0.193,0.105,0.373,0.298,0.401
		c0.005,0.001,0.01,0.001,0.015,0.002c0.188,0.038,0.371-0.084,0.409-0.272c0.002-0.009,0.003-0.017,0.004-0.026
		c0.028-0.193-0.105-0.373-0.298-0.401c-0.005-0.001-0.01-0.001-0.015-0.002C356.214,383.583,356.034,383.714,355.996,383.906
		L355.996,383.906z M357.281,375.507c-0.021,0.194,0.119,0.368,0.313,0.389c0.001,0,0.002,0,0.003,0
		c0.191,0.042,0.38-0.079,0.422-0.27s-0.079-0.38-0.27-0.422c-0.013-0.003-0.026-0.005-0.038-0.006
		C357.51,375.173,357.322,375.308,357.281,375.507L357.281,375.507z M358.573,367.081c-0.029,0.193,0.105,0.373,0.298,0.401
		c0.005,0.001,0.01,0.001,0.015,0.002c0.199,0.036,0.39-0.096,0.427-0.295c0.018-0.201-0.127-0.381-0.328-0.406
		C358.793,366.764,358.616,366.891,358.573,367.081L358.573,367.081z M325.168,362.466c0.058,0.195,0.263,0.306,0.458,0.248
		c0,0,0.001,0,0.001,0c0.18-0.033,0.3-0.205,0.267-0.386c-0.002-0.012-0.005-0.023-0.008-0.034
		c-0.054-0.198-0.258-0.315-0.456-0.261C325.239,362.08,325.121,362.274,325.168,362.466L325.168,362.466z M333.907,360.37
		c0.055,0.19,0.249,0.303,0.442,0.258c0.193-0.039,0.318-0.227,0.279-0.42c-0.001-0.004-0.001-0.007-0.002-0.01
		c-0.064-0.19-0.26-0.303-0.456-0.261c-0.189,0.042-0.308,0.229-0.267,0.418C333.905,360.359,333.906,360.364,333.907,360.37
		L333.907,360.37z M342.633,358.27c0.058,0.195,0.259,0.31,0.456,0.261c0.193-0.046,0.315-0.236,0.277-0.43
		c-0.062-0.193-0.265-0.302-0.46-0.248c-0.184,0.03-0.309,0.203-0.28,0.387C342.628,358.25,342.63,358.26,342.633,358.27
		L342.633,358.27z M336.88,390.513c-0.096,0.165-0.04,0.376,0.125,0.472c0.005,0.003,0.01,0.006,0.015,0.008
		c0.174,0.099,0.394,0.047,0.506-0.118c0.102-0.169,0.047-0.388-0.122-0.49c0,0,0,0-0.001,0
		C337.223,390.285,336.995,390.341,336.88,390.513L336.88,390.513z M341.498,383.208c-0.102,0.149-0.063,0.353,0.086,0.454
		c0.013,0.009,0.026,0.016,0.039,0.023c0.174,0.099,0.394,0.047,0.506-0.118c0.102-0.169,0.047-0.388-0.121-0.49c0,0,0,0-0.001,0
		C341.828,382.981,341.608,383.039,341.498,383.208L341.498,383.208z M346.1,375.899c-0.099,0.157-0.053,0.365,0.105,0.465
		c0.007,0.004,0.014,0.008,0.021,0.012c0.174,0.099,0.394,0.047,0.506-0.118c0.102-0.149,0.063-0.353-0.086-0.454
		c-0.013-0.009-0.026-0.016-0.039-0.023C346.433,375.675,346.208,375.728,346.1,375.899L346.1,375.899z M350.703,368.59
		c-0.099,0.157-0.053,0.365,0.105,0.465c0.007,0.004,0.014,0.008,0.021,0.012c0.1,0.06,0.221,0.072,0.33,0.031l0.015,0.003
		c0.072-0.032,0.132-0.084,0.176-0.149c0.096-0.165,0.04-0.376-0.125-0.472c-0.005-0.003-0.01-0.006-0.015-0.008
		C351.035,368.373,350.814,368.424,350.703,368.59L350.703,368.59z M355.305,361.281c-0.1,0.168-0.046,0.385,0.122,0.486
		c0.005,0.003,0.01,0.006,0.015,0.008c0.178,0.094,0.399,0.037,0.509-0.132c0.023-0.042,0.04-0.087,0.049-0.134
		c-0.046-0.061-0.065-0.139-0.053-0.215c-0.03-0.057-0.078-0.103-0.136-0.132C355.637,361.064,355.417,361.115,355.305,361.281
		L355.305,361.281z M370.938,395.708c0.053,0.189,0.248,0.299,0.437,0.247c0.003-0.001,0.005-0.001,0.008-0.002
		c0.19-0.034,0.316-0.216,0.283-0.406c-0.001-0.008-0.003-0.017-0.005-0.025c-0.066-0.189-0.265-0.297-0.46-0.248
		c-0.186,0.037-0.307,0.218-0.27,0.405C370.933,395.689,370.935,395.698,370.938,395.708L370.938,395.708z M368.715,387.464
		c0.06,0.193,0.259,0.308,0.456,0.261c0.189-0.042,0.308-0.229,0.266-0.417c-0.001-0.005-0.003-0.011-0.004-0.016
		c-0.055-0.19-0.249-0.303-0.441-0.258c-0.188,0.031-0.315,0.208-0.285,0.396C368.71,387.442,368.712,387.453,368.715,387.464
		L368.715,387.464z M362.058,362.75c0.055,0.19,0.249,0.303,0.441,0.258c0.193-0.039,0.318-0.227,0.279-0.42
		c-0.001-0.004-0.001-0.007-0.002-0.011c-0.064-0.19-0.26-0.303-0.456-0.261c-0.189,0.042-0.308,0.229-0.267,0.418
		C362.055,362.739,362.056,362.745,362.058,362.75z M329.507,363.279c0.061,0.103,0.189,0.144,0.298,0.096
		c0.106-0.049,0.151-0.175,0.102-0.281c0,0,0,0,0,0c-0.061-0.103-0.189-0.144-0.298-0.096
		C329.503,363.047,329.458,363.173,329.507,363.279L329.507,363.279z M334.29,361.107c0.062,0.102,0.189,0.143,0.298,0.096
		c0.105-0.05,0.15-0.176,0.102-0.281c-0.061-0.103-0.189-0.144-0.298-0.096C334.286,360.875,334.24,361.001,334.29,361.107
		C334.29,361.106,334.29,361.106,334.29,361.107L334.29,361.107z M339.091,358.924c0.056,0.1,0.18,0.141,0.284,0.093
		c0.1-0.032,0.154-0.139,0.121-0.239c-0.005-0.015-0.012-0.029-0.02-0.042c-0.056-0.1-0.18-0.141-0.284-0.092
		c-0.1,0.034-0.154,0.142-0.12,0.242C339.077,358.898,339.083,358.912,339.091,358.924L339.091,358.924z M346.192,377.179
		c-0.037,0.105,0.018,0.221,0.123,0.258c0.003,0.001,0.007,0.002,0.01,0.003c0.111,0.038,0.233-0.017,0.277-0.126
		c0.037-0.105-0.018-0.221-0.124-0.258c-0.003-0.001-0.007-0.002-0.01-0.003C346.358,377.014,346.236,377.07,346.192,377.179
		L346.192,377.179z M347.936,372.444c-0.032,0.114,0.034,0.232,0.148,0.265c0,0,0,0,0.001,0c0.111,0.039,0.233-0.017,0.277-0.126
		c0.04-0.1-0.009-0.214-0.109-0.254c-0.008-0.003-0.016-0.006-0.024-0.008C348.114,372.277,347.985,372.331,347.936,372.444
		L347.936,372.444z M349.695,367.713c-0.037,0.105,0.018,0.221,0.123,0.258c0.003,0.001,0.007,0.002,0.01,0.003
		c0.111,0.039,0.233-0.017,0.277-0.126c0.04-0.1-0.009-0.214-0.109-0.254c-0.008-0.003-0.016-0.006-0.025-0.008
		C349.861,367.548,349.74,367.604,349.695,367.713L349.695,367.713z M351.454,362.981l-0.014,0.055
		c0.002,0.093,0.061,0.174,0.147,0.207c0.111,0.038,0.233-0.017,0.277-0.126c0.029-0.083,0.003-0.175-0.065-0.232l-0.015-0.003
		c-0.015-0.015-0.034-0.024-0.055-0.027c-0.109-0.043-0.233,0.011-0.275,0.121C351.456,362.978,351.455,362.98,351.454,362.981
		L351.454,362.981z M353.199,358.247c-0.037,0.105,0.018,0.221,0.123,0.258c0.003,0.001,0.007,0.002,0.01,0.003
		c0.109,0.043,0.233-0.011,0.275-0.121c0.001-0.002,0.001-0.004,0.002-0.005c0.04-0.1-0.009-0.214-0.109-0.254
		c-0.008-0.003-0.016-0.006-0.025-0.008C353.365,358.082,353.243,358.138,353.199,358.247L353.199,358.247z M361.606,362.591
		c0.062,0.101,0.189,0.142,0.298,0.096c0.106-0.049,0.151-0.175,0.102-0.281c0,0,0,0,0,0c-0.056-0.1-0.18-0.141-0.284-0.093
		c-0.106,0.037-0.161,0.154-0.124,0.259C361.601,362.579,361.604,362.585,361.606,362.591L361.606,362.591z M338.17,369.779
		c0.095,0.068,0.225,0.061,0.311-0.017c0.077-0.075,0.078-0.198,0.003-0.275c-0.007-0.007-0.013-0.013-0.021-0.018
		c-0.089-0.081-0.228-0.075-0.309,0.015c-0.001,0.001-0.001,0.002-0.002,0.002c-0.076,0.081-0.073,0.208,0.008,0.285
		C338.163,369.773,338.166,369.776,338.17,369.779L338.17,369.779z M341.72,366.043c0.095,0.068,0.225,0.061,0.311-0.017
		c0.076-0.084,0.07-0.214-0.015-0.291c-0.001-0.001-0.002-0.002-0.003-0.003c-0.086-0.083-0.223-0.082-0.308,0.004
		c-0.081,0.077-0.085,0.205-0.008,0.286C341.704,366.029,341.712,366.036,341.72,366.043L341.72,366.043z M345.259,362.289
		c0.089,0.081,0.228,0.075,0.309-0.014c0.001-0.001,0.002-0.002,0.002-0.003c0.076-0.081,0.073-0.208-0.008-0.285
		c-0.003-0.003-0.007-0.006-0.01-0.009c-0.095-0.068-0.225-0.061-0.311,0.017c-0.077,0.075-0.078,0.198-0.003,0.275
		C345.244,362.277,345.251,362.283,345.259,362.289L345.259,362.289z M348.794,358.549c0.089,0.081,0.228,0.075,0.309-0.014
		c0.001-0.001,0.002-0.002,0.002-0.003c0.076-0.081,0.073-0.208-0.008-0.285c-0.003-0.003-0.007-0.006-0.01-0.009
		c-0.095-0.068-0.225-0.061-0.311,0.017c-0.076,0.081-0.073,0.208,0.008,0.285C348.787,358.543,348.791,358.546,348.794,358.549
		L348.794,358.549z M357.252,376.109c0.007,0.115,0.106,0.203,0.221,0.196c0.002,0,0.004,0,0.006,0c0.114,0,0.207-0.092,0.207-0.206
		c0-0.003,0-0.006,0-0.008c-0.001-0.11-0.091-0.198-0.201-0.198c-0.009,0-0.018,0.001-0.026,0.002c-0.114,0-0.207,0.092-0.207,0.206
		C357.252,376.103,357.252,376.106,357.252,376.109L357.252,376.109z M356.947,371.103c0.014,0.12,0.121,0.208,0.242,0.199
		c0.112-0.005,0.199-0.101,0.193-0.213c0-0.001,0-0.003,0-0.004c-0.001-0.11-0.091-0.198-0.201-0.198
		c-0.009,0-0.018,0.001-0.026,0.002c-0.114,0-0.207,0.092-0.207,0.206C356.946,371.098,356.946,371.1,356.947,371.103
		L356.947,371.103z M356.641,366.098c0.017,0.119,0.122,0.205,0.242,0.199c0.119-0.009,0.211-0.108,0.211-0.228
		c-0.02-0.116-0.127-0.197-0.245-0.185C356.734,365.889,356.643,365.983,356.641,366.098L356.641,366.098z M356.35,361.095
		c0.007,0.115,0.106,0.203,0.221,0.196c0.002,0,0.004,0,0.006,0c0.077-0.007,0.145-0.051,0.183-0.118
		c0.023-0.031,0.033-0.071,0.028-0.11c-0.013-0.114-0.112-0.199-0.227-0.196c-0.05,0.004-0.098,0.023-0.137,0.056l-0.003,0.014
		C356.365,360.97,356.337,361.033,356.35,361.095L356.35,361.095z M359.95,359.599c0.088,0.105,0.242,0.127,0.356,0.051
		c0.107-0.073,0.134-0.219,0.061-0.326c-0.002-0.003-0.005-0.007-0.007-0.01c-0.088-0.105-0.242-0.127-0.356-0.051
		c-0.107,0.073-0.134,0.219-0.061,0.326C359.945,359.593,359.947,359.596,359.95,359.599L359.95,359.599z M324.061,366.62
		c0.083,0.104,0.233,0.125,0.341,0.047c0.105-0.064,0.139-0.201,0.075-0.306c-0.006-0.01-0.013-0.02-0.021-0.029
		c-0.083-0.104-0.233-0.125-0.341-0.047c-0.107,0.073-0.134,0.219-0.061,0.326C324.056,366.613,324.059,366.616,324.061,366.62
		L324.061,366.62z M328.948,363.24c0.088,0.105,0.242,0.127,0.356,0.051c0.107-0.073,0.134-0.219,0.061-0.326
		c-0.002-0.003-0.005-0.007-0.007-0.01c-0.083-0.104-0.233-0.125-0.341-0.047c-0.108,0.059-0.147,0.194-0.088,0.302
		C328.934,363.221,328.941,363.231,328.948,363.24L328.948,363.24z M333.85,359.864c0.08,0.09,0.209,0.119,0.32,0.072
		c0.018-0.01,0.032-0.007,0.036-0.021c0.107-0.073,0.134-0.219,0.061-0.326c-0.002-0.003-0.005-0.007-0.007-0.01
		c-0.088-0.105-0.242-0.127-0.356-0.051c-0.107,0.073-0.134,0.219-0.061,0.326C333.846,359.858,333.848,359.861,333.85,359.864
		L333.85,359.864z M338.752,356.488c0.088,0.105,0.242,0.127,0.356,0.051c0.107-0.073,0.134-0.219,0.061-0.326
		c-0.002-0.003-0.005-0.006-0.007-0.01c-0.052-0.069-0.137-0.104-0.222-0.093c-0.029-0.007-0.047,0.004-0.062,0.001l-0.072,0.042
		c-0.107,0.073-0.134,0.219-0.061,0.326C338.748,356.482,338.75,356.485,338.752,356.488L338.752,356.488z M345.831,378.98
		c-0.023,0.121,0.056,0.237,0.176,0.26c0.011,0.002,0.022,0.003,0.033,0.004c0.131,0.02,0.255-0.067,0.28-0.198
		c0.012-0.132-0.077-0.251-0.206-0.278C345.978,378.75,345.852,378.844,345.831,378.98L345.831,378.98z M346.749,373.322
		c-0.014,0.134,0.084,0.253,0.218,0.267c0.002,0,0.004,0,0.007,0.001c0.131,0.02,0.255-0.067,0.28-0.198
		c0.012-0.132-0.077-0.251-0.206-0.278C346.909,373.099,346.782,373.188,346.749,373.322L346.749,373.322z M347.699,367.657
		c-0.03,0.12,0.043,0.242,0.164,0.272c0.014,0.003,0.028,0.006,0.043,0.006c0.131,0.02,0.255-0.068,0.28-0.198
		c0.012-0.132-0.077-0.251-0.206-0.278C347.847,367.439,347.724,367.526,347.699,367.657L347.699,367.657z M348.631,362.002
		c-0.03,0.12,0.043,0.242,0.164,0.272c0.014,0.003,0.028,0.006,0.043,0.006c0.132,0.017,0.253-0.076,0.27-0.208
		c0.017-0.132-0.076-0.253-0.208-0.27C348.771,361.785,348.652,361.874,348.631,362.002z M321.665,354.428
		c0.021,0.137,0.149,0.23,0.286,0.209c0.137-0.021,0.23-0.149,0.209-0.286c-0.021-0.137-0.149-0.23-0.286-0.209
		c-0.011,0.002-0.021,0.004-0.031,0.007c-0.125,0.026-0.205,0.148-0.179,0.273C321.664,354.424,321.665,354.426,321.665,354.428
		L321.665,354.428z M335.249,372.296c0.02,0.029,0.045,0.054,0.073,0.074c0.118,0.069,0.269,0.033,0.343-0.082
		c0.068-0.109,0.035-0.252-0.073-0.32l-0.014-0.003c-0.118-0.069-0.269-0.033-0.343,0.082
		C335.183,372.123,335.189,372.226,335.249,372.296L335.249,372.296z M338.401,367.153c-0.07,0.101-0.045,0.24,0.056,0.31
		c0.005,0.004,0.011,0.007,0.017,0.011c0.118,0.068,0.268,0.04,0.354-0.065c0.067-0.117,0.03-0.266-0.084-0.337
		C338.626,367.004,338.477,367.04,338.401,367.153L338.401,367.153z M341.549,362.269c-0.068,0.104-0.038,0.244,0.066,0.311
		c0.007,0.004,0.014,0.009,0.021,0.012c0.118,0.069,0.269,0.033,0.343-0.082c0.068-0.104,0.038-0.244-0.066-0.311
		c-0.007-0.004-0.014-0.009-0.021-0.012C341.774,362.117,341.623,362.154,341.549,362.269L341.549,362.269z M344.7,357.372
		c-0.067,0.108-0.033,0.25,0.075,0.316c0.004,0.003,0.008,0.005,0.013,0.007c0.11,0.075,0.26,0.048,0.335-0.062
		c0.001-0.002,0.003-0.004,0.004-0.007c0.07-0.101,0.045-0.24-0.056-0.31c-0.005-0.004-0.011-0.007-0.017-0.011
		C344.938,357.231,344.783,357.26,344.7,357.372L344.7,357.372z M358.121,375.768c0.039,0.132,0.177,0.209,0.31,0.171
		c0.125-0.026,0.205-0.148,0.179-0.273c0-0.002-0.001-0.004-0.001-0.006c-0.028-0.129-0.155-0.211-0.284-0.183
		c-0.003,0.001-0.005,0.001-0.008,0.002c-0.133,0.024-0.221,0.152-0.196,0.285C358.12,375.765,358.121,375.766,358.121,375.768
		L358.121,375.768z M356.696,370.207c0.031,0.126,0.158,0.202,0.284,0.171c0.004-0.001,0.008-0.002,0.012-0.003
		c0.124-0.015,0.212-0.128,0.196-0.252c-0.001-0.008-0.002-0.016-0.004-0.024c-0.037-0.133-0.172-0.214-0.307-0.185
		c-0.129,0.027-0.211,0.153-0.183,0.282C356.694,370.2,356.695,370.204,356.696,370.207L356.696,370.207z M355.257,364.644
		c0.036,0.132,0.172,0.209,0.304,0.173c0.002-0.001,0.004-0.001,0.006-0.002c0.125-0.026,0.205-0.148,0.179-0.273
		c0-0.002-0.001-0.004-0.001-0.006c-0.031-0.134-0.165-0.218-0.3-0.187C355.312,364.38,355.229,364.511,355.257,364.644
		L355.257,364.644z M353.818,359.08c0.041,0.131,0.178,0.206,0.31,0.171c0.12-0.018,0.202-0.13,0.184-0.25
		c-0.001-0.01-0.004-0.019-0.006-0.029c-0.028-0.129-0.155-0.211-0.284-0.183c-0.003,0.001-0.006,0.001-0.008,0.002
		C353.883,358.822,353.798,358.948,353.818,359.08L353.818,359.08z M317.233,391.065c-0.109,0.197-0.038,0.445,0.159,0.555
		c0.002,0.001,0.005,0.003,0.007,0.004c0.204,0.113,0.46,0.051,0.589-0.143c0.11-0.193,0.043-0.439-0.15-0.55
		c-0.005-0.003-0.011-0.006-0.016-0.009C317.618,390.808,317.361,390.871,317.233,391.065z M322.469,382.58
		c-0.115,0.181-0.062,0.422,0.12,0.537c0.01,0.007,0.021,0.013,0.032,0.018c0.203,0.117,0.462,0.054,0.589-0.143
		c0.115-0.181,0.062-0.422-0.12-0.537c-0.01-0.007-0.021-0.013-0.032-0.018C322.854,382.324,322.598,382.386,322.469,382.58z
		 M327.69,374.092c-0.11,0.193-0.043,0.439,0.15,0.55c0.005,0.003,0.011,0.006,0.016,0.009c0.204,0.113,0.46,0.051,0.589-0.143
		c0.113-0.184,0.055-0.425-0.129-0.538c-0.012-0.007-0.024-0.014-0.037-0.02C328.075,373.836,327.819,373.898,327.69,374.092
		L327.69,374.092z M332.927,365.608c-0.114,0.186-0.056,0.428,0.129,0.542c0.007,0.004,0.015,0.009,0.022,0.013
		c0.204,0.113,0.46,0.051,0.589-0.143c0.115-0.181,0.062-0.422-0.12-0.537c-0.01-0.007-0.021-0.013-0.032-0.018
		C333.312,365.348,333.053,365.411,332.927,365.608L332.927,365.608z M338.148,357.12c-0.11,0.193-0.043,0.439,0.15,0.55
		c0.005,0.003,0.011,0.006,0.017,0.009c0.199,0.116,0.455,0.051,0.574-0.147c0.118-0.17,0.077-0.403-0.093-0.522
		c-0.019-0.013-0.038-0.024-0.059-0.034C338.533,356.864,338.277,356.926,338.148,357.12L338.148,357.12z M360.604,396.883
		c0.077,0.222,0.311,0.35,0.54,0.295c0.214-0.047,0.348-0.258,0.301-0.472c-0.002-0.009-0.004-0.018-0.007-0.027
		c-0.065-0.225-0.3-0.355-0.525-0.291C360.691,396.439,360.553,396.661,360.604,396.883L360.604,396.883z M357.941,387.397
		c0.073,0.219,0.301,0.345,0.525,0.291c0.217-0.044,0.358-0.256,0.314-0.473c-0.001-0.007-0.003-0.015-0.005-0.022
		c-0.065-0.225-0.3-0.355-0.525-0.291c-0.221,0.05-0.36,0.269-0.31,0.49C357.94,387.393,357.941,387.395,357.941,387.397
		L357.941,387.397z M355.279,377.911c0.071,0.22,0.301,0.348,0.525,0.291c0.221-0.045,0.364-0.261,0.319-0.482
		c-0.045-0.221-0.261-0.364-0.482-0.319c-0.018,0.004-0.036,0.008-0.053,0.014c-0.216,0.042-0.357,0.251-0.316,0.467
		C355.274,377.892,355.276,377.901,355.279,377.911L355.279,377.911z M352.617,368.425c0.071,0.22,0.301,0.348,0.525,0.291
		c0.221-0.045,0.365-0.261,0.32-0.482c-0.045-0.221-0.261-0.365-0.482-0.32c-0.018,0.004-0.036,0.009-0.054,0.015
		c-0.211,0.034-0.355,0.233-0.321,0.445C352.608,368.392,352.612,368.408,352.617,368.425L352.617,368.425z M349.94,358.936
		c0.071,0.221,0.306,0.345,0.529,0.278c0.216-0.042,0.357-0.251,0.316-0.467c-0.002-0.01-0.004-0.019-0.007-0.029
		c-0.071-0.22-0.301-0.348-0.525-0.291C350.027,358.483,349.888,358.709,349.94,358.936L349.94,358.936z M320.598,362.63
		c0.154,0.177,0.416,0.211,0.61,0.079c0.181-0.129,0.223-0.38,0.094-0.56c-0.004-0.005-0.007-0.01-0.011-0.014
		c-0.154-0.178-0.416-0.211-0.609-0.079c-0.181,0.13-0.222,0.382-0.093,0.563C320.592,362.622,320.595,362.626,320.598,362.63
		L320.598,362.63z M328.869,356.664c0.145,0.187,0.412,0.228,0.606,0.092c0.181-0.129,0.223-0.38,0.094-0.56
		c-0.003-0.005-0.007-0.01-0.011-0.014c-0.15-0.184-0.418-0.218-0.61-0.079c-0.176,0.122-0.219,0.363-0.097,0.539
		C328.858,356.649,328.863,356.657,328.869,356.664L328.869,356.664z M338.232,393.378c-0.015,0.228,0.149,0.429,0.375,0.46
		c0.228,0.027,0.437-0.131,0.474-0.357c0.031-0.221-0.123-0.424-0.343-0.455c-0.006-0.001-0.012-0.001-0.017-0.002
		C338.488,392.99,338.271,393.147,338.232,393.378L338.232,393.378z M339.623,383.642c-0.02,0.235,0.154,0.442,0.389,0.462
		c0.218,0.019,0.415-0.13,0.456-0.345c0.035-0.215-0.11-0.418-0.325-0.453c-0.012-0.002-0.024-0.003-0.036-0.004
		c-0.222-0.044-0.438,0.101-0.482,0.323C339.625,383.631,339.624,383.636,339.623,383.642z M341.011,373.919
		c-0.031,0.22,0.123,0.424,0.343,0.455c0.006,0.001,0.012,0.002,0.018,0.002c0.232,0.035,0.449-0.123,0.488-0.354
		c0.027-0.226-0.135-0.43-0.36-0.457c0,0,0,0,0,0C341.267,373.531,341.05,373.688,341.011,373.919L341.011,373.919z
		 M342.399,364.197c-0.028,0.216,0.124,0.413,0.339,0.441c0.008,0.001,0.017,0.002,0.025,0.002c0.218,0.047,0.433-0.092,0.48-0.311
		c0.047-0.218-0.092-0.433-0.311-0.48c-0.015-0.003-0.03-0.006-0.045-0.007C342.656,363.808,342.439,363.966,342.399,364.197
		L342.399,364.197z M357.967,360.951c0.149,0.176,0.407,0.208,0.595,0.075c0.181-0.129,0.223-0.38,0.094-0.56
		c-0.004-0.005-0.007-0.01-0.011-0.014c-0.154-0.176-0.416-0.21-0.609-0.079c-0.177,0.127-0.218,0.373-0.091,0.55
		C357.952,360.932,357.959,360.942,357.967,360.951L357.967,360.951z M319.933,355.517c0.149,0.177,0.403,0.221,0.603,0.106
		c0.184-0.125,0.231-0.376,0.106-0.56c-0.003-0.004-0.005-0.008-0.008-0.011c-0.135-0.189-0.397-0.234-0.588-0.103
		c-0.185,0.111-0.245,0.351-0.134,0.536C319.918,355.496,319.925,355.507,319.933,355.517z M331.142,394.165
		c-0.035,0.223,0.116,0.432,0.339,0.467c0.001,0,0.002,0,0.004,0.001c0.225,0.042,0.443-0.1,0.496-0.323
		c0.042-0.223-0.105-0.437-0.328-0.479c-0.004-0.001-0.008-0.001-0.012-0.002C331.411,393.787,331.19,393.936,331.142,394.165z
		 M332.951,384.537c-0.034,0.226,0.122,0.436,0.348,0.47c0.003,0,0.006,0.001,0.01,0.001c0.224,0.036,0.439-0.104,0.496-0.323
		c0.031-0.23-0.125-0.444-0.354-0.485C333.221,384.164,333.004,384.311,332.951,384.537L332.951,384.537z M334.761,374.909
		c-0.034,0.226,0.122,0.436,0.348,0.47c0.003,0,0.006,0.001,0.009,0.001c0.225,0.042,0.443-0.1,0.496-0.323
		c0.035-0.223-0.117-0.432-0.339-0.467c-0.001,0-0.002,0-0.003-0.001C335.043,374.546,334.821,374.685,334.761,374.909
		L334.761,374.909z M336.585,365.284c-0.043,0.212,0.094,0.419,0.306,0.462c0.012,0.003,0.025,0.004,0.037,0.006
		c0.225,0.042,0.443-0.101,0.496-0.323c0.039-0.217-0.105-0.425-0.322-0.464c-0.007-0.001-0.014-0.002-0.021-0.003
		C336.854,364.913,336.633,365.058,336.585,365.284z M361.952,369.574c0.149,0.18,0.41,0.22,0.606,0.092
		c0.178-0.117,0.228-0.357,0.11-0.536c-0.005-0.008-0.01-0.015-0.016-0.022c-0.135-0.189-0.397-0.234-0.588-0.103
		c-0.185,0.111-0.245,0.351-0.134,0.536C361.936,369.553,361.944,369.564,361.952,369.574L361.952,369.574z M355.947,361.295
		c-0.012,0.076,0.007,0.153,0.053,0.215c-0.003,0.014,0.008,0.031,0.019,0.048c0.141,0.19,0.405,0.236,0.603,0.106
		c0.162-0.106,0.221-0.315,0.139-0.49c-0.004-0.031-0.018-0.06-0.041-0.082c-0.072-0.093-0.179-0.153-0.296-0.168l-0.003,0.014
		c-0.099-0.024-0.204-0.005-0.289,0.051C356.023,361.054,355.954,361.168,355.947,361.295L355.947,361.295z M318.714,373.472
		c-0.118,0.178-0.068,0.418,0.11,0.535c0.009,0.006,0.018,0.012,0.028,0.017c0.198,0.123,0.457,0.074,0.596-0.113
		c0.121-0.185,0.069-0.434-0.116-0.555c-0.006-0.004-0.012-0.007-0.018-0.011C319.11,373.23,318.853,373.285,318.714,373.472
		L318.714,373.472z M324.304,365.226c-0.123,0.177-0.08,0.42,0.097,0.543c0.012,0.008,0.024,0.016,0.037,0.023
		c0.199,0.114,0.453,0.058,0.585-0.13c0.12-0.189,0.064-0.44-0.125-0.56c-0.003-0.002-0.006-0.003-0.008-0.005
		C324.691,364.979,324.435,365.036,324.304,365.226L324.304,365.226z M329.877,356.991c-0.118,0.178-0.068,0.418,0.11,0.535
		c0.009,0.006,0.018,0.011,0.028,0.017c0.197,0.127,0.459,0.077,0.596-0.113c0.121-0.185,0.069-0.433-0.116-0.555
		c-0.006-0.004-0.012-0.008-0.018-0.011C330.274,356.746,330.014,356.801,329.877,356.991L329.877,356.991z M352.077,388.863
		c0.065,0.224,0.294,0.358,0.522,0.305c0.218-0.04,0.362-0.248,0.322-0.466c-0.001-0.004-0.002-0.008-0.002-0.012
		c-0.051-0.225-0.275-0.367-0.5-0.316c-0.001,0-0.003,0.001-0.004,0.001c-0.223,0.033-0.376,0.24-0.343,0.463
		C352.074,388.846,352.075,388.855,352.077,388.863L352.077,388.863z M349.845,379.315c0.065,0.224,0.294,0.358,0.522,0.305
		c0.218-0.04,0.362-0.248,0.322-0.466c-0.001-0.004-0.002-0.008-0.002-0.012c-0.051-0.225-0.275-0.367-0.5-0.316
		c-0.001,0-0.003,0.001-0.004,0.001c-0.223,0.033-0.376,0.241-0.343,0.463C349.842,379.297,349.843,379.306,349.845,379.315
		L349.845,379.315z M347.613,369.766c0.065,0.224,0.294,0.358,0.522,0.305c0.218-0.04,0.362-0.249,0.322-0.466
		c-0.001-0.004-0.002-0.008-0.002-0.012c-0.057-0.223-0.279-0.362-0.504-0.316c-0.223,0.033-0.376,0.24-0.343,0.463
		C347.61,369.749,347.611,369.757,347.613,369.766L347.613,369.766z M345.381,360.217c0.067,0.223,0.295,0.356,0.522,0.305
		c0.218-0.04,0.362-0.248,0.322-0.466c-0.001-0.004-0.002-0.008-0.002-0.012c-0.063-0.218-0.28-0.354-0.504-0.316
		c-0.224,0.036-0.377,0.246-0.342,0.471C345.379,360.205,345.38,360.211,345.381,360.217L345.381,360.217z M362.168,360.849
		c0.135,0.115,0.335,0.109,0.464-0.012c0.117-0.118,0.117-0.31-0.002-0.427c-0.004-0.004-0.007-0.007-0.011-0.01
		c-0.135-0.115-0.335-0.109-0.464,0.012c-0.117,0.118-0.117,0.309,0.002,0.427C362.16,360.842,362.164,360.846,362.168,360.849
		L362.168,360.849z M337.831,378.506c0.017,0.179,0.176,0.31,0.355,0.292c0.16-0.015,0.285-0.146,0.293-0.306
		c-0.004-0.168-0.143-0.3-0.311-0.296c-0.01,0-0.02,0.001-0.03,0.002C337.97,378.202,337.833,378.337,337.831,378.506
		L337.831,378.506z M337.564,371.149c0.017,0.173,0.167,0.303,0.341,0.293c0.173-0.006,0.311-0.148,0.311-0.321
		c-0.01-0.173-0.159-0.304-0.332-0.294c-0.003,0-0.006,0-0.009,0.001C337.702,370.834,337.564,370.976,337.564,371.149
		L337.564,371.149z M337.301,363.779c0.017,0.173,0.167,0.302,0.341,0.293c0.173-0.006,0.311-0.148,0.311-0.321
		c-0.017-0.173-0.167-0.302-0.341-0.293C337.439,363.463,337.301,363.605,337.301,363.779L337.301,363.779z M337.038,356.408
		c0.007,0.168,0.15,0.298,0.318,0.291c0.003,0,0.005,0,0.008,0c0.172,0.006,0.316-0.129,0.322-0.301c0-0.001,0-0.002,0-0.003
		c-0.011-0.176-0.16-0.312-0.337-0.307c-0.171-0.001-0.311,0.138-0.311,0.309C337.038,356.4,337.038,356.404,337.038,356.408
		L337.038,356.408z M322.667,372.157c-0.056,0.158,0.027,0.332,0.185,0.388c0.003,0.001,0.005,0.002,0.008,0.003
		c0.164,0.05,0.34-0.027,0.414-0.182c0.058-0.155-0.021-0.327-0.176-0.385c-0.006-0.002-0.012-0.004-0.018-0.006
		c-0.163-0.065-0.347,0.014-0.412,0.176C322.669,372.153,322.668,372.155,322.667,372.157L322.667,372.157z M325.406,365.241
		c-0.057,0.164,0.027,0.344,0.19,0.404c0.165,0.06,0.347-0.02,0.414-0.182c0.062-0.147-0.007-0.316-0.153-0.378
		c-0.008-0.004-0.017-0.007-0.025-0.009C325.668,365.008,325.48,365.081,325.406,365.241L325.406,365.241z M328.155,358.343
		c-0.061,0.148,0.01,0.318,0.158,0.379c0.012,0.005,0.023,0.009,0.036,0.012c0.16,0.066,0.344-0.009,0.411-0.169
		c0.057-0.164-0.027-0.344-0.19-0.404C328.405,358.1,328.222,358.181,328.155,358.343L328.155,358.343z M352.571,371.658
		c0.076,0.157,0.263,0.224,0.422,0.152c0.153-0.053,0.235-0.22,0.182-0.373c-0.005-0.013-0.01-0.026-0.017-0.039
		c-0.081-0.154-0.27-0.215-0.426-0.139c-0.15,0.055-0.228,0.222-0.173,0.372C352.563,371.641,352.566,371.649,352.571,371.658
		L352.571,371.658z M349.331,364.953c0.087,0.155,0.279,0.217,0.44,0.142c0.154-0.064,0.227-0.241,0.163-0.396
		c0-0.001-0.001-0.002-0.001-0.003c-0.087-0.152-0.273-0.219-0.437-0.156C349.339,364.611,349.266,364.793,349.331,364.953
		L349.331,364.953z M346.11,358.237c0.076,0.157,0.263,0.224,0.422,0.152c0.154-0.064,0.227-0.241,0.163-0.395
		c0-0.001-0.001-0.002-0.001-0.003c-0.077-0.163-0.272-0.233-0.435-0.156c0,0-0.001,0-0.001,0.001
		c-0.147,0.059-0.219,0.226-0.16,0.374C346.101,358.219,346.105,358.228,346.11,358.237L346.11,358.237z M327.079,356.336
		c-0.02,0.092,0.039,0.183,0.132,0.203c0,0,0.001,0,0.001,0c0.098,0.016,0.192-0.044,0.219-0.139
		c0.006-0.093-0.059-0.176-0.151-0.193C327.191,356.192,327.104,356.248,327.079,356.336L327.079,356.336z M329.238,364.102
		c0.041,0.151,0.194,0.243,0.347,0.208c0.138-0.015,0.239-0.139,0.224-0.278c-0.001-0.012-0.003-0.024-0.006-0.035
		c-0.035-0.155-0.189-0.251-0.343-0.216C329.312,363.813,329.216,363.953,329.238,364.102L329.238,364.102z M327.91,357.549
		c0.035,0.155,0.189,0.251,0.343,0.216c0.146-0.033,0.242-0.173,0.22-0.322c-0.037-0.154-0.188-0.251-0.343-0.222
		c-0.146,0.021-0.247,0.157-0.225,0.303C327.906,357.533,327.908,357.541,327.91,357.549L327.91,357.549z"/>
	
		<rect id="brush" x="440.758" y="232.744" transform="matrix(0.866 -0.5 0.5 0.866 -54.2508 267.5073)" style="fill:#428DFC;" width="62.584" height="4.486"/>
	
		<linearGradient id="top-3_1_" gradientUnits="userSpaceOnUse" x1="498.0282" y1="506.8503" x2="507.6485" y2="506.8503" gradientTransform="matrix(1 0 0 -1 0 722)">
		<stop  offset="0" style="stop-color:#28306D"/>
		<stop  offset="0.51" style="stop-color:#1F275F"/>
		<stop  offset="1" style="stop-color:#171F51"/>
	</linearGradient>
	<path id="top-3" style="fill:url(#top-3_1_);" d="M498.028,217.399c0,0,1.456-2.872,4.212-2.183s5.51-2.066,4.959-6.199
		c0,0,3.088,11.447-6.928,12.267L498.028,217.399z"/>
	
		<linearGradient id="R_hand_1_" gradientUnits="userSpaceOnUse" x1="482.9915" y1="477.9771" x2="445.9062" y2="420.4681" gradientTransform="matrix(1 0 0 -1 0 722)">
		<stop  offset="0" style="stop-color:#FFBEB6"/>
		<stop  offset="1" style="stop-color:#F2A19C"/>
	</linearGradient>
	<path id="R_hand" style="fill:url(#R_hand_1_);" d="M445.916,283.687c0,0,17.914-16.286,20.683-29.966s1.791-22.8,6.514-25.406
		s18.748-4.563,20.52-5.049c1.448-0.397,1.14,2.606-5.211,4.886c0,0,3.746,1.954,4.56,8.632s-5.374,0.326-6.677,1.466
		s0.977,8.794-6.84,13.517s-7.329,44.46-21.172,62.538l0,0C458.293,314.304,446.893,283.524,445.916,283.687
		c-0.977,0.163,12.377,30.617,12.377,30.617"/>
	
		<linearGradient id="SVGID_1_" gradientUnits="userSpaceOnUse" x1="359.257" y1="460.2065" x2="355.5651" y2="472.7927" gradientTransform="matrix(1 0 0 -1 0 722)">
		<stop  offset="0" style="stop-color:#FFBEB6"/>
		<stop  offset="1" style="stop-color:#F2A19C"/>
	</linearGradient>
	<path style="fill:url(#SVGID_1_);" d="M362.79,262.36c0,0-9.93-4.23-16.96-6.9c0,0,8.55-13.34,8.63-18.6l1.17,0.69
		c1.014,3.244,3.039,6.079,5.78,8.09c0.756-0.165,1.48-0.456,2.14-0.86c0.719-0.139,1.43-0.316,2.13-0.53
		C364.92,247.02,361.98,258.12,362.79,262.36z"/>
	
		<linearGradient id="L_sleeve_1_" gradientUnits="userSpaceOnUse" x1="333.275" y1="428.9663" x2="442.2543" y2="428.9663" gradientTransform="matrix(1 0 0 -1 0 722)">
		<stop  offset="0.1291" style="stop-color:#428DFC"/>
		<stop  offset="0.9987" style="stop-color:#1D72D8"/>
	</linearGradient>
	<path id="L_sleeve" style="fill:url(#L_sleeve_1_);" d="M370.664,269.292c0,0,28.517,21.446,54.368,0.58
		c0,0,7.262,0.477,17.222,47.74c0,0-22.85,20.702-49.412,9.96s-59.568-53.318-59.568-53.318l12.552-18.797
		C345.827,255.457,355.321,253.783,370.664,269.292"/>
	
		<linearGradient id="sweater_1_" gradientUnits="userSpaceOnUse" x1="328.5043" y1="422.144" x2="428.5142" y2="341.9834" gradientTransform="matrix(1 0 0 -1 0 722)">
		<stop  offset="0.1291" style="stop-color:#428DFC"/>
		<stop  offset="0.9987" style="stop-color:#1D72D8"/>
	</linearGradient>
	<path id="sweater" style="fill:url(#sweater_1_);" d="M390.61,358.06c-57.92,5.58-87.96-13.95-87.96-13.95
		c1.84-21.17,15.64-47.05,27.15-65.36c8.35-13.29,15.49-22.59,16-23.25c0.01-0.01,0.02-0.03,0.03-0.04
		c0.26-0.02,0.52-0.03,0.78-0.03c0.461,0.002,0.922,0.029,1.38,0.08c0.11,0.01,0.24,0.03,0.37,0.05
		c0.189,0.029,0.39,0.065,0.6,0.106c6.712,1.163,13.83,6.694,13.83,6.694c0.02,0.1,0.03,0.21,0.05,0.31
		c4.488,27.136,11.625,53.767,21.31,79.51C387.94,352.26,390.61,358.06,390.61,358.06z"/>
	<path id="R_sleeve" style="fill:#428DFC;" d="M459.85,318.07c0,0-13.77,18.54-40.03,28.64c-9.27,3.57-22.33,1.53-35.67-4.53
		c-24.2-11-56.789-40.354-38.32-86.72c0,0-0.54,0.7-0.03,0.04c0.01-0.01,0.02-0.03,0.03-0.04c0.719-0.081,1.446-0.064,2.16,0.05
		c0.11,0.01,0.24,0.03,0.37,0.05c2.73,0.42,7.62,1.96,14.48,7.11c6.201,4.832,11.827,10.358,16.77,16.47
		c21.67,25.89,45.54,14.14,58.76-4.4C438.37,274.74,446.26,276.57,459.85,318.07z"/>
	<path id="face" style="fill:#FFBEB6;" d="M360.44,245.8c-0.674,0.024-1.173,0.012-1.81-0.01c-3.14-4.8-4.75-8.53-4.45-12.23
		C354.384,238.357,356.67,242.827,360.44,245.8z"/>
	<path id="face-2" style="fill:#FFBEB6;" d="M378.14,227.67c0,0,0.444,13.119-13.827,17.223c0,0-1.573,0.437-2.903,0.747
		c-5.106-3.709-7.5-10.111-6.08-16.26c1.186-2.348,2.712-4.508,4.53-6.41c8.32-9.17,4.91-15.73,4.91-15.73
		c2.643,1.443,5.048,3.285,7.13,5.46c0,0.01,0.01,0.01,0.01,0.02c0.044,0.052,0.091,0.103,0.14,0.15c1.54,1.76,5.15,5.57,8.61,7.23
		C383.33,221.37,382.48,224.44,378.14,227.67z"/>
	<path id="eye-3" style="fill:#1C2868;" d="M367.816,216.134c2.918,1.521,6.017-0.866,5.645-4.224
		c-0.045-0.405-0.633-0.303-0.588,0.101c0.338,1.805-0.851,3.541-2.656,3.879c-0.75,0.14-1.526,0.018-2.197-0.346
		C367.673,215.363,367.471,215.954,367.816,216.134L367.816,216.134z"/>
	<path id="hair" style="fill:#E94A47;" d="M372.048,212.868c-4.763-16.074-20.901-13.269-32.412-8.703s-13.925,16.592-13.387,19.953
		c0.683,3.42,1.179,6.876,1.486,10.35c-0.019,0.738-0.057,1.476-0.14,2.213c-0.379,3.354-1.76,5.985-3.174,8.947
		c-1.597,3.344-2.546,6.711-0.592,10.09c0.241,0.417,0.836-0.041,0.597-0.454c-3.013-5.21,1.67-10.106,3.2-14.947
		c-0.154,1.434-0.521,2.838-1.09,4.164c-1.674,3.459-2.116,7.386-1.253,11.131c19.393,3.553,35.028-7.336,35.028-7.336
		c-4.231-6.044-6.476-10.407-6.133-14.713c0.246,5.31,3.01,10.184,7.44,13.12l0.053,0.037c0.411,0.28,0.833,0.551,1.276,0.803
		c0.418,0.238,0.701-0.457,0.286-0.693c-0.364-0.207-0.712-0.428-1.053-0.655c-0.12-0.08-0.234-0.163-0.351-0.244
		c-5.373-3.648-7.954-10.22-6.499-16.549c1.185-2.35,2.712-4.511,4.532-6.412c8.314-9.173,4.911-15.725,4.911-15.725
		C367.482,208.719,369.938,210.618,372.048,212.868z"/>
	<path id="hat" style="fill:#23286B;" d="M327.702,234.117c0,0-4.048-1.2-6.03-1.948c-2.509-0.947-12.386-7.009-4.646-16.371
		s27.96-21.921,34.651-24.346s20.8-7.949,19.819,6.063S342.01,230.847,327.702,234.117z"/>
</g>
</svg>
