<?xml version="1.0" encoding="iso-8859-1"?>
<!-- Generator: Adobe Illustrator 23.0.2, SVG Export Plug-In . SVG Version: 6.00 Build 0)  -->
<svg version="1.1" id="illustration" xmlns="http://www.w3.org/2000/svg" xmlns:xlink="http://www.w3.org/1999/xlink" x="0px"
	 y="0px" viewBox="0 0 1080 720" style="enable-background:new 0 0 1080 720;" xml:space="preserve">
<title>done</title>
<g id="man">
	<rect id="bg-3" x="304.462" y="112.643" style="fill:#EEEEEE;" width="475.878" height="281.711"/>
	
		<linearGradient id="L_hand_1_" gradientUnits="userSpaceOnUse" x1="507.2915" y1="452.2445" x2="478.3934" y2="392.3234" gradientTransform="matrix(1 0 0 -1 0 722)">
		<stop  offset="0" style="stop-color:#FFBEB6"/>
		<stop  offset="0.5925" style="stop-color:#F7ADA7"/>
		<stop  offset="1" style="stop-color:#F2A19C"/>
	</linearGradient>
	<path id="L_hand" style="fill:url(#L_hand_1_);" d="M470.349,321.26c0,0,14.02-7.676,15.042-18.476s0.947-9.159-0.049-13.775
		s1.064-5.458,3.852-2.102s0.274,8.853,2.296,8.508s4.464-0.309,7.13-7.79s4.343-9.848,6.557-8.133s8.022,11.289,1.809,20.146
		s-9.002,4.853-14.3,12.184s-8.849,20.347-13.78,26.226l0,0L470.349,321.26"/>
	
		<linearGradient id="L_hand-2_1_" gradientUnits="userSpaceOnUse" x1="555.1107" y1="429.852" x2="607.1803" y2="429.852" gradientTransform="matrix(1 0 0 -1 0 722)">
		<stop  offset="0" style="stop-color:#FFBEB6"/>
		<stop  offset="1" style="stop-color:#F2A19C"/>
	</linearGradient>
	<path id="L_hand-2" style="fill:url(#L_hand-2_1_);" d="M607.18,299.595c0,0-17.359-4.057-21.685-15.356s-3.755-9.558-4.065-14.816
		s-2.775-5.546-4.768-1.107s2.352,9.594,0.076,9.828s-4.889,1.003-9.989-6.239s-7.61-9.284-9.477-6.779s-5.245,14.528,4.079,22.188
		s11.123,2.524,19.007,8.817s15.591,19.217,22.646,24.061l0,0L607.18,299.595"/>
	
		<linearGradient id="tick_1_" gradientUnits="userSpaceOnUse" x1="543.9205" y1="513.9587" x2="543.9205" y2="356.8765" gradientTransform="matrix(1 0 0 -1 0 722)">
		<stop  offset="0.1291" style="stop-color:#428DFC"/>
		<stop  offset="0.9987" style="stop-color:#1D72D8"/>
	</linearGradient>
	<polygon id="tick" style="fill:url(#tick_1_);" points="438.645,219.145 503.43,324.628 557.002,324.628 649.196,179.277 
		586.903,179.277 525.44,279.362 487.649,219.145 	"/>
	
		<linearGradient id="R_shoe_1_" gradientUnits="userSpaceOnUse" x1="604.6517" y1="135.6436" x2="714.5204" y2="34.2265" gradientTransform="matrix(1 0 0 -1 0 722)">
		<stop  offset="0" style="stop-color:#F1B505"/>
		<stop  offset="1" style="stop-color:#D89C05"/>
	</linearGradient>
	<path id="R_shoe" style="fill:url(#R_shoe_1_);" d="M669.899,594.461l12.435,34.688l-87.787,0.003c0,0,4.501-8.682,19.507-15.113
		s29.011-19.578,29.011-19.578H669.899"/>
	<path id="L_shoe" style="fill:#F1B505;" d="M732.636,594.443l12.435,34.688l-87.787,0.003c0,0,4.501-8.682,19.507-15.113
		s29.011-19.578,29.011-19.578H732.636"/>
	
		<linearGradient id="R_trousers_1_" gradientUnits="userSpaceOnUse" x1="549.2314" y1="233.74" x2="712.5571" y2="233.74" gradientTransform="matrix(1 0 0 -1 0 722)">
		<stop  offset="0" style="stop-color:#23286B"/>
		<stop  offset="0.3535" style="stop-color:#1E2361"/>
		<stop  offset="1" style="stop-color:#151A4F"/>
	</linearGradient>
	<path id="R_trousers" style="fill:url(#R_trousers_1_);" d="M706.49,393.47c-10.58,46.44-11.4,39.92-9.77,72.5
		c1.64,32.58-3.66,21.59-5.29,55.8s0.46,51.1-21.53,72.7h-26.83c0,0-2.18-104.32-1.7-133.81c0.33-20.63,6.82-41.53,10.56-58.6
		l4.1-17.12c3.948-0.218,7.816-1.199,11.39-2.89c9.32,3.12,25.74,3.78,40.56,3.61C707.59,388.2,707.1,390.8,706.49,393.47z"/>
	<path id="L_trousers" style="fill:#23286B;" d="M732.64,594.44H705.8c0,0-42.3-101.94-44.41-124.08
		c-1.67-17.6-0.95-37.88,0.9-56.37l3.7-32.45c12.15,4.81,39.62,4.48,57.35,3.66c-0.489,10.097-2.37,20.078-5.59,29.66
		c-16.88,50.66-5.28,48.26,0.19,63.59c5.5,15.32,8.44,24.69,7.19,39.17c-1.27,14.49,5.05,10.65,8.44,29.37
		C736.94,565.73,732.64,594.44,732.64,594.44z"/>
	
		<linearGradient id="R_sleeve_1_" gradientUnits="userSpaceOnUse" x1="628.3957" y1="440.6902" x2="658.8851" y2="379.7114" gradientTransform="matrix(1 0 0 -1 0 722)">
		<stop  offset="0" style="stop-color:#A1C3FC"/>
		<stop  offset="0.6955" style="stop-color:#81AEF2"/>
		<stop  offset="1" style="stop-color:#78A9EF"/>
	</linearGradient>
	<path id="R_sleeve" style="fill:url(#R_sleeve_1_);" d="M676.851,281.057c0,0-3.175,17.14-27.026,23.032
		s-45.458-5.612-45.458-5.612l-15.198,38.608c0,0,7.123,7.523,21.714,6.681s21.825-2.918,28.279-1.234s35.918,2.806,42.091-16.836
		s11.838-49.226,11.838-49.226S686.199,283.279,676.851,281.057"/>
	
		<linearGradient id="L_hand-3_1_" gradientUnits="userSpaceOnUse" x1="515.238" y1="390.2383" x2="609.3362" y2="390.2383" gradientTransform="matrix(1 0 0 -1 0 722)">
		<stop  offset="0" style="stop-color:#FFBEB6"/>
		<stop  offset="1" style="stop-color:#F2A19C"/>
	</linearGradient>
	<path id="L_hand-3" style="fill:url(#L_hand-3_1_);" d="M609.336,333.379c0,0-37.036-6.024-42.393-10.807
		s-4.592-7.653-11.289-11.097s-11.48-6.123-13.967-8.227s-4.401,3.061,0.574,8.036s13.051,9.705,7.694,13.341
		c0,0-13.126-0.055-34.649,0.045c-1.082,0.005,11.075,8.81,25.616,9.001s14.733-3.827,23.343,2.87s30.941,24.219,30.941,24.219
		l12.894-23.116"/>
	<path id="texture" style="opacity:0.86;fill:#FFFFFF;enable-background:new    ;" d="M693.026,388.638
		c-0.045-0.105-0.166-0.153-0.27-0.109c-0.105,0.045-0.153,0.166-0.109,0.27s0.166,0.153,0.27,0.109l0,0
		C693.022,388.864,693.07,388.743,693.026,388.638C693.026,388.638,693.026,388.638,693.026,388.638z M671.681,388.581
		c-0.105-0.038-0.221,0.016-0.259,0.121c-0.05,0.094-0.014,0.211,0.08,0.261c0.008,0.004,0.016,0.008,0.025,0.011
		c0.108,0.044,0.231-0.008,0.275-0.116c0.044-0.108-0.008-0.231-0.116-0.275C671.684,388.582,671.682,388.582,671.681,388.581
		L671.681,388.581z M682.284,387.979c-0.118-0.001-0.214,0.095-0.215,0.213c-0.001,0.118,0.095,0.214,0.213,0.215l0,0
		c0.118,0.001,0.214-0.095,0.215-0.213C682.497,388.076,682.402,387.979,682.284,387.979z M720.353,389.608
		c-0.16-0.145-0.407-0.134-0.552,0.026c-0.003,0.003-0.006,0.007-0.009,0.011c-0.141,0.161-0.125,0.405,0.036,0.546
		c0.001,0.001,0.002,0.001,0.003,0.002c0.16,0.145,0.407,0.134,0.552-0.026c0.003-0.003,0.006-0.007,0.009-0.011
		c0.141-0.16,0.125-0.405-0.036-0.545C720.354,389.609,720.354,389.609,720.353,389.608L720.353,389.608z M691.278,413.745
		c-0.218,0.015-0.383,0.202-0.372,0.42c0.011,0.21,0.19,0.371,0.4,0.36c0.007,0,0.014-0.001,0.021-0.002
		c0.218-0.015,0.383-0.202,0.372-0.42C691.682,413.888,691.494,413.727,691.278,413.745
		C691.278,413.745,691.278,413.745,691.278,413.745L691.278,413.745z M690.6,404.202c-0.215,0.017-0.375,0.206-0.358,0.421
		c0,0,0,0,0,0.001c0.014,0.219,0.203,0.384,0.422,0.37c0.217-0.014,0.381-0.2,0.37-0.417
		C691.009,404.358,690.82,404.195,690.6,404.202L690.6,404.202z M689.937,394.662c-0.219,0.025-0.381,0.214-0.374,0.434
		c0.011,0.21,0.19,0.371,0.4,0.36c0.007,0,0.014-0.001,0.021-0.002c0.215-0.009,0.382-0.191,0.373-0.406
		c0-0.005,0-0.009-0.001-0.014C690.341,394.816,690.155,394.651,689.937,394.662L689.937,394.662z M710.051,404.225
		c-0.094-0.201-0.333-0.289-0.534-0.195c-0.201,0.094-0.289,0.333-0.195,0.534c0.094,0.201,0.333,0.289,0.534,0.195
		c0.002-0.001,0.005-0.002,0.007-0.003C710.06,404.659,710.143,404.424,710.051,404.225L710.051,404.225z M705.783,395.67
		c-0.094-0.201-0.333-0.289-0.534-0.195c-0.201,0.094-0.289,0.333-0.195,0.534s0.333,0.289,0.534,0.195
		c0.002-0.001,0.005-0.002,0.007-0.003C705.791,396.104,705.875,395.869,705.783,395.67L705.783,395.67z M701.515,387.115
		c-0.108-0.193-0.347-0.27-0.547-0.176c-0.197,0.103-0.273,0.345-0.171,0.542c0.1,0.191,0.333,0.27,0.528,0.178
		C701.521,387.556,701.604,387.318,701.515,387.115L701.515,387.115z M673.343,406.895c-0.197-0.07-0.414,0.034-0.484,0.231
		c-0.003,0.01-0.006,0.019-0.009,0.029c-0.068,0.202,0.04,0.421,0.242,0.489c0.001,0,0.003,0.001,0.004,0.001
		c0.207,0.07,0.431-0.039,0.505-0.244C673.659,407.191,673.547,406.972,673.343,406.895L673.343,406.895z M676.38,397.838
		c-0.204-0.073-0.429,0.033-0.502,0.237c-0.001,0.002-0.002,0.005-0.002,0.007c-0.07,0.207,0.039,0.431,0.244,0.505
		c0.21,0.058,0.43-0.054,0.507-0.258c0.068-0.202-0.04-0.421-0.242-0.489C676.383,397.839,676.382,397.839,676.38,397.838
		L676.38,397.838z M679.406,388.765c-0.207-0.07-0.431,0.039-0.505,0.244c-0.072,0.204,0.035,0.428,0.239,0.5
		c0.006,0.002,0.013,0.004,0.019,0.006c0.197,0.071,0.414-0.031,0.485-0.228c0.002-0.006,0.004-0.012,0.006-0.018
		C679.72,389.063,679.611,388.839,679.406,388.765L679.406,388.765z M718.248,399.864c-0.103-0.164-0.32-0.213-0.484-0.11
		s-0.213,0.32-0.11,0.484s0.32,0.213,0.484,0.11S718.352,400.029,718.248,399.864L718.248,399.864z M713.726,392.63
		c-0.103-0.164-0.32-0.213-0.484-0.11c-0.164,0.103-0.213,0.32-0.11,0.484c0.103,0.164,0.32,0.213,0.484,0.11l0,0
		c0.163-0.098,0.216-0.309,0.118-0.471C713.731,392.639,713.728,392.634,713.726,392.63L713.726,392.63z M682.611,405.623
		c-0.189-0.044-0.378,0.074-0.421,0.263c0,0.002-0.001,0.004-0.001,0.006c-0.049,0.182,0.059,0.369,0.241,0.417
		c0.005,0.001,0.01,0.003,0.015,0.004c0.194,0.041,0.385-0.077,0.437-0.268C682.915,405.856,682.797,405.671,682.611,405.623
		L682.611,405.623z M684.532,397.311c-0.189-0.044-0.378,0.074-0.421,0.263c0,0.002-0.001,0.004-0.001,0.006
		c-0.049,0.182,0.059,0.369,0.241,0.417c0.005,0.001,0.01,0.003,0.015,0.004c0.187,0.044,0.374-0.07,0.421-0.256
		C684.832,397.556,684.72,397.363,684.532,397.311L684.532,397.311z M686.453,388.998c-0.189-0.044-0.378,0.074-0.421,0.264
		c0,0.002-0.001,0.004-0.001,0.006c-0.052,0.176,0.048,0.361,0.224,0.413c0.011,0.003,0.021,0.006,0.032,0.008
		c0.189,0.044,0.378-0.074,0.421-0.263c0-0.002,0.001-0.004,0.001-0.007C686.75,389.233,686.637,389.048,686.453,388.998
		L686.453,388.998z M700.76,401.854c-0.19,0.042-0.315,0.225-0.286,0.417c0.033,0.19,0.213,0.317,0.403,0.284
		c0.192-0.03,0.324-0.209,0.298-0.401C701.141,401.958,700.956,401.825,700.76,401.854L700.76,401.854z M699.355,393.439
		c-0.19,0.042-0.315,0.225-0.286,0.417c0.033,0.19,0.213,0.317,0.403,0.284c0.185-0.026,0.314-0.197,0.288-0.382
		c-0.001-0.007-0.002-0.014-0.004-0.021C699.726,393.545,699.548,393.412,699.355,393.439L699.355,393.439z M669.159,394.84
		c-0.158-0.112-0.377-0.079-0.496,0.074c-0.114,0.157-0.079,0.376,0.078,0.49c0.003,0.002,0.007,0.005,0.01,0.007
		c0.146,0.113,0.355,0.087,0.469-0.059c0.004-0.006,0.009-0.012,0.013-0.018c0.117-0.151,0.09-0.369-0.061-0.486
		C669.168,394.847,669.163,394.844,669.159,394.84L669.159,394.84z M674.103,387.889c-0.166-0.107-0.387-0.06-0.494,0.106
		c-0.102,0.157-0.065,0.367,0.085,0.48c0.162,0.11,0.383,0.071,0.497-0.088c0.114-0.154,0.082-0.371-0.071-0.486
		C674.115,387.897,674.109,387.893,674.103,387.889L674.103,387.889z M697.606,386.274c-0.114-0.004-0.209,0.085-0.213,0.199
		c-0.004,0.114,0.085,0.209,0.199,0.213c0.114,0.004,0.209-0.085,0.213-0.199C697.809,386.374,697.72,386.278,697.606,386.274
		C697.606,386.274,697.606,386.274,697.606,386.274L697.606,386.274z M697.296,388.001c-0.128-0.017-0.249,0.064-0.283,0.189
		c-0.028,0.126,0.05,0.251,0.175,0.281c0.117,0.035,0.24-0.031,0.275-0.148c0.003-0.009,0.005-0.018,0.006-0.027
		c0.034-0.129-0.043-0.261-0.172-0.295C697.297,388.001,697.296,388.001,697.296,388.001L697.296,388.001z M717.845,409.072
		c-0.224,0.035-0.379,0.241-0.35,0.465c0.037,0.221,0.246,0.371,0.467,0.336c0.222-0.037,0.376-0.242,0.35-0.465
		C718.275,409.186,718.066,409.036,717.845,409.072L717.845,409.072z M716.308,399.339c-0.222,0.036-0.372,0.246-0.336,0.467
		s0.246,0.372,0.467,0.336c0.222-0.036,0.372-0.246,0.336-0.467c0,0,0,0,0,0C716.739,399.454,716.53,399.304,716.308,399.339
		L716.308,399.339z M714.786,389.608c-0.222,0.027-0.38,0.23-0.352,0.452c0.028,0.222,0.23,0.38,0.452,0.352
		c0.006-0.001,0.012-0.002,0.018-0.003c0.224-0.035,0.379-0.241,0.35-0.465C715.216,389.723,715.008,389.573,714.786,389.608
		L714.786,389.608z M677.833,399.409c-0.185-0.131-0.442-0.088-0.574,0.098c-0.127,0.179-0.091,0.427,0.083,0.562
		c0.188,0.129,0.444,0.09,0.583-0.091C678.052,399.795,678.011,399.544,677.833,399.409L677.833,399.409z M683.63,391.448
		c-0.182-0.133-0.437-0.093-0.57,0.089c-0.133,0.182-0.093,0.437,0.089,0.57c0.001,0.001,0.002,0.002,0.003,0.002
		c0.182,0.133,0.437,0.093,0.57-0.089c0.133-0.182,0.093-0.437-0.089-0.57C683.633,391.45,683.632,391.449,683.63,391.448z
		 M698.639,403.873c-0.215-0.052-0.431,0.081-0.483,0.296c-0.001,0.003-0.001,0.005-0.002,0.008
		c-0.054,0.216,0.073,0.437,0.288,0.497c0.219,0.043,0.435-0.088,0.499-0.302C698.995,404.151,698.86,403.928,698.639,403.873
		C698.639,403.873,698.639,403.873,698.639,403.873L698.639,403.873z M700.948,394.302c-0.209-0.055-0.423,0.069-0.479,0.278
		c-0.002,0.009-0.004,0.017-0.006,0.026c-0.053,0.213,0.076,0.429,0.289,0.482c0,0,0,0,0.001,0c0.221,0.054,0.444-0.08,0.498-0.301
		c0,0,0-0.001,0-0.001c0.055-0.209-0.069-0.423-0.278-0.479C700.966,394.305,700.957,394.303,700.948,394.302L700.948,394.302z
		 M704.593,407.052c-0.222-0.046-0.44,0.096-0.486,0.318c-0.046,0.222,0.096,0.44,0.318,0.486c0.222,0.046,0.439-0.096,0.486-0.317
		C704.958,407.317,704.816,407.099,704.593,407.052C704.593,407.052,704.593,407.052,704.593,407.052L704.593,407.052z
		 M706.497,397.424c-0.225-0.035-0.438,0.11-0.488,0.332c-0.034,0.217,0.106,0.424,0.32,0.472c0.222,0.046,0.44-0.096,0.486-0.318
		C706.855,397.69,706.715,397.476,706.497,397.424L706.497,397.424z M708.384,387.809c-0.219-0.042-0.43,0.101-0.472,0.32
		s0.101,0.43,0.32,0.472c0.222,0.046,0.44-0.096,0.486-0.318C708.751,388.061,708.604,387.852,708.384,387.809L708.384,387.809z
		 M722.917,392.118c-0.221,0.046-0.365,0.261-0.324,0.483c0.049,0.219,0.266,0.357,0.485,0.31c0.218-0.04,0.362-0.248,0.323-0.466
		c0-0.001,0-0.002-0.001-0.003C723.351,392.222,723.139,392.08,722.917,392.118L722.917,392.118z M688.244,394.827
		c-0.182-0.122-0.428-0.074-0.55,0.108c-0.003,0.005-0.006,0.01-0.01,0.015c-0.124,0.184-0.075,0.433,0.108,0.557
		c0.188,0.126,0.442,0.079,0.571-0.106c0.126-0.187,0.077-0.44-0.109-0.566C688.251,394.832,688.248,394.829,688.244,394.827
		L688.244,394.827z M693.685,386.659c-0.182-0.122-0.428-0.074-0.55,0.108c-0.003,0.005-0.006,0.01-0.01,0.015
		c-0.124,0.184-0.075,0.433,0.108,0.557c0.188,0.126,0.442,0.079,0.571-0.106c0.126-0.187,0.077-0.44-0.11-0.566
		C693.692,386.664,693.689,386.662,693.685,386.659L693.685,386.659z M704.542,390.203c-0.145-0.073-0.321-0.016-0.394,0.129
		c-0.005,0.009-0.009,0.019-0.013,0.029c-0.068,0.155,0.004,0.336,0.159,0.404c0.156,0.068,0.336-0.004,0.404-0.159
		C704.764,390.451,704.695,390.272,704.542,390.203z M720.091,389.543c-0.168-0.004-0.308,0.128-0.313,0.296
		c0,0.001,0,0.002,0,0.003c0.004,0.166,0.134,0.301,0.299,0.313c0.168,0.001,0.307-0.131,0.313-0.299
		c0.01-0.163-0.115-0.302-0.277-0.312C720.105,389.543,720.098,389.543,720.091,389.543L720.091,389.543z"/>
	
		<linearGradient id="sweater_1_" gradientUnits="userSpaceOnUse" x1="716.1363" y1="403.0151" x2="653.7057" y2="291.9466" gradientTransform="matrix(1 0 0 -1 0 722)">
		<stop  offset="0" style="stop-color:#A1C3FC"/>
		<stop  offset="0.6955" style="stop-color:#81AEF2"/>
		<stop  offset="1" style="stop-color:#78A9EF"/>
	</linearGradient>
	<path id="sweater" style="fill:url(#sweater_1_);" d="M692.934,275.608c11.211,7.763,20.679,17.779,27.8,29.409
		c12.087,19.565,8.851,26.737,15.404,38.26s15.65,25.721,3.454,40.902c0,0-59.753,5.178-75.815-3.664l13.075-99.457
		C676.851,281.057,684.433,281.934,692.934,275.608z"/>
	<path id="R_sleeve-2" style="fill:#A1C3FC;" d="M676.851,281.057c0,0-8.331,22.074-19.201,36.527s-15.433,14.955-30.364,10.587
		s-17.789-6.179-17.789-6.179l-21.277,55.264c0,0,11.384,11.566,28.072,8.018s22.22-3.56,30.433-1.279s27.798,2.634,39.204-22.507
		s14.75-47.748,7.886-85.436l0,0"/>
	
		<linearGradient id="neck_1_" gradientUnits="userSpaceOnUse" x1="676.8513" y1="447.7578" x2="693.0911" y2="447.7578" gradientTransform="matrix(1 0 0 -1 0 722)">
		<stop  offset="0" style="stop-color:#FFBEB6"/>
		<stop  offset="1" style="stop-color:#F2A19C"/>
	</linearGradient>
	<path id="neck" style="fill:url(#neck_1_);" d="M677.099,268.165c0.891,4.261,0.807,8.669-0.248,12.893
		c0,0,7.314,3.843,16.24-4.587c0,0-1.859-4.835-3.223-9.917l0,0L677.099,268.165"/>
	<path id="face" style="fill:#FFBEB6;" d="M666.2,238.23c0,0-1.341,5.066-4.172,8.046s-5.066,4.768,1.043,8.046
		c0,0,3.576,20.114,25.776,12.963c0,0,16.985-7.152,14.452-14.154s-13.559-16.836-13.559-16.836l-13.559-3.874L666.2,238.23z"/>
	<path id="lips" style="fill:#1C2868;" d="M663.312,258.914c0.828,1.859,3.005,2.694,4.864,1.867c0.673-0.3,1.241-0.794,1.63-1.42
		c0.3-0.474-0.385-1.03-0.689-0.55c-0.768,1.346-2.481,1.814-3.826,1.047c-0.507-0.289-0.912-0.73-1.157-1.26
		C663.89,258.09,663.066,258.402,663.312,258.914L663.312,258.914z"/>
	<path id="hair" style="fill:#23286B;" d="M658.068,214.729c-2.106,14.35,3.668,21.004,10.261,24.052
		c-9.086-3.006-14.43-12.392-12.379-21.74c0.096-0.471-0.627-0.673-0.723-0.199c-2.326,10.465,4.272,20.834,14.737,23.16
		c1.074,0.239,2.167,0.386,3.266,0.439c3.425,0.771,6.948,1.007,10.445,0.699c0,0,1.493,6.606,4.657,9.22s6.191-1.238,7.979,2.889
		s-2.063,6.328-6.19,7.016s-3.577,6.053-3.577,6.053c3.164,1.376,13.482-0.413,21.048-7.566s9.355-17.333,9.355-17.333
		L658.068,214.729z"/>
</g>
<g id="woman">
	
		<linearGradient id="L_sleeve_1_" gradientUnits="userSpaceOnUse" x1="385.07" y1="394.439" x2="480.37" y2="394.439" gradientTransform="matrix(1 0 0 -1 0 722)">
		<stop  offset="0" style="stop-color:#23286B"/>
		<stop  offset="0.3535" style="stop-color:#1E2361"/>
		<stop  offset="1" style="stop-color:#151A4F"/>
	</linearGradient>
	<path id="L_sleeve" style="fill:url(#L_sleeve_1_);" d="M480.37,348.367c0,0-2.39,6.26-13.62,6.07
		c-11.22-0.18-14.53,2.21-24.28,6.81c-4.412,2.082-9.204,3.236-14.08,3.39c-7.97,0.18-16.28-2.85-21.07-12.77
		c-7.37-15.27-20.51-44.93-22.25-48.87c4.039-4.559,8.477-8.749,13.26-12.52l0,0c4.66,4.24,8.39,4.91,10.83,4.63
		c1.175,1.351,2.214,2.814,3.1,4.37c0.16,0.3,0.33,0.61,0.49,0.92c0,0,10.58,31.23,28.8,29.02
		c11.083-1.382,21.812-4.814,31.64-10.12L480.37,348.367z"/>
	
		<linearGradient id="R_hand_1_" gradientUnits="userSpaceOnUse" x1="503.334" y1="406.6302" x2="471.461" y2="373.6948" gradientTransform="matrix(1 0 0 -1 0 722)">
		<stop  offset="0" style="stop-color:#FFBEB6"/>
		<stop  offset="1" style="stop-color:#F2A19C"/>
	</linearGradient>
	<path id="R_hand" style="fill:url(#R_hand_1_);" d="M476.616,331.389c0,0,15.466-4.035,19.085-14.262s3.147-8.653,3.304-13.373
		s2.36-5.035,4.248-1.101s-1.888,8.653,0.157,8.811s4.102-2.588,8.981-7.486c5.604-5.627,6.438-6.831,8.169-4.628
		s5.035,12.901-3.147,19.981s-8.926,3.421-15.848,9.243s-10.849,19.777-17.062,24.28s-3.671-3.098-3.671-3.098L476.616,331.389"/>
	
		<linearGradient id="neck-2_1_" gradientUnits="userSpaceOnUse" x1="402.3485" y1="410.5081" x2="407.2607" y2="442.0863" gradientTransform="matrix(1 0 0 -1 0 722)">
		<stop  offset="0" style="stop-color:#FFBEB6"/>
		<stop  offset="1" style="stop-color:#F2A19C"/>
	</linearGradient>
	<path id="neck-2" style="fill:url(#neck-2_1_);" d="M412.74,281.826c-0.709,4.004-0.835,8.089-0.375,12.129
		c0,0-5.434,4.348-14.037-3.478l4.348-14.664L412.74,281.826"/>
	<path id="face-2" style="fill:#FFBEB6;" d="M424.845,252.998c0.043,0.097,0.072,0.171,0.093,0.213
		c0.013,0.012,0.014,0.024,0.021,0.042c0.172,0.39,0.333,0.792,0.488,1.214c1.671,4.535,5.902,7.364,6.195,8.651
		s-2.022,2.731-3.198,3.123s-1.25,6.713-5.344,11.304c-3.841,4.309-10.82,5.489-15.947,4.023
		c-4.095-9.589-5.431-16.713,3.209-23.438c9.428-7.344,9.084-12.095,9.084-12.095C421.744,247.923,423.589,250.302,424.845,252.998z
		"/>
	
		<linearGradient id="hair-2_1_" gradientUnits="userSpaceOnUse" x1="371.5512" y1="485.5461" x2="392.0412" y2="485.5461" gradientTransform="matrix(1 0 0 -1 0 722)">
		<stop  offset="0" style="stop-color:#23286B"/>
		<stop  offset="0.3535" style="stop-color:#1E2361"/>
		<stop  offset="1" style="stop-color:#151A4F"/>
	</linearGradient>
	<circle id="hair-2" style="fill:url(#hair-2_1_);" cx="381.796" cy="236.454" r="10.245"/>
	<path id="eye" style="fill:#1C2868;" d="M422.096,257.445c1.638,1.207,3.944,0.857,5.151-0.781c0.437-0.593,0.686-1.304,0.715-2.04
		c0.026-0.56-0.844-0.705-0.871-0.138c-0.002,1.549-1.26,2.803-2.809,2.801c-0.584-0.001-1.154-0.184-1.629-0.524
		C422.191,256.443,421.629,257.122,422.096,257.445L422.096,257.445z"/>
	
		<linearGradient id="L_shoe-2_1_" gradientUnits="userSpaceOnUse" x1="319.3545" y1="108.1095" x2="396.5946" y2="108.1095" gradientTransform="matrix(-1 0 0 -1 792.9644 722)">
		<stop  offset="0" style="stop-color:#28306D"/>
		<stop  offset="0.51" style="stop-color:#1F275F"/>
		<stop  offset="1" style="stop-color:#171F51"/>
	</linearGradient>
	<path id="L_shoe-2" style="fill:url(#L_shoe-2_1_);" d="M407.311,598.629h23.61c0,0,12.323,11.567,25.526,17.225
		s17.163,13.297,17.163,13.297l-77.24-0.002L407.311,598.629"/>
	<path id="R_shoe-2" style="fill:#28306D;" d="M357.324,598.629l25.106,0.001c0,0,10.827,11.566,24.03,17.224
		s17.163,13.297,17.163,13.297l-77.24-0.002L357.324,598.629"/>
	
		<linearGradient id="L_trousers-2_1_" gradientUnits="userSpaceOnUse" x1="475.8625" y1="139.4205" x2="413.0377" y2="228.9793" gradientTransform="matrix(1 0 0 -1 0 722)">
		<stop  offset="0" style="stop-color:#A1C3FC"/>
		<stop  offset="0.6955" style="stop-color:#81AEF2"/>
		<stop  offset="1" style="stop-color:#78A9EF"/>
	</linearGradient>
	<path id="L_trousers-2" style="fill:url(#L_trousers-2_1_);" d="M430.93,598.63l-23.62-0.02c-17.45-17.12-14.09-45.72-15.38-72.86
		c-1.29-27.13,0.63-16.37-2.81-42.01c-4.32-32.35-2.91-26.79-11.3-63.63c-2.172-8.881-3.236-17.997-3.17-27.14
		c0.09-0.85,0.17-1.62,0.25-2.32c2.28,0.16,4.68,0.26,7.18,0.27c12.217,0.078,24.365-1.831,35.97-5.65
		c1.45,13.05,4.12,37.35,4.19,37.8c0.91,6.13,1.42,9.79,3.28,20.39c0.15,0.85,0.27,1.7,0.36,2.56c1.54,14.95,3.6,38.71,3.93,59.01
		C430.21,528.42,430.93,598.63,430.93,598.63z"/>
	
		<linearGradient id="SVGID_1_" gradientUnits="userSpaceOnUse" x1="385.2606" y1="259.3499" x2="367.2297" y2="411.861" gradientTransform="matrix(1 0 0 -1 0 722)">
		<stop  offset="0" style="stop-color:#A1C3FC"/>
		<stop  offset="0.6955" style="stop-color:#81AEF2"/>
		<stop  offset="1" style="stop-color:#78A9EF"/>
	</linearGradient>
	<path style="fill:url(#SVGID_1_);" d="M426.88,487.58c-1.93,18.77-44.45,111.05-44.45,111.05h-25.1c0,0,0.87-30.21,3.93-46.09
		c3.08-15.88,8.82-12.62,7.67-24.9c-1.14-12.27,1.54-20.22,6.53-33.19c4.98-13,16.5-19.13,1.15-62.07
		c-5.02-14.04-8.32-31.82-7.4-42.26c4.271,0.517,8.568,0.784,12.87,0.8c12.922,0.085,25.763-2.052,37.96-6.32l3.71,36.91
		c0.24,2.3,0.5,4.31,0.82,6.53C427.26,446.46,428.79,468.82,426.88,487.58z"/>
	<path id="texture-2" style="opacity:0.86;fill:#FFFFFF;enable-background:new    ;" d="M372.673,400.423
		c-0.038-0.088-0.14-0.129-0.228-0.092s-0.129,0.14-0.092,0.228s0.14,0.129,0.228,0.092c0,0,0,0,0,0
		C372.67,400.614,372.711,400.512,372.673,400.423C372.673,400.423,372.673,400.423,372.673,400.423z M371.036,396.499
		c-0.03-0.085-0.124-0.13-0.21-0.1c-0.006,0.002-0.012,0.005-0.018,0.008c-0.091,0.035-0.137,0.135-0.104,0.226
		c0.044,0.089,0.148,0.129,0.24,0.093C371.033,396.69,371.074,396.588,371.036,396.499C371.037,396.5,371.037,396.5,371.036,396.499
		z M369.4,392.576c-0.041-0.091-0.144-0.136-0.238-0.105c-0.089,0.044-0.129,0.148-0.093,0.24c0.038,0.088,0.14,0.13,0.228,0.092
		c0,0,0,0,0,0C369.387,392.768,369.433,392.667,369.4,392.576L369.4,392.576z M378.698,393.525
		c-0.067-0.066-0.175-0.065-0.241,0.003c-0.066,0.067-0.065,0.175,0.003,0.241c0.067,0.066,0.175,0.065,0.241-0.003c0,0,0,0,0,0
		c0.066-0.061,0.07-0.163,0.01-0.229C378.706,393.533,378.702,393.529,378.698,393.525z M395.73,401.242
		c-0.135-0.123-0.343-0.113-0.466,0.022c-0.003,0.003-0.005,0.006-0.008,0.009c-0.119,0.135-0.105,0.342,0.03,0.46
		c0.001,0.001,0.001,0.001,0.002,0.002c0.135,0.123,0.343,0.113,0.466-0.022c0.003-0.003,0.005-0.006,0.008-0.009
		c0.119-0.135,0.105-0.341-0.03-0.46C395.732,401.243,395.731,401.242,395.73,401.242L395.73,401.242z M389.635,395.942
		c-0.135-0.119-0.342-0.105-0.46,0.03c-0.001,0.001-0.001,0.001-0.002,0.002c-0.123,0.139-0.11,0.351,0.029,0.474
		c0.139,0.123,0.351,0.11,0.474-0.029c0.001-0.001,0.001-0.001,0.002-0.002C389.793,396.273,389.774,396.064,389.635,395.942
		L389.635,395.942z M371.199,421.607c-0.184,0.013-0.323,0.17-0.314,0.354c0.009,0.177,0.16,0.313,0.337,0.304
		c0.006,0,0.012-0.001,0.018-0.001c0.184-0.013,0.323-0.17,0.314-0.354C371.54,421.728,371.381,421.592,371.199,421.607
		C371.199,421.607,371.199,421.607,371.199,421.607z M370.627,413.556c-0.182,0.015-0.317,0.174-0.302,0.355c0,0,0,0,0,0
		c0.01,0.184,0.168,0.326,0.353,0.315s0.326-0.168,0.315-0.353c0-0.001,0-0.002,0-0.002
		C370.972,413.687,370.812,413.549,370.627,413.556L370.627,413.556z M370.067,405.506c-0.184,0.021-0.322,0.18-0.316,0.366
		c0.009,0.177,0.16,0.313,0.337,0.304c0.006,0,0.012-0.001,0.018-0.001c0.181-0.008,0.322-0.161,0.315-0.342
		c0-0.004,0-0.008-0.001-0.012C370.408,405.636,370.251,405.496,370.067,405.506L370.067,405.506z M387.039,413.575
		c-0.079-0.17-0.281-0.243-0.451-0.164c-0.17,0.079-0.243,0.281-0.164,0.451c0.079,0.17,0.281,0.243,0.451,0.164
		c0.002-0.001,0.004-0.002,0.006-0.003C387.046,413.941,387.116,413.742,387.039,413.575L387.039,413.575z M383.437,406.357
		c-0.079-0.17-0.281-0.243-0.451-0.164s-0.244,0.281-0.164,0.451c0.079,0.17,0.281,0.243,0.451,0.164
		c0.002-0.001,0.004-0.002,0.006-0.003C383.444,406.723,383.514,406.524,383.437,406.357L383.437,406.357z M379.836,399.138
		c-0.091-0.163-0.292-0.228-0.461-0.148c-0.166,0.087-0.229,0.292-0.142,0.458c0.084,0.16,0.279,0.226,0.443,0.15
		C379.841,399.51,379.911,399.31,379.836,399.138L379.836,399.138z M376.221,391.93c-0.076-0.166-0.273-0.239-0.439-0.163
		s-0.239,0.273-0.163,0.439c0.002,0.005,0.005,0.01,0.007,0.015c0.08,0.163,0.277,0.231,0.44,0.151
		c0.003-0.001,0.006-0.003,0.009-0.005c0.158-0.073,0.227-0.26,0.154-0.419C376.228,391.943,376.224,391.936,376.221,391.93
		L376.221,391.93z M393.955,409.896c-0.087-0.138-0.27-0.18-0.409-0.093s-0.18,0.27-0.093,0.409l0,0
		c0.087,0.138,0.27,0.18,0.409,0.093S394.042,410.034,393.955,409.896L393.955,409.896z M390.139,403.792
		c-0.087-0.138-0.27-0.18-0.409-0.093c-0.138,0.087-0.18,0.27-0.093,0.409c0.087,0.138,0.27,0.18,0.409,0.093c0,0,0,0,0,0
		c0.137-0.082,0.182-0.26,0.1-0.398C390.143,403.799,390.141,403.795,390.139,403.792L390.139,403.792z M386.325,397.676
		c-0.023-0.052-0.065-0.092-0.117-0.112l-0.012-0.002c-0.091-0.04-0.196-0.032-0.28,0.021c-0.142,0.089-0.185,0.276-0.096,0.418
		c0.001,0.001,0.001,0.002,0.002,0.003c0.088,0.137,0.27,0.178,0.409,0.093c0.065-0.038,0.109-0.102,0.121-0.176
		C386.385,397.84,386.375,397.748,386.325,397.676L386.325,397.676z M382.509,391.572c-0.088-0.137-0.27-0.179-0.409-0.093
		c-0.141,0.087-0.185,0.273-0.098,0.414c0.087,0.14,0.271,0.185,0.412,0.099c0.142-0.089,0.185-0.276,0.096-0.418
		C382.51,391.574,382.509,391.573,382.509,391.572L382.509,391.572z M368.737,393.712c-0.16-0.029-0.316,0.07-0.357,0.228
		c-0.035,0.162,0.067,0.322,0.229,0.357c0.157,0.034,0.313-0.061,0.354-0.216C368.997,393.918,368.898,393.756,368.737,393.712
		L368.737,393.712z M396.81,392.66c-0.132-0.096-0.318-0.067-0.414,0.066c-0.002,0.003-0.004,0.006-0.006,0.009
		c-0.096,0.123-0.073,0.3,0.049,0.396c0.005,0.004,0.01,0.007,0.015,0.011c0.128,0.099,0.311,0.076,0.41-0.052
		c0.003-0.004,0.005-0.007,0.008-0.011C396.967,392.945,396.939,392.76,396.81,392.66L396.81,392.66z M379.199,411.575
		c-0.16,0.036-0.266,0.189-0.241,0.352c0.028,0.16,0.18,0.267,0.34,0.24c0.162-0.026,0.274-0.176,0.252-0.339
		C379.521,411.662,379.365,411.55,379.199,411.575L379.199,411.575z M378.014,404.474c-0.16,0.036-0.266,0.189-0.241,0.352
		c0.028,0.16,0.18,0.267,0.34,0.24c0.156-0.022,0.265-0.166,0.243-0.323c-0.001-0.006-0.002-0.012-0.003-0.018
		C378.327,404.564,378.176,404.452,378.014,404.474L378.014,404.474z M376.827,397.385c-0.156,0.022-0.265,0.166-0.243,0.323
		c0.001,0.006,0.002,0.012,0.003,0.018c0.028,0.16,0.181,0.267,0.341,0.239c0.159-0.028,0.266-0.18,0.239-0.339
		c-0.022-0.156-0.166-0.265-0.322-0.243C376.839,397.383,376.833,397.384,376.827,397.385L376.827,397.385z M393.403,392.213
		c-0.066-0.072-0.179-0.077-0.251-0.011s-0.077,0.179-0.011,0.251c0.066,0.072,0.179,0.077,0.251,0.011l0,0
		C393.462,392.396,393.467,392.286,393.403,392.213L393.403,392.213z M376.538,398.429c-0.096-0.003-0.176,0.072-0.18,0.168
		s0.072,0.176,0.168,0.18c0.096,0.003,0.176-0.072,0.18-0.168l0,0C376.709,398.513,376.634,398.432,376.538,398.429
		C376.538,398.429,376.538,398.429,376.538,398.429L376.538,398.429z M376.68,394.186c-0.092-0.007-0.172,0.062-0.179,0.155
		c0,0.004,0,0.009,0,0.013c-0.003,0.096,0.072,0.176,0.168,0.18c0,0,0,0,0,0c0.098,0.005,0.183-0.068,0.192-0.166
		c0.002-0.099-0.077-0.18-0.175-0.181C376.683,394.185,376.681,394.185,376.68,394.186L376.68,394.186z M385.052,394.863
		c-0.028-0.088-0.122-0.137-0.211-0.109c-0.005,0.002-0.011,0.004-0.016,0.006c-0.09,0.03-0.137,0.128-0.107,0.217
		c0.001,0.003,0.002,0.006,0.003,0.009c0.039,0.086,0.136,0.131,0.227,0.104C385.039,395.054,385.085,394.954,385.052,394.863
		L385.052,394.863z M368.711,394.335c-0.079-0.042-0.178-0.012-0.22,0.068c-0.004,0.007-0.007,0.014-0.009,0.021
		c-0.039,0.088,0.001,0.19,0.089,0.229c0.088,0.039,0.19-0.001,0.229-0.089C368.838,394.476,368.799,394.374,368.711,394.335z
		 M370.474,390.473c-0.079-0.042-0.178-0.012-0.22,0.068c-0.004,0.007-0.007,0.014-0.009,0.021
		c-0.042,0.084-0.008,0.185,0.076,0.227c0,0,0.001,0,0.001,0.001c0.091,0.041,0.198,0.003,0.241-0.087
		c0.04-0.086,0.002-0.187-0.083-0.227C370.478,390.474,370.476,390.473,370.474,390.473L370.474,390.473z M396.485,396.397
		c-0.055-0.091-0.173-0.119-0.263-0.065c-0.002,0.001-0.003,0.002-0.005,0.003c-0.093,0.054-0.125,0.174-0.071,0.267
		c0.003,0.004,0.005,0.009,0.008,0.013c0.055,0.091,0.173,0.119,0.263,0.065c0.002-0.001,0.003-0.002,0.005-0.003
		C396.516,396.616,396.544,396.492,396.485,396.397L396.485,396.397z M393.871,392.314c-0.055-0.091-0.173-0.119-0.263-0.064
		c-0.002,0.001-0.003,0.002-0.005,0.003c-0.095,0.059-0.124,0.185-0.065,0.28c0.059,0.095,0.185,0.124,0.28,0.065
		c0.001-0.001,0.002-0.001,0.003-0.002c0.091-0.058,0.118-0.178,0.06-0.269C393.877,392.322,393.874,392.318,393.871,392.314
		L393.871,392.314z M376.276,399.886c-0.108-0.014-0.21,0.054-0.239,0.16c-0.024,0.106,0.042,0.212,0.148,0.237
		c0.099,0.03,0.202-0.026,0.232-0.125c0.002-0.007,0.004-0.015,0.005-0.023c0.029-0.109-0.036-0.22-0.145-0.249
		C376.277,399.886,376.276,399.886,376.276,399.886z M377.317,395.153c-0.108-0.014-0.21,0.054-0.239,0.16
		c-0.024,0.106,0.042,0.212,0.148,0.237c0.109,0.029,0.22-0.036,0.249-0.145c0,0,0-0.001,0-0.001
		C377.494,395.292,377.425,395.184,377.317,395.153L377.317,395.153z M386.438,397.728c-0.016-0.107-0.116-0.181-0.223-0.165
		c-0.002,0-0.005,0.001-0.007,0.001l-0.012-0.002c-0.103,0.026-0.17,0.127-0.153,0.232c0.016,0.107,0.116,0.181,0.223,0.165
		c0.002,0,0.005-0.001,0.007-0.001c0.028-0.008,0.054-0.021,0.077-0.037C386.418,397.881,386.453,397.804,386.438,397.728
		L386.438,397.728z M385.352,392.784c-0.109,0.027-0.18,0.131-0.166,0.242c0.029,0.107,0.135,0.174,0.244,0.154
		c0.105-0.021,0.174-0.124,0.153-0.229c0-0.001,0-0.002-0.001-0.003C385.563,392.84,385.461,392.767,385.352,392.784
		L385.352,392.784z M393.614,417.664c-0.189,0.029-0.32,0.203-0.295,0.393c0.031,0.187,0.207,0.313,0.394,0.283
		c0.187-0.031,0.317-0.204,0.295-0.393C393.977,417.761,393.801,417.634,393.614,417.664L393.614,417.664z M392.318,409.452
		c-0.187,0.031-0.314,0.207-0.283,0.394s0.207,0.314,0.394,0.283c0.187-0.031,0.314-0.207,0.283-0.394
		C392.681,409.549,392.505,409.422,392.318,409.452L392.318,409.452z M391.034,401.242c-0.187,0.023-0.32,0.194-0.297,0.381
		c0.023,0.187,0.194,0.32,0.381,0.297c0.005-0.001,0.01-0.001,0.015-0.002c0.189-0.029,0.32-0.203,0.295-0.393
		C391.397,401.339,391.22,401.212,391.034,401.242z M389.737,393.03c-0.185,0.028-0.313,0.202-0.285,0.387
		c0,0.002,0.001,0.005,0.001,0.007c0.031,0.187,0.207,0.314,0.394,0.283s0.314-0.207,0.283-0.394
		c-0.028-0.185-0.202-0.313-0.387-0.284C389.742,393.029,389.74,393.03,389.737,393.03L389.737,393.03z M400.338,394.052
		c-0.1-0.164-0.314-0.215-0.478-0.114c-0.164,0.1-0.215,0.314-0.114,0.478c0.1,0.164,0.314,0.215,0.478,0.114
		C400.384,394.427,400.435,394.216,400.338,394.052L400.338,394.052z M377.409,413.278c-0.181-0.043-0.364,0.068-0.407,0.25
		c-0.001,0.002-0.001,0.004-0.002,0.007c-0.046,0.182,0.062,0.368,0.243,0.419c0.185,0.036,0.367-0.074,0.421-0.255
		C377.71,413.512,377.596,413.324,377.409,413.278C377.41,413.278,377.409,413.278,377.409,413.278L377.409,413.278z
		 M379.358,405.202c-0.176-0.047-0.357,0.058-0.404,0.235c-0.002,0.007-0.004,0.014-0.005,0.022
		c-0.045,0.18,0.064,0.362,0.244,0.407c0,0,0,0,0,0c0.186,0.046,0.375-0.068,0.42-0.254c0,0,0-0.001,0-0.001
		c0.047-0.176-0.058-0.357-0.235-0.404C379.373,405.205,379.365,405.203,379.358,405.202L379.358,405.202z M381.308,397.114
		c-0.188-0.039-0.372,0.081-0.411,0.269c-0.038,0.183,0.075,0.364,0.257,0.409c0.181,0.044,0.364-0.068,0.407-0.25
		c0.001-0.002,0.001-0.005,0.002-0.007C381.609,397.348,381.495,397.16,381.308,397.114
		C381.309,397.114,381.308,397.114,381.308,397.114z M382.433,415.96c-0.187-0.039-0.371,0.081-0.41,0.268
		c-0.039,0.187,0.081,0.371,0.268,0.41c0.187,0.039,0.37-0.081,0.41-0.268C382.741,416.183,382.621,416,382.433,415.96
		C382.433,415.96,382.433,415.96,382.433,415.96L382.433,415.96z M384.039,407.837c-0.19-0.029-0.37,0.093-0.412,0.28
		c-0.029,0.183,0.089,0.358,0.27,0.399c0.187,0.039,0.371-0.081,0.41-0.268C384.342,408.061,384.224,407.88,384.039,407.837
		L384.039,407.837z M385.632,399.724c-0.185-0.036-0.363,0.085-0.399,0.27c-0.035,0.185,0.085,0.363,0.27,0.399
		c0.187,0.039,0.371-0.081,0.41-0.268C385.942,399.937,385.817,399.76,385.632,399.724L385.632,399.724z M387.238,391.6
		c-0.182-0.037-0.36,0.08-0.397,0.262c-0.001,0.003-0.001,0.005-0.002,0.008c-0.034,0.184,0.086,0.362,0.27,0.399
		c0.178,0.04,0.354-0.071,0.395-0.249c0.002-0.007,0.003-0.014,0.004-0.021c0.037-0.182-0.08-0.36-0.262-0.397
		C387.243,391.601,387.24,391.601,387.238,391.6L387.238,391.6z M397.894,403.36c-0.187,0.039-0.308,0.22-0.273,0.408
		c0.042,0.185,0.224,0.301,0.409,0.261c0.184-0.033,0.306-0.209,0.272-0.393c0-0.001,0-0.002-0.001-0.003
		C398.26,403.448,398.081,403.328,397.894,403.36L397.894,403.36z M396.272,395.235c-0.185,0.041-0.305,0.221-0.273,0.408
		c0.035,0.185,0.214,0.307,0.399,0.271c0.185-0.035,0.307-0.214,0.271-0.399c-0.001-0.003-0.001-0.005-0.002-0.008
		c-0.033-0.184-0.209-0.305-0.393-0.272C396.274,395.235,396.273,395.235,396.272,395.235L396.272,395.235z M373.229,398.754
		c-0.153-0.103-0.361-0.062-0.464,0.091c-0.003,0.004-0.005,0.008-0.008,0.013c-0.104,0.155-0.063,0.366,0.091,0.47
		c0.158,0.107,0.373,0.067,0.482-0.09c0.106-0.157,0.065-0.371-0.092-0.478C373.236,398.758,373.233,398.756,373.229,398.754
		L373.229,398.754z M377.82,391.862c-0.159-0.1-0.369-0.054-0.472,0.103c-0.104,0.155-0.063,0.365,0.091,0.47
		c0.158,0.107,0.373,0.067,0.482-0.09c0.106-0.157,0.065-0.371-0.092-0.478C377.826,391.866,377.823,391.864,377.82,391.862
		L377.82,391.862z M382.39,401.744c-0.122-0.062-0.271-0.013-0.333,0.109c-0.004,0.008-0.008,0.016-0.011,0.024
		c-0.057,0.131,0.003,0.284,0.134,0.341s0.284-0.003,0.341-0.134C382.578,401.953,382.519,401.802,382.39,401.744z M384.846,396.002
		c-0.128-0.059-0.28-0.004-0.34,0.125c-0.001,0.003-0.003,0.006-0.004,0.008c-0.058,0.132,0.001,0.285,0.133,0.344
		c0.132,0.058,0.285-0.001,0.344-0.133C385.037,396.214,384.978,396.06,384.846,396.002
		C384.846,396.002,384.846,396.002,384.846,396.002z M395.509,401.187c-0.142-0.004-0.26,0.108-0.264,0.25c0,0.001,0,0.002,0,0.002
		c0.004,0.14,0.113,0.254,0.253,0.264c0.142,0.001,0.259-0.111,0.264-0.253c0.008-0.137-0.097-0.255-0.234-0.263
		C395.521,401.187,395.515,401.187,395.509,401.187z M395.578,394.946c-0.137-0.002-0.25,0.108-0.252,0.245c0,0.003,0,0.006,0,0.009
		c-0.004,0.142,0.108,0.26,0.25,0.264c0.001,0,0.002,0,0.002,0c0.144-0.005,0.26-0.12,0.265-0.264
		c-0.002-0.142-0.119-0.256-0.262-0.254C395.581,394.946,395.579,394.946,395.578,394.946L395.578,394.946z M373.652,392.044
		c-0.092-0.103-0.249-0.112-0.352-0.02c-0.002,0.002-0.005,0.004-0.007,0.007c-0.104,0.094-0.112,0.255-0.018,0.358
		c0.005,0.005,0.009,0.01,0.014,0.014c0.099,0.1,0.261,0.101,0.361,0.002S373.751,392.145,373.652,392.044L373.652,392.044z
		 M393.264,392.868c-0.1-0.067-0.236-0.039-0.302,0.061c-0.003,0.005-0.007,0.011-0.01,0.016c-0.069,0.095-0.049,0.228,0.046,0.298
		c0.006,0.005,0.013,0.009,0.019,0.013c0.107,0.071,0.251,0.043,0.322-0.064c0,0,0,0,0,0c0.07-0.104,0.042-0.245-0.062-0.315
		C393.273,392.873,393.269,392.871,393.264,392.868L393.264,392.868z"/>
	
		<linearGradient id="sweater-2_1_" gradientUnits="userSpaceOnUse" x1="361.8162" y1="401.1242" x2="485.0486" y2="275.9042" gradientTransform="matrix(1 0 0 -1 0 722)">
		<stop  offset="0" style="stop-color:#23286B"/>
		<stop  offset="0.3535" style="stop-color:#1E2361"/>
		<stop  offset="1" style="stop-color:#151A4F"/>
	</linearGradient>
	<path id="sweater-2" style="fill:url(#sweater-2_1_);" d="M433.61,378.857c-15.981,8.039-33.641,12.172-51.53,12.06
		c-19.73-0.1-32.89-5.27-32.89-5.27s-3.77-12.69,4.92-27.75c14.53-25.16,5.17-11.45,16.07-33.23c4.06-7.804,9.06-15.082,14.89-21.67
		c4.039-4.559,8.477-8.749,13.26-12.52l0,0c7.22,6.58,12.22,4.56,13.63,3.75c0.06,1.75,0.16,3.5,0.3,5.25
		c1.84,23.66,10.4,47.6,15.31,62.68c0.28,0.85,0.55,1.68,0.82,2.48C431.36,373.457,433.61,378.857,433.61,378.857z"/>
	
		<linearGradient id="R_sleeve-3_1_" gradientUnits="userSpaceOnUse" x1="430.5936" y1="376.11" x2="558.4638" y2="308.531" gradientTransform="matrix(1 0 0 -1 0 722)">
		<stop  offset="0" style="stop-color:#23286B"/>
		<stop  offset="0.3535" style="stop-color:#1E2361"/>
		<stop  offset="1" style="stop-color:#151A4F"/>
	</linearGradient>
	<path id="R_sleeve-3" style="fill:url(#R_sleeve-3_1_);" d="M496.64,370.867c0,0-15.78,16.81-31.19,13.37
		c-14.06-3.14-15.32,0.61-21.96,2.13c-0.63,0.15-1.28,0.31-1.96,0.49c-7.62,2.03-25.76,2.17-36.07-21.22
		c-10.02-22.66-13-42.19-7.04-75.08c8.55,7.72,13.95,3.4,13.95,3.4c-0.04-0.36-0.07-0.72-0.1-1.07c1.9,3.58,10.96,20.4,19.78,32.38
		c9.92,13.48,13.01,14.96,26.92,11.22c2.3-0.61,4.43-1.21,6.39-1.75c7.56-2.15,12.33-3.71,12.33-3.71L496.64,370.867z"/>
	<path id="hair-3" style="fill:#23286B;" d="M424.96,253.258c-1.861-16.08-17.207-16.757-28.915-14.326
		c-6.124,1.272-10.137,4.104-12.628,7.4c-4.689,1.73-9.924-0.403-12.069-4.917c-0.218-0.431-0.866-0.051-0.648,0.379
		c2.158,4.49,7.203,6.811,12.017,5.528c-1.626,2.501-2.564,5.387-2.718,8.366c-0.154,3.284-0.747,9.677-4.427,15.049
		s-3.742,14.863-3.742,14.863c17.855,6.6,40.885-2.594,40.885-2.594c0.288-10.669-5.475-14.043-2.698-19.755
		c-0.416,1.451-0.475,2.982-0.173,4.461c1.102,5.279,6.644,9.408,4.204,15.217c-0.187,0.444,0.539,0.638,0.723,0.199
		c1.162-2.767,0.74-5.198-0.512-7.888c-0.916-1.967-2.222-3.717-3.004-5.75c-1.225-3.11-0.857-6.622,0.987-9.409
		c7.856-8.868,7.2-14.045,7.2-14.045C421.81,247.988,423.698,250.459,424.96,253.258z"/>
</g>
</svg>
