<?xml version="1.0" encoding="iso-8859-1"?>
<!-- Generator: Adobe Illustrator 23.0.2, SVG Export Plug-In . SVG Version: 6.00 Build 0)  -->
<svg version="1.1" id="illustration" xmlns="http://www.w3.org/2000/svg" xmlns:xlink="http://www.w3.org/1999/xlink" x="0px"
	 y="0px" viewBox="0 0 1080 720" style="enable-background:new 0 0 1080 720;" xml:space="preserve">
<title>no comments</title>
<g id="screen_chair">
	
		<linearGradient id="chair_1_" gradientUnits="userSpaceOnUse" x1="281.3681" y1="150.2966" x2="467.6987" y2="150.2966" gradientTransform="matrix(1 0 0 -1 0 722)">
		<stop  offset="0" style="stop-color:#A1C3FC"/>
		<stop  offset="0.6955" style="stop-color:#81AEF2"/>
		<stop  offset="1" style="stop-color:#78A9EF"/>
	</linearGradient>
	<path id="chair" style="fill:url(#chair_1_);" d="M281.368,477.011h110.521c41.869,0,75.81,33.941,75.81,75.81l0,0v113.575l0,0
		H357.178c-41.869,0-75.81-33.941-75.81-75.81V477.011L281.368,477.011z"/>
	
		<linearGradient id="screen_1_" gradientUnits="userSpaceOnUse" x1="612.1529" y1="410.6772" x2="616.7862" y2="55.4594" gradientTransform="matrix(1 0 0 -1 0 722)">
		<stop  offset="0.0898" style="stop-color:#EEEEEE"/>
		<stop  offset="0.8178" style="stop-color:#D6D7D8"/>
	</linearGradient>
	<path id="screen" style="fill:url(#screen_1_);" d="M503.954,93.829h215.253c9.225,0,16.703,7.478,16.703,16.703v313.841
		c0,9.225-7.478,16.703-16.703,16.703H503.954c-9.225,0-16.703-7.478-16.703-16.703V110.532
		C487.251,101.307,494.729,93.829,503.954,93.829z"/>
	<path id="comment" style="fill:#FFFFFF;" d="M665.981,217.196H559.957c-8.159,0-14.772,6.614-14.772,14.772v22.472
		c0,0-0.522,68.623,0,68.025c0.478-0.547,21.828-26.249,26.534-30.654l82.406-0.191h11.856c8.159,0,14.772-6.614,14.772-14.772
		c0,0,0,0,0,0v-44.88C680.754,223.809,674.14,217.196,665.981,217.196z"/>
	
		<linearGradient id="_no_icon_1_" gradientUnits="userSpaceOnUse" x1="611.8082" y1="463.1215" x2="617.7666" y2="375.234" gradientTransform="matrix(1 0 0 -1 0 722)">
		<stop  offset="0" style="stop-color:#A1C3FC"/>
		<stop  offset="0.6955" style="stop-color:#81AEF2"/>
		<stop  offset="1" style="stop-color:#78A9EF"/>
	</linearGradient>
	<polygon id="_no_icon" style="fill:url(#_no_icon_1_);" points="627.301,266.55 616.271,255.52 627.3,244.491 622.61,239.801 
		611.581,250.83 600.551,239.801 595.861,244.491 606.89,255.52 595.861,266.55 600.551,271.24 611.581,260.211 622.61,271.24 	"/>
	<path id="texture" style="fill:#FFFFFF;" d="M522.117,107.979c0.133,0.057,0.286-0.005,0.343-0.138
		c0.057-0.133-0.005-0.286-0.138-0.343c-0.133-0.057-0.286,0.005-0.343,0.138c0,0,0,0,0,0
		C521.922,107.769,521.984,107.922,522.117,107.979C522.116,107.979,522.116,107.979,522.117,107.979z M524.575,102.085
		c0.138,0.053,0.295-0.007,0.361-0.14c0.05-0.137-0.02-0.288-0.156-0.34c-0.122-0.061-0.27-0.012-0.331,0.11
		c-0.004,0.009-0.008,0.018-0.012,0.028C524.381,101.875,524.442,102.028,524.575,102.085
		C524.575,102.085,524.575,102.085,524.575,102.085L524.575,102.085z M527.052,96.188c0.133,0.057,0.286-0.005,0.343-0.138
		c0,0,0,0,0,0c0.054-0.138-0.007-0.295-0.14-0.36c-0.142-0.046-0.297,0.022-0.358,0.158
		C526.847,95.985,526.916,96.136,527.052,96.188L527.052,96.188z M548.882,107.911c0.054,0.137,0.209,0.205,0.346,0.151c0,0,0,0,0,0
		c0.127-0.046,0.193-0.186,0.147-0.313c-0.004-0.011-0.008-0.021-0.014-0.031c-0.049-0.133-0.196-0.201-0.329-0.153
		C548.896,107.619,548.828,107.774,548.882,107.911C548.882,107.911,548.882,107.911,548.882,107.911L548.882,107.911z
		 M512.924,97.637c0.099,0.101,0.261,0.103,0.362,0.004c0.101-0.099,0.103-0.261,0.004-0.362c-0.099-0.101-0.261-0.103-0.362-0.004
		c-0.101,0.089-0.111,0.243-0.022,0.344C512.912,97.625,512.918,97.631,512.924,97.637z M535.325,107.074
		c0.01,0.146,0.127,0.262,0.273,0.27c0.15-0.002,0.27-0.125,0.268-0.275c-0.002-0.148-0.122-0.267-0.27-0.268
		C535.449,106.811,535.333,106.928,535.325,107.074z M535.345,100.685c0.005,0.144,0.126,0.257,0.27,0.252c0,0,0,0,0,0
		c0.139,0.011,0.261-0.093,0.272-0.233c0.001-0.007,0.001-0.015,0.001-0.022c-0.004-0.148-0.124-0.267-0.272-0.27
		C535.469,100.422,535.353,100.539,535.345,100.685L535.345,100.685z M496.433,101.62c0.182,0.211,0.501,0.233,0.712,0.051
		c0.211-0.182,0.233-0.501,0.051-0.712c-0.001-0.002-0.003-0.003-0.004-0.005c-0.177-0.205-0.486-0.228-0.691-0.051
		c-0.001,0.001-0.002,0.002-0.003,0.003C496.288,101.088,496.26,101.403,496.433,101.62L496.433,101.62z M523.66,139.914
		c-0.014,0.276,0.196,0.513,0.472,0.532c0.265,0.029,0.503-0.162,0.532-0.427c0.001-0.009,0.002-0.018,0.002-0.027
		c0.014-0.276-0.196-0.513-0.472-0.532C523.921,139.438,523.682,139.641,523.66,139.914
		C523.66,139.914,523.66,139.914,523.66,139.914z M524.503,127.839c-0.015,0.277,0.198,0.514,0.475,0.529
		c0.275,0.015,0.51-0.194,0.528-0.468c0.022-0.273-0.181-0.512-0.453-0.534c0,0,0,0-0.001,0
		C524.774,127.356,524.535,127.562,524.503,127.839L524.503,127.839z M525.362,115.744c-0.021,0.272,0.182,0.509,0.454,0.531
		c0.006,0,0.012,0.001,0.018,0.001c0.265,0.029,0.503-0.162,0.532-0.427c0.001-0.009,0.002-0.018,0.002-0.027
		c0.009-0.279-0.197-0.518-0.474-0.55C525.618,115.258,525.381,115.468,525.362,115.744L525.362,115.744z M526.206,103.668
		c-0.015,0.277,0.198,0.514,0.475,0.528c0.274,0.015,0.51-0.194,0.528-0.468c0.022-0.273-0.18-0.512-0.453-0.534
		c0,0-0.001,0-0.001,0c-0.277-0.026-0.522,0.177-0.548,0.454C526.207,103.655,526.206,103.662,526.206,103.668L526.206,103.668z
		 M500.636,128.067c0.25,0.115,0.545,0.005,0.659-0.244c0.115-0.25,0.005-0.545-0.244-0.659c-0.244-0.112-0.534-0.01-0.653,0.231
		C500.282,127.645,500.388,127.944,500.636,128.067z M506.046,117.223c0.249,0.115,0.545,0.005,0.659-0.244s0.005-0.545-0.244-0.659
		c-0.244-0.112-0.534-0.01-0.653,0.231C505.692,116.802,505.798,117.1,506.046,117.223z M511.459,106.397
		c0.255,0.119,0.558,0.008,0.677-0.247c0.115-0.246,0.016-0.54-0.225-0.666c-0.249-0.131-0.557-0.035-0.688,0.214
		c-0.131,0.249-0.035,0.557,0.214,0.688C511.444,106.39,511.451,106.393,511.459,106.397z M516.867,95.535
		c0.242,0.127,0.541,0.035,0.668-0.207c0.002-0.004,0.005-0.009,0.007-0.013c0.127-0.243,0.033-0.544-0.211-0.671
		s-0.544-0.033-0.671,0.211c-0.004,0.008-0.008,0.015-0.011,0.023c-0.125,0.23-0.041,0.518,0.189,0.643
		C516.847,95.526,516.857,95.531,516.867,95.535z M546.6,131.42c0.093,0.26,0.378,0.398,0.64,0.31
		c0.257-0.084,0.397-0.36,0.314-0.617c-0.001-0.002-0.001-0.004-0.002-0.006c-0.068-0.256-0.331-0.409-0.588-0.341
		c-0.012,0.003-0.025,0.007-0.037,0.011C546.669,130.875,546.527,131.154,546.6,131.42z M542.765,119.92
		c0.097,0.259,0.376,0.401,0.642,0.327c0.26-0.093,0.398-0.378,0.309-0.64c-0.088-0.261-0.37-0.4-0.631-0.312
		c-0.003,0.001-0.006,0.002-0.009,0.003c-0.257,0.084-0.397,0.36-0.314,0.616C542.764,119.917,542.765,119.918,542.765,119.92
		L542.765,119.92z M538.933,108.438c0.077,0.254,0.346,0.397,0.6,0.319c0.008-0.002,0.015-0.005,0.022-0.007
		c0.263-0.078,0.413-0.355,0.335-0.618c-0.002-0.008-0.005-0.016-0.008-0.024c-0.091-0.262-0.378-0.401-0.64-0.309
		C538.98,107.889,538.841,108.176,538.933,108.438z M535.08,96.94c0.093,0.26,0.378,0.398,0.64,0.31
		c0.254-0.077,0.397-0.346,0.319-0.6c-0.002-0.008-0.005-0.015-0.007-0.022c-0.084-0.261-0.361-0.408-0.625-0.33
		C535.143,96.389,534.999,96.673,535.08,96.94z M490.148,122.48c0.208,0.129,0.482,0.067,0.614-0.139
		c0.132-0.207,0.071-0.482-0.136-0.615c-0.207-0.132-0.482-0.071-0.615,0.136c-0.001,0.001-0.002,0.003-0.003,0.004
		C489.881,122.075,489.943,122.347,490.148,122.48L490.148,122.48z M495.88,113.311c0.208,0.128,0.481,0.066,0.614-0.139
		c0.137-0.204,0.083-0.481-0.121-0.618c-0.204-0.137-0.481-0.083-0.618,0.121c-0.005,0.007-0.01,0.015-0.014,0.023
		c-0.133,0.201-0.078,0.471,0.123,0.604C495.869,113.304,495.875,113.308,495.88,113.311L495.88,113.311z M501.431,103.877
		c0.018,0.111,0.084,0.208,0.181,0.264c0.208,0.128,0.481,0.066,0.614-0.139c0.136-0.212,0.074-0.493-0.138-0.629
		c-0.001-0.001-0.003-0.002-0.004-0.003c-0.126-0.08-0.284-0.092-0.421-0.032l-0.018,0.002c-0.079,0.031-0.142,0.092-0.176,0.169
		C501.396,103.617,501.381,103.756,501.431,103.877L501.431,103.877z M507.345,94.972c0.213,0.13,0.491,0.064,0.622-0.149
		s0.064-0.491-0.149-0.622c-0.208-0.129-0.482-0.067-0.614,0.139c-0.136,0.212-0.074,0.494,0.138,0.629
		C507.342,94.97,507.344,94.971,507.345,94.972L507.345,94.972z M534.838,129.701c0.065,0.242,0.308,0.391,0.554,0.339
		c0.233-0.051,0.38-0.282,0.329-0.515c-0.001-0.006-0.003-0.013-0.005-0.019c-0.051-0.241-0.287-0.395-0.528-0.344
		c-0.003,0.001-0.005,0.001-0.008,0.002C534.943,129.227,534.794,129.461,534.838,129.701L534.838,129.701z M532.423,119.181
		c0.059,0.236,0.297,0.38,0.533,0.324c0.233-0.051,0.38-0.282,0.329-0.515c-0.001-0.006-0.003-0.012-0.005-0.019
		c-0.051-0.241-0.287-0.395-0.528-0.344c-0.003,0.001-0.005,0.001-0.008,0.002C532.506,118.696,532.364,118.94,532.423,119.181
		L532.423,119.181z M529.985,108.627c0.051,0.241,0.287,0.395,0.528,0.344c0.003-0.001,0.005-0.001,0.008-0.002
		c0.228-0.044,0.378-0.264,0.334-0.492c-0.003-0.014-0.006-0.028-0.01-0.041c-0.051-0.241-0.287-0.395-0.528-0.344
		c-0.003,0.001-0.005,0.001-0.008,0.002C530.077,108.156,529.934,108.391,529.985,108.627z M527.553,98.109
		c0.063,0.241,0.31,0.384,0.55,0.321c0.234-0.062,0.377-0.296,0.325-0.532c-0.062-0.237-0.295-0.386-0.536-0.342
		C527.65,97.621,527.501,97.863,527.553,98.109z M511.65,124.769c-0.033,0.244,0.135,0.47,0.378,0.509
		c0.24,0.041,0.469-0.12,0.511-0.36c0.037-0.244-0.122-0.475-0.363-0.529C511.926,124.351,511.692,124.521,511.65,124.769z
		 M513.448,114.1c-0.048,0.232,0.102,0.459,0.334,0.506c0.009,0.002,0.018,0.003,0.026,0.005c0.24,0.041,0.469-0.12,0.511-0.36
		c0.037-0.244-0.122-0.475-0.363-0.529C513.712,113.689,513.486,113.857,513.448,114.1z M515.228,103.433
		c-0.042,0.241,0.12,0.469,0.36,0.511s0.469-0.12,0.511-0.36l0,0c0.042-0.241-0.12-0.469-0.36-0.511
		S515.269,103.192,515.228,103.433z M552.136,116.127c0.131,0.193,0.395,0.244,0.588,0.113c0.008-0.005,0.015-0.011,0.022-0.016
		c0.204-0.137,0.258-0.414,0.121-0.618c-0.003-0.004-0.006-0.009-0.009-0.013c-0.151-0.194-0.427-0.236-0.628-0.094
		c-0.198,0.14-0.246,0.414-0.106,0.612C552.128,116.116,552.132,116.121,552.136,116.127L552.136,116.127z M545.851,107.318
		c0.146,0.201,0.425,0.251,0.631,0.112c0.2-0.151,0.24-0.435,0.089-0.635c-0.143-0.19-0.408-0.237-0.608-0.108
		c-0.203,0.133-0.26,0.406-0.127,0.609C545.841,107.303,545.846,107.311,545.851,107.318L545.851,107.318z M515.921,104.911
		c0.005,0.144,0.126,0.257,0.27,0.252c0.144-0.005,0.257-0.126,0.252-0.27s-0.126-0.257-0.27-0.252l0,0
		C516.029,104.646,515.916,104.766,515.921,104.911C515.921,104.911,515.921,104.911,515.921,104.911L515.921,104.911z
		 M515.69,98.539c0.014,0.147,0.141,0.257,0.288,0.25c0.144-0.005,0.257-0.125,0.252-0.27c0,0,0,0,0-0.001
		c0.001-0.139-0.111-0.252-0.25-0.253c-0.007,0-0.013,0-0.02,0.001c-0.148-0.001-0.269,0.118-0.27,0.266
		C515.69,98.534,515.69,98.536,515.69,98.539L515.69,98.539z M503.538,99.623c0.136,0.041,0.282-0.026,0.34-0.156
		c0.053-0.132-0.01-0.282-0.142-0.335c-0.005-0.002-0.009-0.004-0.014-0.005c-0.128-0.055-0.276,0.004-0.332,0.132
		c-0.003,0.008-0.006,0.016-0.009,0.024C503.333,99.42,503.402,99.571,503.538,99.623L503.538,99.623z M527.798,98.835
		c0.058,0.132,0.212,0.192,0.344,0.133c0.132-0.058,0.191-0.212,0.133-0.344c-0.046-0.127-0.185-0.193-0.312-0.147
		c-0.011,0.004-0.021,0.009-0.032,0.014c-0.13,0.055-0.192,0.205-0.137,0.336C527.796,98.829,527.797,98.832,527.798,98.835
		L527.798,98.835z M516.347,107.204c0.025,0.152,0.17,0.255,0.322,0.23c0.012-0.002,0.023-0.005,0.034-0.008
		c0.159-0.038,0.258-0.197,0.222-0.356c-0.043-0.158-0.196-0.261-0.359-0.24c-0.164,0.042-0.262,0.209-0.22,0.372
		C516.346,107.203,516.346,107.203,516.347,107.204L516.347,107.204z M514.766,100.096c0.042,0.164,0.208,0.262,0.372,0.22
		c0.001,0,0.002,0,0.002-0.001c0.159-0.038,0.258-0.197,0.222-0.356c-0.043-0.158-0.196-0.261-0.359-0.24
		C514.84,99.766,514.737,99.928,514.766,100.096L514.766,100.096z M501.431,103.877c0.035,0.025,0.075,0.044,0.116,0.056
		c0.16,0.03,0.314-0.076,0.344-0.237c0.001-0.003,0.001-0.007,0.002-0.01c0.026-0.158-0.074-0.309-0.229-0.348l-0.018,0.002
		c-0.16-0.03-0.314,0.076-0.344,0.237c-0.001,0.003-0.001,0.007-0.002,0.01C501.278,103.702,501.33,103.818,501.431,103.877
		L501.431,103.877z M502.587,96.408c-0.034,0.158,0.067,0.314,0.225,0.347c0.001,0,0.003,0.001,0.004,0.001
		c0.164,0.029,0.322-0.071,0.366-0.232c0.022-0.167-0.086-0.323-0.249-0.364C502.769,96.135,502.615,96.245,502.587,96.408
		L502.587,96.408z M528.613,98.053c0.095,0.136,0.281,0.169,0.417,0.074c0.003-0.002,0.006-0.004,0.008-0.006
		c0.131-0.094,0.162-0.275,0.07-0.408c-0.081-0.136-0.257-0.18-0.393-0.099c-0.006,0.003-0.012,0.007-0.017,0.011
		C528.558,97.72,528.52,97.911,528.613,98.053L528.613,98.053z M491.875,121.626c-0.046,0.281,0.145,0.546,0.426,0.592
		c0.281,0.046,0.546-0.145,0.592-0.426c0.046-0.281-0.145-0.546-0.426-0.592C492.187,121.156,491.922,121.346,491.875,121.626z
		 M493.804,109.292c-0.037,0.284,0.16,0.546,0.444,0.59c0.281,0.035,0.538-0.165,0.573-0.446c0.035-0.281-0.165-0.538-0.446-0.573
		C494.1,108.829,493.848,109.019,493.804,109.292z M495.752,96.956c-0.046,0.281,0.145,0.546,0.426,0.592
		c0.281,0.046,0.546-0.145,0.592-0.426s-0.145-0.546-0.426-0.592C496.063,96.484,495.798,96.675,495.752,96.956L495.752,96.956z
		 M541.119,122.012c0.177,0.228,0.502,0.278,0.74,0.115c0.227-0.177,0.267-0.505,0.09-0.732c-0.171-0.219-0.485-0.265-0.712-0.105
		C541.01,121.46,540.958,121.778,541.119,122.012z M533.77,111.92c0.17,0.226,0.489,0.278,0.722,0.117
		c0.232-0.167,0.284-0.49,0.117-0.722c-0.167-0.232-0.49-0.284-0.722-0.117l0,0C533.659,111.368,533.607,111.688,533.77,111.92z
		 M526.422,101.829c0.169,0.228,0.489,0.28,0.722,0.117c0.228-0.177,0.279-0.502,0.115-0.74c-0.177-0.227-0.505-0.267-0.732-0.09
		C526.307,101.289,526.261,101.602,526.422,101.829z M514.481,127.58c0.08,0.271,0.354,0.437,0.632,0.383
		c0.272-0.076,0.434-0.355,0.365-0.629c-0.06-0.274-0.33-0.447-0.604-0.388c-0.003,0.001-0.007,0.001-0.01,0.002
		c-0.28,0.068-0.452,0.351-0.383,0.631C514.481,127.579,514.481,127.579,514.481,127.58z M511.551,115.43
		c0.068,0.28,0.351,0.452,0.631,0.383c0,0,0.001,0,0.001,0c0.27-0.067,0.435-0.341,0.368-0.611c0,0,0,0,0-0.001
		c-0.063-0.276-0.338-0.449-0.614-0.385C511.661,114.879,511.488,115.154,511.551,115.43L511.551,115.43z M508.624,103.297
		c0.06,0.274,0.33,0.447,0.604,0.388c0.003-0.001,0.007-0.002,0.01-0.002c0.282-0.059,0.462-0.336,0.403-0.618
		c-0.059-0.282-0.336-0.462-0.618-0.403s-0.462,0.336-0.403,0.618C508.621,103.286,508.622,103.292,508.624,103.297z
		 M506.914,131.594c0.063,0.276,0.337,0.448,0.613,0.385c0.276-0.063,0.448-0.337,0.385-0.613c-0.061-0.268-0.324-0.44-0.595-0.389
		C507.035,131.037,506.855,131.312,506.914,131.594L506.914,131.594z M504.501,119.391c0.059,0.281,0.335,0.462,0.617,0.403
		c0.272-0.062,0.449-0.324,0.406-0.599c-0.064-0.281-0.334-0.465-0.619-0.421C504.627,118.839,504.449,119.11,504.501,119.391
		L504.501,119.391z M502.088,107.187c0.059,0.281,0.335,0.462,0.617,0.403c0.278-0.053,0.46-0.32,0.407-0.598
		c-0.053-0.278-0.32-0.46-0.598-0.407c-0.001,0-0.002,0-0.003,0C502.233,106.641,502.046,106.906,502.088,107.187L502.088,107.187z
		 M499.694,94.981c0.043,0.27,0.297,0.455,0.567,0.412c0.011-0.002,0.021-0.004,0.032-0.006c0.276-0.056,0.456-0.322,0.405-0.599
		c-0.053-0.277-0.322-0.459-0.599-0.406S499.64,94.704,499.694,94.981L499.694,94.981L499.694,94.981z M527.887,116.208
		c0.164,0.235,0.486,0.295,0.724,0.135c0.233-0.157,0.294-0.473,0.137-0.706c-0.144-0.237-0.453-0.312-0.69-0.167
		c-0.006,0.004-0.013,0.008-0.019,0.012c-0.241,0.152-0.314,0.471-0.162,0.713C527.881,116.199,527.884,116.204,527.887,116.208
		L527.887,116.208z M520.991,105.856c0.164,0.235,0.486,0.295,0.724,0.135c0.233-0.157,0.294-0.473,0.137-0.706
		c-0.144-0.237-0.453-0.312-0.69-0.167c-0.006,0.004-0.013,0.008-0.019,0.012c-0.241,0.152-0.314,0.471-0.162,0.713
		C520.984,105.846,520.987,105.851,520.991,105.856L520.991,105.856z M514.094,95.503c0.164,0.235,0.486,0.295,0.724,0.135
		c0.233-0.157,0.294-0.473,0.137-0.706c-0.158-0.238-0.479-0.303-0.717-0.145C514.001,94.944,513.936,95.265,514.094,95.503
		L514.094,95.503z M507.18,110.119c0.086,0.197,0.315,0.287,0.512,0.202c0.193-0.084,0.284-0.305,0.207-0.5
		c-0.073-0.192-0.288-0.289-0.48-0.216c-0.012,0.005-0.025,0.01-0.036,0.016C507.192,109.705,507.102,109.925,507.18,110.119
		L507.18,110.119z M503.492,101.511c0.085,0.199,0.315,0.291,0.514,0.206c0.199-0.085,0.291-0.315,0.206-0.514
		c-0.001-0.003-0.002-0.005-0.003-0.008c-0.082-0.196-0.308-0.288-0.503-0.205c-0.004,0.002-0.008,0.004-0.013,0.006
		C503.497,101.085,503.409,101.313,503.492,101.511L503.492,101.511z M520.511,95.592c0.146,0.149,0.384,0.152,0.533,0.006
		c0.003-0.003,0.006-0.006,0.009-0.009c0.153-0.144,0.161-0.385,0.017-0.539c-0.007-0.007-0.014-0.014-0.022-0.021
		c-0.16-0.143-0.407-0.129-0.55,0.031C520.362,95.213,520.368,95.446,520.511,95.592L520.511,95.592z"/>
	<path id="texture-2" style="fill:#FFFFFF;" d="M569.837,115.236c-0.014,0.276,0.196,0.513,0.472,0.532
		c0.265,0.029,0.503-0.162,0.532-0.427c0.001-0.009,0.002-0.018,0.002-0.027c0.014-0.276-0.196-0.513-0.472-0.532
		C570.099,114.76,569.86,114.963,569.837,115.236C569.838,115.235,569.837,115.236,569.837,115.236z M570.681,103.161
		c-0.018,0.277,0.191,0.516,0.468,0.535c0.277,0.018,0.516-0.191,0.535-0.468c0-0.002,0-0.005,0-0.007
		c0.022-0.273-0.181-0.512-0.453-0.534c0,0,0,0-0.001,0C570.952,102.678,570.713,102.884,570.681,103.161L570.681,103.161z
		 M546.814,103.388c0.25,0.115,0.545,0.005,0.659-0.244c0.115-0.25,0.005-0.545-0.244-0.659c-0.244-0.112-0.534-0.01-0.653,0.231
		C546.46,102.967,546.565,103.266,546.814,103.388z M592.778,106.742c0.093,0.26,0.378,0.398,0.64,0.31
		c0.257-0.084,0.397-0.36,0.314-0.617c-0.001-0.002-0.001-0.004-0.002-0.006c-0.068-0.256-0.331-0.409-0.588-0.341
		c-0.012,0.003-0.025,0.007-0.037,0.011C592.846,106.197,592.704,106.476,592.778,106.742z M588.943,95.242
		c0.097,0.259,0.376,0.401,0.642,0.327c0.26-0.093,0.398-0.378,0.309-0.64c-0.088-0.261-0.37-0.4-0.631-0.312
		c-0.003,0.001-0.006,0.002-0.009,0.003c-0.257,0.084-0.397,0.36-0.314,0.616C588.942,95.238,588.942,95.24,588.943,95.242
		L588.943,95.242z M536.326,97.802c0.208,0.129,0.482,0.067,0.614-0.139c0.132-0.207,0.071-0.482-0.136-0.615
		s-0.482-0.071-0.615,0.136c-0.001,0.001-0.002,0.003-0.003,0.004C536.059,97.397,536.121,97.669,536.326,97.802L536.326,97.802z
		 M581.016,105.023c0.065,0.242,0.308,0.391,0.554,0.339c0.233-0.051,0.38-0.282,0.329-0.515c-0.001-0.006-0.003-0.013-0.005-0.019
		c-0.051-0.241-0.287-0.395-0.528-0.344c-0.003,0.001-0.005,0.001-0.008,0.002C581.121,104.549,580.972,104.782,581.016,105.023
		L581.016,105.023z M578.601,94.502c0.059,0.236,0.297,0.38,0.533,0.324c0.233-0.051,0.38-0.282,0.329-0.515
		c-0.001-0.006-0.003-0.012-0.005-0.019c-0.051-0.241-0.287-0.395-0.528-0.344c-0.003,0.001-0.005,0.001-0.008,0.002
		C578.684,94.018,578.542,94.262,578.601,94.502L578.601,94.502z M557.827,100.091c-0.033,0.244,0.135,0.47,0.378,0.509
		c0.24,0.041,0.469-0.12,0.511-0.36c0.037-0.244-0.122-0.475-0.363-0.529C558.104,99.673,557.87,99.842,557.827,100.091
		L557.827,100.091z M538.053,96.948c-0.046,0.281,0.145,0.546,0.426,0.592c0.281,0.046,0.546-0.145,0.592-0.426
		c0.046-0.281-0.145-0.546-0.426-0.592C538.364,96.478,538.1,96.668,538.053,96.948L538.053,96.948z M587.297,97.333
		c0.177,0.228,0.502,0.278,0.74,0.115c0.227-0.177,0.267-0.505,0.09-0.732c-0.171-0.219-0.485-0.265-0.712-0.105
		C587.188,96.782,587.136,97.1,587.297,97.333L587.297,97.333z M560.659,102.901c0.08,0.271,0.354,0.437,0.632,0.383
		c0.272-0.076,0.434-0.355,0.365-0.629c-0.06-0.274-0.33-0.447-0.604-0.388c-0.003,0.001-0.007,0.001-0.01,0.002
		c-0.28,0.068-0.452,0.351-0.383,0.631C560.659,102.901,560.659,102.901,560.659,102.901L560.659,102.901z M553.091,106.916
		c0.063,0.276,0.337,0.448,0.613,0.385c0.276-0.063,0.448-0.337,0.385-0.613c-0.061-0.268-0.324-0.44-0.595-0.389
		C553.213,106.358,553.033,106.634,553.091,106.916L553.091,106.916z M550.679,94.712c0.059,0.281,0.335,0.462,0.617,0.403
		c0.272-0.062,0.449-0.324,0.406-0.599c-0.064-0.281-0.334-0.465-0.619-0.421C550.805,94.161,550.627,94.432,550.679,94.712
		L550.679,94.712z"/>
</g>
<g id="woman">
	<path id="R_shoe" style="fill:#428DFC;" d="M476.362,632.469l27.907,0.001c0,0,12.035,12.856,26.711,19.146
		s19.078,14.781,19.078,14.781l-85.856-0.003L476.362,632.469"/>
	
		<linearGradient id="L_shoe_1_" gradientUnits="userSpaceOnUse" x1="557.5327" y1="149.7226" x2="484.318" y2="94.6779" gradientTransform="matrix(1 0 0 -1 0 722)">
		<stop  offset="0.1291" style="stop-color:#428DFC"/>
		<stop  offset="0.9987" style="stop-color:#1D72D8"/>
	</linearGradient>
	<path id="L_shoe" style="fill:url(#L_shoe_1_);" d="M486.402,587.004l27.309-5.742c0,0,14.423,10.104,30.079,13.239
		s21.711,10.538,21.711,10.538l-84.019,17.667L486.402,587.004"/>
	
		<linearGradient id="L_trousers_1_" gradientUnits="userSpaceOnUse" x1="543.3583" y1="267.2159" x2="424.3704" y2="205.7481" gradientTransform="matrix(1 0 0 -1 0 722)">
		<stop  offset="0" style="stop-color:#23286B"/>
		<stop  offset="1" style="stop-color:#151A4F"/>
	</linearGradient>
	<path id="L_trousers" style="fill:url(#L_trousers_1_);" d="M397.205,436.808c0,0,63.469,11.204,80.001,17.937
		s17.676,24.661,24.841,61.868c8.33,43.252,12.155,64.887,12.155,64.887l-31.154,6.325c0,0-10.892-5.474-14.578-24.36
		s-1.744-20.652-6.219-30.777s-8.055-15.624-8.056-28.634s-7.501-19.439-18.687-18.732s-60.929,0.157-82.086-33.98l-4.738-7.645
		C348.684,443.696,383.791,429.828,397.205,436.808"/>
	
		<linearGradient id="L_hand_1_" gradientUnits="userSpaceOnUse" x1="457.4389" y1="390.8813" x2="463.6113" y2="358.3363" gradientTransform="matrix(1 0 0 -1 0 722)">
		<stop  offset="0" style="stop-color:#FFBEB6"/>
		<stop  offset="1" style="stop-color:#F2A19C"/>
	</linearGradient>
	<path id="L_hand" style="fill:url(#L_hand_1_);" d="M458.47,378.48c0,0,6.27-2.65,6.27-7.513s8.23-8.23,8.23-8.23l-6.369,12.709
		l-3.357,7.118C463.244,382.563,456.315,394.41,458.47,378.48z"/>
	<path id="R_trousers" style="fill:#23286B;" d="M454.65,606.574c3.634,8.243,13.989,20.772,21.712,25.895l27.907,0.001
		c-1.159-4.749-24.901-102.503-34.257-119.704c-7.634-14.02-18.409-28.841-29.128-41.751l-26.788-31.366l-26.571,5.318
		c-0.936-0.379-2.658-0.661-3.69-1.006c-1.917-0.646-3.726,6.672-6.197,4.962c-4.209,2.108-26.619,0.169-29.691,1.38
		c1.966,22.806,21.597,39.573,44.796,50.976c43.273,21.27,35.37,31.85,39.012,46.089c3.615,14.247,6.143,22.746,14.388,32.956
		C454.409,590.532,447.738,590.847,454.65,606.574z"/>
	<path id="phone" style="fill:#23286B;" d="M482.592,379.088l-16.181-3.686c-0.958-0.218-1.558-1.172-1.34-2.131
		c0.056-0.248,0.165-0.481,0.319-0.683l21.321-27.993c0.43-0.565,1.155-0.82,1.844-0.649l16.276,4.038
		c0.954,0.237,1.536,1.202,1.299,2.156c-0.06,0.24-0.169,0.466-0.32,0.662l-21.416,27.642
		C483.97,378.99,483.267,379.242,482.592,379.088z"/>
	
		<linearGradient id="R_hand_1_" gradientUnits="userSpaceOnUse" x1="478.7784" y1="342.9008" x2="458.4674" y2="322.8503" gradientTransform="matrix(0.9999 -0.0102 -0.0102 -0.9999 3.7112 724.8268)">
		<stop  offset="0" style="stop-color:#FFBEB6"/>
		<stop  offset="1" style="stop-color:#F2A19C"/>
	</linearGradient>
	<path id="R_hand" style="fill:url(#R_hand_1_);" d="M459.994,382.319c0,0,4.624-3.491,6.607-6.874c0,0,3.04,0.705,4.936,1.012
		c0,0,0.248-4.823,9.768-5.638c8.584-0.735,7.453-2.6,12.764-4.337s7.477-0.17,7.776,1.603c0,0-5.589,2.02-6.876,4.09
		s-2.825,7.134-7.483,8.771s-20.725,2.923-24.074,13.708l0,0L459.994,382.319"/>
	<path id="texture-3" style="opacity:0.66;fill:#FFFFFF;enable-background:new    ;" d="M384.501,465.011
		c0.097,0.042,0.21-0.004,0.252-0.101c0.042-0.097-0.004-0.21-0.101-0.252s-0.21,0.004-0.252,0.101c0,0,0,0,0,0
		C384.358,464.856,384.403,464.969,384.501,465.011C384.501,465.011,384.501,465.011,384.501,465.011z M386.306,460.684
		c0.102,0.039,0.216-0.005,0.265-0.103c0.036-0.1-0.014-0.212-0.114-0.25c-0.089-0.045-0.198-0.008-0.243,0.081
		c-0.003,0.007-0.006,0.013-0.009,0.02C386.163,460.53,386.208,460.642,386.306,460.684
		C386.306,460.684,386.306,460.684,386.306,460.684L386.306,460.684z M388.124,456.355c0.097,0.042,0.21-0.004,0.251-0.101
		c0,0,0,0,0,0c0.039-0.102-0.005-0.216-0.103-0.265c-0.104-0.034-0.218,0.016-0.263,0.116
		C387.973,456.206,388.024,456.317,388.124,456.355L388.124,456.355z M389.929,452.028c0.097,0.042,0.21-0.004,0.252-0.101
		c0,0,0,0,0,0c0.041-0.102-0.004-0.217-0.103-0.265c-0.097-0.042-0.21,0.004-0.251,0.101c0,0,0,0,0,0
		C389.785,451.865,389.83,451.981,389.929,452.028L389.929,452.028z M404.149,464.961c0.04,0.101,0.153,0.151,0.254,0.111
		c0,0,0,0,0,0c0.093-0.034,0.142-0.136,0.108-0.23c-0.003-0.008-0.006-0.016-0.01-0.023c-0.036-0.097-0.144-0.148-0.241-0.113
		C404.159,464.746,404.109,464.86,404.149,464.961C404.149,464.961,404.149,464.961,404.149,464.961L404.149,464.961z
		 M377.753,457.419c0.073,0.074,0.192,0.076,0.266,0.003s0.076-0.192,0.003-0.266c-0.073-0.074-0.192-0.076-0.266-0.003l0,0
		c-0.074,0.065-0.082,0.178-0.016,0.252C377.744,457.41,377.748,457.414,377.753,457.419L377.753,457.419z M381.081,454.116
		c0.057,0.059,0.148,0.069,0.216,0.023l0.013-0.002c0.015,0,0.028-0.007,0.037-0.018c0.046-0.043,0.067-0.105,0.057-0.167
		c-0.007-0.042-0.026-0.081-0.055-0.112c-0.073-0.073-0.191-0.075-0.266-0.003c-0.077,0.073-0.081,0.194-0.009,0.272
		C381.076,454.111,381.078,454.114,381.081,454.116L381.081,454.116z M384.409,450.813c0.076,0.07,0.194,0.065,0.264-0.01
		c0.074-0.073,0.076-0.192,0.003-0.266c-0.073-0.074-0.192-0.076-0.266-0.003l0,0c-0.077,0.073-0.081,0.194-0.009,0.272
		C384.404,450.809,384.406,450.811,384.409,450.813L384.409,450.813z M394.197,464.346c0.007,0.107,0.093,0.192,0.2,0.198
		c0.11-0.001,0.199-0.09,0.198-0.2c-0.001-0.11-0.09-0.199-0.2-0.198C394.288,464.153,394.203,464.239,394.197,464.346
		L394.197,464.346z M394.212,459.656c0.004,0.106,0.092,0.189,0.198,0.185c0,0,0,0,0,0c0.102,0.008,0.191-0.069,0.199-0.171
		c0-0.005,0.001-0.011,0.001-0.016c-0.003-0.109-0.091-0.196-0.2-0.198C394.303,459.463,394.218,459.549,394.212,459.656
		L394.212,459.656z M358.938,466.171c0.13,0.153,0.359,0.172,0.513,0.043c0.003-0.003,0.007-0.006,0.01-0.009
		c0.151-0.13,0.167-0.357,0.038-0.507c-0.001-0.001-0.001-0.002-0.002-0.002c-0.13-0.153-0.359-0.172-0.513-0.043
		c-0.003,0.003-0.007,0.006-0.01,0.009c-0.151,0.13-0.168,0.357-0.038,0.507C358.936,466.17,358.937,466.171,358.938,466.171
		L358.938,466.171z M365.648,460.342c0.135,0.154,0.369,0.17,0.523,0.035s0.17-0.369,0.035-0.523c0,0-0.001-0.001-0.001-0.001
		c-0.13-0.151-0.357-0.167-0.507-0.038c-0.001,0.001-0.002,0.001-0.002,0.002C365.541,459.952,365.521,460.183,365.648,460.342
		L365.648,460.342z M372.371,454.511c0.135,0.154,0.369,0.169,0.523,0.034c0.154-0.135,0.169-0.369,0.034-0.523
		s-0.369-0.169-0.523-0.034c-0.153,0.13-0.173,0.359-0.043,0.513C372.365,454.505,372.368,454.508,372.371,454.511L372.371,454.511z
		 M385.634,488.453c-0.01,0.203,0.144,0.376,0.346,0.39c0.194,0.021,0.369-0.119,0.391-0.313c0.001-0.007,0.001-0.013,0.002-0.02
		c0.01-0.203-0.144-0.376-0.346-0.39C385.826,488.104,385.65,488.252,385.634,488.453
		C385.634,488.453,385.634,488.453,385.634,488.453L385.634,488.453z M386.253,479.589c-0.009,0.204,0.148,0.376,0.352,0.385
		c0.199,0.009,0.37-0.142,0.385-0.341c0.016-0.2-0.133-0.376-0.333-0.392c0,0,0,0,0,0
		C386.452,479.234,386.276,479.386,386.253,479.589L386.253,479.589z M386.884,470.71c-0.016,0.2,0.134,0.374,0.333,0.39
		c0.004,0,0.009,0.001,0.013,0.001c0.194,0.021,0.369-0.119,0.391-0.313c0.001-0.007,0.001-0.013,0.002-0.02
		c0.007-0.205-0.145-0.38-0.348-0.403C387.071,470.354,386.897,470.508,386.884,470.71L386.884,470.71z M387.503,461.846
		c-0.011,0.203,0.145,0.377,0.348,0.389c0.202,0.011,0.375-0.143,0.389-0.345c0.016-0.2-0.132-0.376-0.333-0.392c0,0,0,0-0.001,0
		c-0.203-0.019-0.383,0.13-0.402,0.333C387.503,461.836,387.503,461.841,387.503,461.846L387.503,461.846z M388.133,452.967
		c-0.017,0.2,0.131,0.375,0.331,0.392c0.2,0.017,0.375-0.131,0.392-0.331c0-0.005,0.001-0.01,0.001-0.015
		c0.018-0.198-0.127-0.373-0.325-0.392c-0.003,0-0.005,0-0.008-0.001C388.321,452.611,388.147,452.765,388.133,452.967
		L388.133,452.967z M368.733,479.756c0.183,0.084,0.4,0.004,0.484-0.179s0.004-0.4-0.179-0.484
		c-0.179-0.082-0.392-0.007-0.479,0.169C368.473,479.447,368.55,479.666,368.733,479.756L368.733,479.756z M372.704,471.796
		c0.183,0.084,0.4,0.004,0.484-0.179c0.084-0.183,0.004-0.4-0.179-0.484c-0.179-0.082-0.392-0.007-0.479,0.17
		C372.445,471.487,372.522,471.706,372.704,471.796L372.704,471.796z M376.678,463.849c0.187,0.087,0.41,0.006,0.497-0.181
		c0.084-0.181,0.012-0.396-0.165-0.489c-0.183-0.096-0.409-0.026-0.505,0.156c-0.096,0.183-0.026,0.409,0.156,0.505
		C376.666,463.844,376.672,463.846,376.678,463.849z M380.647,455.876c0.177,0.094,0.397,0.026,0.491-0.152
		c0.002-0.003,0.003-0.007,0.005-0.01c0.093-0.179,0.024-0.399-0.155-0.492s-0.399-0.024-0.492,0.155
		c-0.003,0.005-0.005,0.011-0.008,0.016c-0.092,0.169-0.03,0.38,0.139,0.472C380.633,455.869,380.64,455.873,380.647,455.876
		L380.647,455.876z M402.474,482.218c0.068,0.191,0.277,0.292,0.47,0.227c0.189-0.061,0.292-0.264,0.23-0.453
		c0-0.001-0.001-0.003-0.001-0.004c-0.05-0.188-0.243-0.3-0.431-0.25c-0.009,0.002-0.018,0.005-0.027,0.008
		C402.524,481.818,402.42,482.022,402.474,482.218L402.474,482.218z M399.659,473.776c0.071,0.19,0.276,0.294,0.471,0.24
		c0.191-0.068,0.292-0.277,0.227-0.47c-0.065-0.191-0.272-0.294-0.463-0.229c-0.002,0.001-0.004,0.001-0.006,0.002
		c-0.189,0.061-0.292,0.264-0.23,0.452C399.658,473.773,399.658,473.775,399.659,473.776L399.659,473.776z M396.845,465.347
		c0.057,0.186,0.254,0.291,0.44,0.234c0.006-0.002,0.011-0.004,0.017-0.005c0.193-0.057,0.303-0.26,0.246-0.454
		c-0.002-0.006-0.004-0.012-0.006-0.018c-0.066-0.193-0.276-0.295-0.469-0.229c-0.193,0.066-0.295,0.276-0.229,0.469
		C396.845,465.346,396.845,465.347,396.845,465.347L396.845,465.347z M394.017,456.907c0.068,0.191,0.277,0.292,0.47,0.227
		c0.186-0.057,0.291-0.254,0.234-0.44c-0.002-0.006-0.004-0.011-0.005-0.016c-0.062-0.192-0.265-0.299-0.458-0.242
		C394.064,456.503,393.957,456.711,394.017,456.907L394.017,456.907z M361.034,475.656c0.153,0.095,0.354,0.049,0.451-0.102
		c0.097-0.152,0.052-0.354-0.1-0.451s-0.354-0.052-0.451,0.1c-0.001,0.001-0.001,0.002-0.002,0.003
		C360.838,475.358,360.883,475.558,361.034,475.656L361.034,475.656z M365.242,468.924c0.153,0.094,0.353,0.049,0.451-0.102
		c0.101-0.15,0.061-0.353-0.088-0.454c-0.15-0.101-0.353-0.061-0.454,0.088c-0.004,0.006-0.007,0.011-0.011,0.017
		c-0.097,0.147-0.057,0.346,0.09,0.443C365.234,468.919,365.238,468.922,365.242,468.924L365.242,468.924z M369.317,461.999
		c0.013,0.081,0.062,0.153,0.133,0.194c0.153,0.094,0.353,0.049,0.451-0.102c0.1-0.155,0.054-0.362-0.101-0.462
		c-0.001-0.001-0.002-0.001-0.003-0.002c-0.093-0.059-0.208-0.068-0.309-0.024l-0.013,0.002c-0.058,0.023-0.104,0.067-0.129,0.124
		C369.29,461.808,369.279,461.91,369.317,461.999L369.317,461.999z M373.658,455.462c0.157,0.095,0.361,0.044,0.456-0.112
		c0.094-0.156,0.045-0.358-0.109-0.454c-0.153-0.095-0.354-0.049-0.451,0.102c-0.1,0.156-0.054,0.362,0.101,0.462
		C373.656,455.461,373.657,455.462,373.658,455.462L373.658,455.462z M393.84,480.956c0.048,0.178,0.226,0.287,0.406,0.249
		c0.171-0.038,0.279-0.207,0.241-0.378c-0.001-0.005-0.002-0.009-0.003-0.014c-0.037-0.177-0.211-0.29-0.387-0.252
		c-0.002,0-0.004,0.001-0.006,0.001C393.917,480.608,393.807,480.78,393.84,480.956L393.84,480.956z M392.067,473.233
		c0.043,0.173,0.218,0.279,0.391,0.238c0.171-0.038,0.279-0.207,0.241-0.378c-0.001-0.005-0.002-0.009-0.003-0.014
		c-0.037-0.177-0.211-0.29-0.387-0.252c-0.002,0-0.004,0.001-0.006,0.001C392.128,472.878,392.023,473.057,392.067,473.233
		L392.067,473.233z M390.278,465.486c0.037,0.177,0.211,0.29,0.387,0.252c0.002,0,0.004-0.001,0.006-0.001
		c0.168-0.032,0.277-0.194,0.245-0.361c-0.002-0.01-0.004-0.02-0.007-0.03c-0.037-0.177-0.211-0.29-0.388-0.252
		c-0.002,0-0.004,0.001-0.006,0.001C390.344,465.141,390.24,465.313,390.278,465.486L390.278,465.486z M388.492,457.765
		c0.047,0.176,0.228,0.282,0.404,0.235c0.171-0.045,0.276-0.217,0.238-0.39c-0.045-0.174-0.217-0.283-0.393-0.251
		C388.563,457.407,388.454,457.585,388.492,457.765L388.492,457.765z M386.703,450.018c0.039,0.178,0.215,0.291,0.393,0.252
		s0.291-0.215,0.252-0.393c0,0,0-0.001,0-0.001c-0.048-0.178-0.226-0.287-0.406-0.249
		C386.773,449.677,386.67,449.846,386.703,450.018L386.703,450.018z M357.714,456.659c0.103,0.146,0.304,0.18,0.449,0.078
		c0.004-0.003,0.008-0.006,0.012-0.009c0.142-0.096,0.179-0.29,0.083-0.432c-0.004-0.006-0.008-0.011-0.012-0.016
		c-0.101-0.15-0.304-0.189-0.453-0.089c-0.003,0.002-0.006,0.004-0.01,0.007C357.641,456.309,357.61,456.512,357.714,456.659
		L357.714,456.659z M376.818,477.336c-0.024,0.179,0.099,0.345,0.277,0.373c0.177,0.03,0.344-0.088,0.375-0.264
		c0.027-0.179-0.089-0.349-0.266-0.388C377.021,477.029,376.849,477.153,376.818,477.336L376.818,477.336z M378.137,469.504
		c-0.035,0.17,0.075,0.337,0.245,0.372c0.006,0.001,0.013,0.002,0.019,0.003c0.177,0.03,0.344-0.088,0.375-0.264
		c0.027-0.179-0.089-0.349-0.266-0.388C378.332,469.202,378.166,469.325,378.137,469.504L378.137,469.504z M379.444,461.673
		c-0.031,0.177,0.088,0.345,0.264,0.375c0.177,0.031,0.345-0.088,0.375-0.264s-0.088-0.345-0.264-0.375
		C379.643,461.378,379.475,461.497,379.444,461.673z M380.751,453.843c-0.03,0.177,0.088,0.344,0.264,0.375
		c0.101,0.021,0.206-0.008,0.281-0.079l0.013-0.002c0.048-0.052,0.081-0.116,0.094-0.186c0.024-0.179-0.099-0.345-0.277-0.373
		C380.95,453.548,380.782,453.666,380.751,453.843L380.751,453.843z M406.538,470.991c0.096,0.142,0.29,0.179,0.432,0.083
		c0.006-0.004,0.011-0.008,0.016-0.012c0.15-0.101,0.189-0.304,0.089-0.453c-0.002-0.003-0.004-0.006-0.007-0.01
		c-0.111-0.143-0.314-0.173-0.461-0.069c-0.146,0.102-0.181,0.304-0.078,0.449C406.532,470.984,406.535,470.988,406.538,470.991
		L406.538,470.991z M401.924,464.525c0.107,0.148,0.312,0.184,0.463,0.082c0.147-0.111,0.176-0.319,0.066-0.466
		c-0.105-0.139-0.3-0.174-0.446-0.079c-0.149,0.098-0.191,0.298-0.093,0.447C401.916,464.514,401.92,464.52,401.924,464.525
		L401.924,464.525z M361.552,455.982c0.08,0.073,0.204,0.068,0.277-0.012c0.073-0.08,0.068-0.204-0.012-0.277
		c-0.08-0.073-0.204-0.068-0.277,0.012l0,0C361.47,455.786,361.475,455.907,361.552,455.982L361.552,455.982z M379.953,462.758
		c0.004,0.106,0.092,0.189,0.198,0.185c0.106-0.004,0.189-0.092,0.185-0.198c-0.004-0.106-0.092-0.189-0.198-0.185
		C380.032,462.563,379.949,462.652,379.953,462.758C379.953,462.758,379.953,462.758,379.953,462.758L379.953,462.758z
		 M379.784,458.08c0.01,0.108,0.103,0.189,0.211,0.183c0.106-0.004,0.189-0.092,0.185-0.198c0,0,0,0,0,0
		c0.001-0.102-0.082-0.185-0.184-0.186c-0.005,0-0.01,0-0.015,0.001c-0.109-0.001-0.197,0.087-0.198,0.195
		C379.784,458.077,379.784,458.079,379.784,458.08L379.784,458.08z M379.627,453.401c0.003,0.106,0.091,0.189,0.197,0.186
		s0.189-0.091,0.186-0.197c0-0.001,0-0.001,0-0.002c0.001-0.102-0.082-0.185-0.183-0.186c-0.005,0-0.01,0-0.015,0.001
		C379.707,453.206,379.624,453.295,379.627,453.401C379.627,453.4,379.627,453.401,379.627,453.401L379.627,453.401z
		 M370.863,458.877c0.1,0.03,0.207-0.019,0.25-0.114c0.039-0.097-0.007-0.207-0.104-0.246c-0.003-0.001-0.007-0.003-0.01-0.004
		c-0.094-0.04-0.203,0.003-0.243,0.097c-0.002,0.006-0.005,0.011-0.006,0.017C370.712,458.727,370.763,458.839,370.863,458.877
		L370.863,458.877z M372.514,454.492c0.1,0.03,0.207-0.019,0.25-0.114c0.034-0.1-0.016-0.21-0.114-0.25
		c-0.093-0.043-0.203-0.003-0.247,0.09c-0.002,0.004-0.004,0.008-0.005,0.012c-0.043,0.1,0.004,0.215,0.104,0.258
		C372.506,454.488,372.51,454.49,372.514,454.492L372.514,454.492z M388.672,458.298c0.043,0.097,0.156,0.141,0.253,0.098
		c0.097-0.043,0.141-0.156,0.098-0.253c-0.033-0.093-0.136-0.142-0.229-0.108c-0.008,0.003-0.016,0.006-0.023,0.01
		c-0.096,0.04-0.141,0.151-0.101,0.246C388.67,458.294,388.671,458.296,388.672,458.298L388.672,458.298z M386.728,454.038
		c0.048,0.099,0.166,0.141,0.266,0.096c0.092-0.045,0.131-0.157,0.086-0.249c0,0,0-0.001-0.001-0.001
		c-0.034-0.093-0.136-0.142-0.229-0.108c-0.008,0.003-0.016,0.006-0.023,0.01c-0.096,0.04-0.141,0.151-0.101,0.246
		C386.726,454.034,386.727,454.036,386.728,454.038L386.728,454.038z M358.21,460.628c0.098,0.064,0.229,0.036,0.292-0.062
		c0.001-0.002,0.002-0.004,0.004-0.006c0.068-0.098,0.043-0.233-0.055-0.3c-0.005-0.003-0.009-0.006-0.014-0.009
		c-0.098-0.064-0.229-0.036-0.292,0.062c-0.001,0.002-0.002,0.004-0.004,0.006C358.077,460.424,358.107,460.561,358.21,460.628
		L358.21,460.628z M361.08,456.127c0.105,0.066,0.243,0.035,0.309-0.069s0.035-0.243-0.069-0.309
		c-0.098-0.064-0.229-0.036-0.292,0.062c-0.001,0.002-0.002,0.004-0.004,0.006c-0.072,0.095-0.053,0.23,0.042,0.301
		C361.07,456.121,361.075,456.124,361.08,456.127L361.08,456.127z M380.266,464.441c0.019,0.112,0.125,0.188,0.237,0.169
		c0.008-0.001,0.017-0.003,0.025-0.006c0.117-0.028,0.189-0.145,0.163-0.262c-0.031-0.116-0.144-0.191-0.263-0.176
		c-0.12,0.031-0.192,0.153-0.162,0.273C380.265,464.44,380.265,464.441,380.266,464.441L380.266,464.441z M379.105,459.223
		c0.031,0.12,0.153,0.192,0.273,0.162c0.001,0,0.001,0,0.002,0c0.117-0.028,0.189-0.145,0.163-0.262
		c-0.031-0.116-0.144-0.191-0.263-0.176C379.159,458.981,379.084,459.1,379.105,459.223L379.105,459.223z M377.969,453.989
		c0.013,0.114,0.116,0.196,0.23,0.183c0.011-0.001,0.022-0.004,0.033-0.007c0.117-0.028,0.189-0.145,0.163-0.262
		c-0.031-0.116-0.144-0.191-0.263-0.176C378.015,453.755,377.943,453.872,377.969,453.989L377.969,453.989z M369.317,461.999
		c0.026,0.019,0.055,0.033,0.085,0.041c0.118,0.022,0.231-0.056,0.253-0.174c0-0.003,0.001-0.005,0.001-0.008
		c0.019-0.116-0.054-0.227-0.168-0.256l-0.013,0.002c-0.118-0.022-0.231,0.056-0.253,0.174c0,0.003-0.001,0.005-0.001,0.008
		C369.204,461.871,369.242,461.956,369.317,461.999L369.317,461.999z M370.165,456.517c-0.025,0.116,0.049,0.23,0.165,0.255
		c0.001,0,0.002,0,0.003,0.001c0.12,0.021,0.237-0.052,0.269-0.17c0.016-0.123-0.063-0.237-0.183-0.267
		C370.298,456.316,370.185,456.397,370.165,456.517L370.165,456.517z M389.27,457.724c0.07,0.1,0.207,0.124,0.306,0.054
		c0.002-0.001,0.004-0.003,0.006-0.004c0.096-0.069,0.119-0.202,0.052-0.299c-0.06-0.1-0.189-0.132-0.289-0.073
		c-0.004,0.003-0.009,0.005-0.013,0.008C389.229,457.48,389.201,457.619,389.27,457.724L389.27,457.724z M386.219,453.338
		c0.061,0.096,0.188,0.124,0.284,0.063c0.005-0.003,0.011-0.007,0.016-0.011c0.1-0.06,0.132-0.189,0.073-0.288
		c-0.003-0.004-0.005-0.009-0.008-0.013c-0.07-0.103-0.21-0.131-0.314-0.063C386.169,453.098,386.146,453.238,386.219,453.338
		C386.219,453.338,386.219,453.338,386.219,453.338L386.219,453.338z M362.302,475.029c-0.034,0.206,0.106,0.401,0.313,0.435
		s0.401-0.106,0.435-0.313s-0.106-0.401-0.312-0.435C362.53,474.683,362.336,474.823,362.302,475.029L362.302,475.029z
		 M363.718,465.975c-0.027,0.209,0.118,0.401,0.326,0.433c0.207,0.026,0.395-0.121,0.421-0.327c0.026-0.207-0.121-0.395-0.327-0.421
		C363.935,465.635,363.75,465.774,363.718,465.975z M365.147,456.919c-0.034,0.206,0.106,0.401,0.312,0.435
		c0.206,0.034,0.401-0.106,0.435-0.313l0,0c0.034-0.206-0.106-0.401-0.312-0.435C365.376,456.572,365.181,456.712,365.147,456.919
		L365.147,456.919z M398.45,475.311c0.13,0.167,0.368,0.204,0.543,0.084c0.167-0.13,0.196-0.371,0.066-0.537
		c-0.126-0.161-0.356-0.195-0.522-0.077C398.37,474.907,398.332,475.14,398.45,475.311z M393.056,467.904
		c0.125,0.166,0.359,0.204,0.53,0.086c0.17-0.122,0.209-0.359,0.087-0.53c-0.122-0.17-0.359-0.209-0.53-0.087
		c0,0-0.001,0.001-0.001,0.001C392.974,467.498,392.936,467.733,393.056,467.904z M387.661,460.496
		c0.124,0.168,0.359,0.206,0.53,0.086c0.167-0.13,0.204-0.368,0.084-0.543c-0.13-0.167-0.371-0.196-0.537-0.066
		C387.577,460.099,387.543,460.329,387.661,460.496L387.661,460.496z M382.267,453.089c0.124,0.168,0.359,0.206,0.53,0.086
		c0.166-0.131,0.202-0.368,0.084-0.543c-0.122-0.165-0.355-0.201-0.52-0.079c-0.003,0.002-0.005,0.004-0.008,0.006
		c-0.168,0.11-0.215,0.335-0.106,0.502C382.253,453.071,382.26,453.08,382.267,453.089L382.267,453.089z M354.018,458.26
		c0.18,0.111,0.416,0.054,0.527-0.126c0.111-0.18,0.054-0.416-0.126-0.527c-0.18-0.111-0.416-0.054-0.527,0.126
		C353.786,457.914,353.841,458.146,354.018,458.26L354.018,458.26z M378.896,479.399c0.059,0.199,0.26,0.321,0.464,0.281
		c0.2-0.056,0.319-0.261,0.268-0.462c-0.044-0.201-0.242-0.328-0.444-0.285c-0.002,0.001-0.005,0.001-0.007,0.002
		C378.972,478.985,378.846,479.192,378.896,479.399C378.896,479.398,378.896,479.398,378.896,479.399z M376.745,470.48
		c0.05,0.206,0.257,0.331,0.463,0.281c0,0,0.001,0,0.001,0c0.198-0.049,0.319-0.25,0.27-0.449c0,0,0,0,0,0
		c-0.046-0.203-0.248-0.329-0.451-0.283C376.826,470.075,376.699,470.277,376.745,470.48L376.745,470.48z M374.596,461.574
		c0.044,0.201,0.242,0.328,0.443,0.285c0.002-0.001,0.005-0.001,0.007-0.002c0.207-0.044,0.339-0.247,0.296-0.454
		s-0.247-0.339-0.454-0.296c-0.207,0.044-0.339,0.247-0.296,0.454C374.594,461.565,374.595,461.57,374.596,461.574z
		 M373.341,482.346c0.046,0.202,0.248,0.329,0.45,0.283s0.329-0.248,0.283-0.45c-0.045-0.197-0.238-0.323-0.436-0.285
		C373.43,481.936,373.298,482.139,373.341,482.346L373.341,482.346z M371.57,473.387c0.043,0.207,0.246,0.339,0.453,0.296
		c0.2-0.045,0.33-0.238,0.298-0.44c-0.047-0.206-0.245-0.341-0.454-0.309C371.662,472.983,371.532,473.182,371.57,473.387
		L371.57,473.387z M369.799,464.429c0.043,0.207,0.246,0.339,0.453,0.296c0.204-0.039,0.337-0.236,0.298-0.44
		s-0.236-0.337-0.44-0.298C369.905,464.028,369.768,464.223,369.799,464.429L369.799,464.429z M368.041,455.469
		c0.031,0.198,0.218,0.334,0.416,0.302c0.008-0.001,0.016-0.003,0.024-0.005c0.202-0.041,0.335-0.236,0.298-0.44
		c-0.039-0.204-0.236-0.337-0.44-0.298C368.135,455.069,368.002,455.266,368.041,455.469L368.041,455.469z M390.32,451.111
		c0.178,0.11,0.411,0.06,0.529-0.113c0.111-0.173,0.061-0.404-0.111-0.516c-0.162-0.117-0.389-0.081-0.506,0.081
		c-0.004,0.006-0.008,0.011-0.012,0.017c-0.12,0.171-0.078,0.406,0.093,0.526C390.315,451.108,390.318,451.109,390.32,451.111
		L390.32,451.111z M356.138,468.299c-0.039,0.202,0.094,0.397,0.296,0.436c0.001,0,0.002,0,0.003,0.001
		c0.204,0.044,0.406-0.085,0.451-0.288c0.038-0.207-0.095-0.407-0.301-0.45C356.381,467.962,356.183,468.094,356.138,468.299
		L356.138,468.299z M357.939,459.337c-0.043,0.203,0.086,0.403,0.29,0.447c0.203,0.043,0.403-0.086,0.447-0.29
		c0-0.002,0.001-0.005,0.001-0.007c0.035-0.206-0.097-0.404-0.301-0.45c-0.202-0.039-0.397,0.094-0.436,0.296
		C357.939,459.335,357.939,459.336,357.939,459.337L357.939,459.337z M388.737,471.051c0.12,0.173,0.357,0.217,0.532,0.099
		c0.171-0.116,0.216-0.347,0.101-0.519c-0.106-0.174-0.333-0.229-0.507-0.123c-0.005,0.003-0.009,0.006-0.014,0.009
		c-0.177,0.112-0.231,0.346-0.119,0.523C388.732,471.045,388.734,471.048,388.737,471.051L388.737,471.051z M383.675,463.452
		c0.12,0.173,0.357,0.217,0.532,0.099c0.171-0.116,0.216-0.347,0.101-0.519c-0.106-0.174-0.333-0.229-0.507-0.123
		c-0.005,0.003-0.009,0.006-0.014,0.009c-0.177,0.112-0.23,0.346-0.119,0.523C383.67,463.445,383.672,463.448,383.675,463.452
		L383.675,463.452z M378.612,455.852c0.12,0.173,0.357,0.217,0.532,0.099c0.171-0.116,0.216-0.347,0.101-0.519
		c-0.114-0.176-0.349-0.225-0.525-0.111s-0.225,0.349-0.111,0.525C378.61,455.849,378.611,455.85,378.612,455.852L378.612,455.852z
		 M373.536,466.581c0.063,0.145,0.231,0.211,0.376,0.148c0.141-0.061,0.208-0.224,0.152-0.367c-0.053-0.141-0.211-0.212-0.352-0.159
		c-0.009,0.003-0.018,0.007-0.027,0.012C373.545,466.278,373.48,466.439,373.536,466.581L373.536,466.581z M370.829,460.263
		c0.063,0.145,0.233,0.212,0.378,0.149s0.212-0.233,0.149-0.378c0-0.001-0.001-0.002-0.001-0.003
		c-0.06-0.144-0.226-0.211-0.37-0.151c-0.003,0.001-0.006,0.003-0.009,0.004C370.833,459.95,370.768,460.117,370.829,460.263
		L370.829,460.263z M368.12,453.931c0.064,0.145,0.234,0.211,0.379,0.147c0.145-0.064,0.211-0.234,0.147-0.379
		c-0.064-0.145-0.234-0.211-0.379-0.147l0,0C368.124,453.618,368.059,453.786,368.12,453.931L368.12,453.931z M358.939,465.892
		c0.005,0.156,0.134,0.28,0.291,0.279c0.154-0.011,0.275-0.137,0.278-0.291c-0.003-0.157-0.132-0.281-0.288-0.279
		c-0.001,0-0.002,0-0.003,0c-0.152-0.002-0.277,0.119-0.279,0.27C358.938,465.879,358.938,465.885,358.939,465.892L358.939,465.892z
		 M358.848,458.999c0.006,0.159,0.134,0.286,0.293,0.292c0.156-0.003,0.281-0.132,0.279-0.288c0-0.001,0-0.002,0-0.003
		c0.004-0.151-0.116-0.277-0.267-0.28c-0.003,0-0.007,0-0.01,0c-0.157-0.005-0.288,0.118-0.293,0.275
		C358.848,458.996,358.848,458.998,358.848,458.999L358.848,458.999z M383.322,455.917c0.107,0.109,0.282,0.111,0.392,0.005
		c0.002-0.002,0.004-0.004,0.007-0.007c0.113-0.106,0.118-0.283,0.012-0.396c-0.005-0.005-0.01-0.011-0.016-0.016
		c-0.118-0.105-0.298-0.095-0.403,0.023C383.213,455.639,383.217,455.81,383.322,455.917L383.322,455.917z M361.609,456.784
		c0.079,0.117,0.238,0.149,0.355,0.07l0,0c0.112-0.065,0.151-0.208,0.086-0.321c-0.004-0.007-0.009-0.014-0.014-0.021
		c-0.064-0.117-0.21-0.159-0.326-0.096c-0.006,0.003-0.012,0.007-0.018,0.011c-0.12,0.069-0.162,0.222-0.093,0.342
		C361.603,456.774,361.606,456.779,361.609,456.784L361.609,456.784z"/>
	<path id="texture-4" style="opacity:0.66;fill:#FFFFFF;enable-background:new    ;" d="M401.214,454.027
		c0.097,0.042,0.21-0.004,0.252-0.101c0.042-0.097-0.004-0.21-0.101-0.252s-0.21,0.004-0.252,0.101c0,0,0,0,0,0
		C401.071,453.872,401.116,453.985,401.214,454.027C401.214,454.027,401.214,454.027,401.214,454.027z M403.019,449.7
		c0.102,0.039,0.216-0.005,0.265-0.103c0.036-0.1-0.014-0.212-0.114-0.25c-0.089-0.045-0.198-0.008-0.243,0.081
		c-0.003,0.007-0.006,0.013-0.009,0.02C402.876,449.546,402.921,449.658,403.019,449.7C403.019,449.7,403.019,449.7,403.019,449.7z
		 M420.862,453.977c0.04,0.101,0.153,0.151,0.254,0.111c0,0,0,0,0,0c0.093-0.034,0.142-0.136,0.108-0.23
		c-0.003-0.008-0.006-0.016-0.01-0.023c-0.036-0.097-0.144-0.148-0.241-0.113C420.872,453.762,420.822,453.876,420.862,453.977
		C420.862,453.977,420.862,453.977,420.862,453.977L420.862,453.977z M410.91,453.362c0.007,0.107,0.093,0.192,0.2,0.198
		c0.11-0.001,0.199-0.09,0.198-0.2c-0.001-0.11-0.09-0.199-0.2-0.198C411.001,453.169,410.916,453.255,410.91,453.362
		L410.91,453.362z M410.925,448.672c0.004,0.106,0.092,0.189,0.198,0.185c0,0,0,0,0,0c0.102,0.008,0.191-0.069,0.199-0.171
		c0-0.005,0.001-0.011,0.001-0.016c-0.003-0.109-0.091-0.196-0.2-0.198C411.016,448.479,410.931,448.565,410.925,448.672
		L410.925,448.672z M375.651,455.187c0.13,0.153,0.359,0.172,0.513,0.043c0.003-0.003,0.007-0.006,0.01-0.009
		c0.151-0.13,0.167-0.357,0.038-0.507c-0.001-0.001-0.001-0.002-0.002-0.002c-0.13-0.153-0.359-0.172-0.513-0.043
		c-0.003,0.003-0.007,0.006-0.01,0.009c-0.151,0.13-0.168,0.357-0.038,0.507C375.649,455.186,375.65,455.187,375.651,455.187
		L375.651,455.187z M402.347,477.469c-0.01,0.203,0.144,0.376,0.346,0.39c0.194,0.021,0.369-0.119,0.391-0.313
		c0.001-0.007,0.001-0.013,0.002-0.02c0.01-0.203-0.144-0.376-0.346-0.39C402.539,477.12,402.363,477.268,402.347,477.469
		C402.347,477.469,402.347,477.469,402.347,477.469L402.347,477.469z M402.966,468.605c-0.009,0.204,0.148,0.376,0.352,0.385
		c0.199,0.009,0.37-0.142,0.385-0.341c0.016-0.2-0.133-0.376-0.333-0.392c0,0,0,0,0,0
		C403.165,468.25,402.989,468.402,402.966,468.605L402.966,468.605z M403.597,459.726c-0.016,0.2,0.134,0.374,0.333,0.39
		c0.004,0,0.009,0.001,0.013,0.001c0.194,0.021,0.369-0.119,0.391-0.313c0.001-0.007,0.001-0.013,0.002-0.02
		c0.007-0.205-0.145-0.38-0.348-0.403C403.784,459.37,403.61,459.524,403.597,459.726L403.597,459.726z M404.216,450.862
		c-0.011,0.203,0.145,0.377,0.348,0.389c0.202,0.011,0.375-0.143,0.389-0.345c0.016-0.2-0.132-0.376-0.333-0.392c0,0,0,0-0.001,0
		c-0.203-0.019-0.383,0.13-0.402,0.333C404.216,450.852,404.216,450.857,404.216,450.862L404.216,450.862z M385.446,468.772
		c0.183,0.084,0.4,0.004,0.484-0.179s0.004-0.4-0.179-0.484c-0.179-0.082-0.392-0.007-0.479,0.169
		C385.186,468.463,385.263,468.682,385.446,468.772L385.446,468.772z M389.417,460.812c0.183,0.084,0.4,0.004,0.484-0.179
		c0.084-0.183,0.004-0.4-0.179-0.484c-0.179-0.082-0.392-0.007-0.479,0.17C389.157,460.503,389.235,460.722,389.417,460.812
		L389.417,460.812z M393.391,452.865c0.187,0.087,0.41,0.006,0.497-0.181c0.084-0.181,0.012-0.396-0.165-0.489
		c-0.183-0.096-0.409-0.026-0.505,0.156c-0.096,0.183-0.026,0.409,0.156,0.505C393.379,452.86,393.385,452.862,393.391,452.865z
		 M419.187,471.234c0.068,0.191,0.277,0.292,0.47,0.227c0.189-0.061,0.292-0.264,0.23-0.453c0-0.001-0.001-0.003-0.001-0.004
		c-0.05-0.188-0.243-0.3-0.431-0.25c-0.009,0.002-0.018,0.005-0.027,0.008C419.237,470.834,419.133,471.038,419.187,471.234
		L419.187,471.234z M416.372,462.792c0.071,0.19,0.276,0.294,0.471,0.24c0.191-0.068,0.292-0.277,0.227-0.47
		c-0.065-0.191-0.272-0.294-0.463-0.229c-0.002,0.001-0.004,0.001-0.006,0.002c-0.189,0.061-0.292,0.264-0.23,0.452
		C416.371,462.79,416.371,462.791,416.372,462.792L416.372,462.792z M413.558,454.363c0.057,0.186,0.254,0.291,0.44,0.234
		c0.006-0.002,0.011-0.004,0.017-0.005c0.193-0.057,0.303-0.26,0.246-0.454c-0.002-0.006-0.004-0.012-0.006-0.018
		c-0.066-0.193-0.276-0.295-0.469-0.229c-0.193,0.066-0.295,0.276-0.229,0.469C413.558,454.362,413.558,454.363,413.558,454.363
		L413.558,454.363z M377.747,464.672c0.153,0.095,0.354,0.049,0.451-0.102c0.097-0.152,0.052-0.354-0.1-0.451
		s-0.354-0.052-0.451,0.1c-0.001,0.001-0.001,0.002-0.002,0.003C377.551,464.374,377.596,464.574,377.747,464.672L377.747,464.672z
		 M381.955,457.94c0.153,0.094,0.353,0.049,0.451-0.102c0.101-0.15,0.061-0.353-0.088-0.454c-0.15-0.101-0.353-0.061-0.454,0.088
		c-0.004,0.006-0.007,0.011-0.011,0.017c-0.097,0.147-0.057,0.346,0.09,0.443C381.947,457.936,381.951,457.938,381.955,457.94
		L381.955,457.94z M386.029,451.015c0.013,0.081,0.062,0.153,0.133,0.194c0.153,0.094,0.353,0.049,0.451-0.102
		c0.1-0.155,0.054-0.362-0.101-0.462c-0.001-0.001-0.002-0.001-0.003-0.002c-0.093-0.059-0.208-0.068-0.309-0.024l-0.013,0.002
		c-0.058,0.023-0.104,0.067-0.129,0.124C386.003,450.825,385.992,450.926,386.029,451.015L386.029,451.015z M410.552,469.972
		c0.048,0.178,0.226,0.287,0.406,0.249c0.171-0.038,0.279-0.207,0.241-0.378c-0.001-0.005-0.002-0.009-0.003-0.014
		c-0.037-0.177-0.211-0.29-0.387-0.252c-0.002,0-0.004,0.001-0.006,0.001C410.63,469.624,410.52,469.796,410.552,469.972
		L410.552,469.972z M408.78,462.249c0.043,0.173,0.218,0.279,0.391,0.238c0.171-0.038,0.279-0.207,0.241-0.378
		c-0.001-0.005-0.002-0.009-0.003-0.014c-0.037-0.177-0.211-0.29-0.387-0.252c-0.002,0-0.004,0.001-0.006,0.001
		C408.841,461.894,408.736,462.073,408.78,462.249L408.78,462.249z M406.99,454.502c0.037,0.177,0.211,0.29,0.387,0.252
		c0.002,0,0.004-0.001,0.006-0.001c0.168-0.032,0.277-0.194,0.245-0.361c-0.002-0.01-0.004-0.02-0.007-0.03
		c-0.037-0.177-0.211-0.29-0.388-0.252c-0.002,0-0.004,0.001-0.006,0.001C407.057,454.157,406.953,454.329,406.99,454.502
		L406.99,454.502z M393.531,466.352c-0.024,0.179,0.099,0.345,0.277,0.373c0.177,0.03,0.344-0.088,0.375-0.264
		c0.027-0.179-0.089-0.349-0.266-0.388C393.734,466.045,393.562,466.169,393.531,466.352L393.531,466.352z M394.85,458.52
		c-0.035,0.17,0.075,0.337,0.245,0.372c0.006,0.001,0.013,0.002,0.019,0.003c0.177,0.03,0.344-0.088,0.375-0.264
		c0.027-0.179-0.089-0.349-0.266-0.388C395.044,458.218,394.879,458.341,394.85,458.52L394.85,458.52z M396.157,450.689
		c-0.031,0.177,0.088,0.345,0.264,0.375c0.177,0.031,0.345-0.088,0.375-0.264s-0.088-0.345-0.264-0.375
		C396.356,450.394,396.188,450.513,396.157,450.689L396.157,450.689z M423.251,460.008c0.096,0.142,0.29,0.179,0.432,0.083
		c0.006-0.004,0.011-0.008,0.016-0.012c0.15-0.101,0.189-0.304,0.089-0.453c-0.002-0.003-0.004-0.006-0.007-0.01
		c-0.111-0.143-0.314-0.173-0.461-0.069c-0.146,0.102-0.181,0.304-0.078,0.449C423.245,460,423.247,460.004,423.251,460.008
		L423.251,460.008z M418.637,453.541c0.107,0.148,0.312,0.184,0.463,0.082c0.147-0.111,0.176-0.319,0.066-0.466
		c-0.105-0.139-0.3-0.174-0.446-0.079c-0.149,0.098-0.191,0.298-0.093,0.447C418.629,453.53,418.633,453.536,418.637,453.541z
		 M396.666,451.774c0.004,0.106,0.092,0.189,0.198,0.185c0.106-0.004,0.189-0.092,0.185-0.198c-0.004-0.106-0.092-0.189-0.198-0.185
		C396.745,451.579,396.662,451.668,396.666,451.774C396.666,451.774,396.666,451.774,396.666,451.774L396.666,451.774z
		 M396.496,447.096c0.01,0.108,0.103,0.189,0.211,0.183c0.106-0.004,0.189-0.092,0.185-0.198c0,0,0,0,0,0
		c0.001-0.102-0.082-0.185-0.184-0.186c-0.005,0-0.01,0-0.015,0.001c-0.109-0.001-0.197,0.087-0.198,0.195
		C396.496,447.093,396.496,447.095,396.496,447.096L396.496,447.096z M396.978,453.457c0.019,0.112,0.125,0.188,0.237,0.169
		c0.008-0.001,0.017-0.003,0.025-0.006c0.117-0.028,0.189-0.145,0.163-0.262c-0.031-0.116-0.144-0.191-0.263-0.176
		c-0.12,0.031-0.192,0.153-0.162,0.273C396.978,453.456,396.978,453.457,396.978,453.457L396.978,453.457z M395.818,448.239
		c0.031,0.12,0.153,0.192,0.273,0.162c0.001,0,0.001,0,0.002,0c0.117-0.028,0.189-0.145,0.163-0.262
		c-0.031-0.116-0.144-0.191-0.263-0.176C395.872,447.997,395.797,448.116,395.818,448.239L395.818,448.239z M386.029,451.015
		c0.026,0.019,0.055,0.033,0.085,0.041c0.118,0.022,0.231-0.056,0.253-0.174c0-0.003,0.001-0.005,0.001-0.008
		c0.019-0.116-0.054-0.227-0.168-0.256l-0.013,0.002c-0.118-0.022-0.231,0.056-0.253,0.174c0,0.003-0.001,0.005-0.001,0.008
		C385.917,450.887,385.955,450.972,386.029,451.015L386.029,451.015z M379.014,464.045c-0.034,0.206,0.106,0.401,0.313,0.435
		s0.401-0.106,0.435-0.313s-0.106-0.401-0.312-0.435C379.243,463.699,379.049,463.839,379.014,464.045L379.014,464.045z
		 M380.431,454.991c-0.027,0.209,0.118,0.401,0.326,0.433c0.207,0.026,0.395-0.121,0.421-0.327c0.026-0.207-0.121-0.395-0.327-0.421
		C380.648,454.651,380.463,454.79,380.431,454.991z M415.163,464.327c0.13,0.167,0.368,0.204,0.543,0.084
		c0.167-0.13,0.196-0.371,0.066-0.537c-0.126-0.161-0.356-0.195-0.522-0.077C415.083,463.923,415.045,464.156,415.163,464.327
		L415.163,464.327z M409.768,456.92c0.125,0.166,0.359,0.204,0.53,0.086c0.17-0.122,0.209-0.359,0.087-0.53
		c-0.122-0.17-0.359-0.209-0.53-0.087c0,0-0.001,0.001-0.001,0.001C409.687,456.514,409.649,456.749,409.768,456.92L409.768,456.92z
		 M404.374,449.512c0.124,0.168,0.359,0.206,0.53,0.086c0.167-0.13,0.204-0.368,0.084-0.543c-0.13-0.167-0.371-0.196-0.537-0.066
		C404.289,449.115,404.256,449.345,404.374,449.512L404.374,449.512z M395.609,468.415c0.059,0.199,0.26,0.321,0.464,0.281
		c0.2-0.056,0.319-0.261,0.268-0.462c-0.044-0.201-0.242-0.328-0.444-0.285c-0.002,0.001-0.005,0.001-0.007,0.002
		C395.684,468.001,395.559,468.208,395.609,468.415C395.609,468.414,395.609,468.415,395.609,468.415L395.609,468.415z
		 M393.458,459.496c0.05,0.206,0.257,0.331,0.463,0.281c0,0,0.001,0,0.001,0c0.198-0.049,0.319-0.25,0.27-0.449c0,0,0,0,0,0
		c-0.046-0.203-0.248-0.329-0.451-0.283C393.538,459.091,393.412,459.293,393.458,459.496L393.458,459.496z M391.309,450.59
		c0.044,0.201,0.242,0.328,0.443,0.285c0.002-0.001,0.005-0.001,0.007-0.002c0.207-0.044,0.339-0.247,0.296-0.454
		s-0.247-0.339-0.454-0.296c-0.207,0.044-0.339,0.247-0.296,0.454C391.307,450.581,391.308,450.586,391.309,450.59z
		 M390.054,471.362c0.046,0.202,0.248,0.329,0.45,0.283s0.329-0.248,0.283-0.45c-0.045-0.197-0.238-0.323-0.436-0.285
		C390.143,470.952,390.011,471.155,390.054,471.362L390.054,471.362z M388.283,462.403c0.043,0.207,0.246,0.339,0.453,0.296
		c0.2-0.045,0.33-0.238,0.298-0.44c-0.047-0.206-0.245-0.341-0.454-0.309C388.375,461.999,388.245,462.198,388.283,462.403
		L388.283,462.403z M386.512,453.445c0.043,0.207,0.246,0.339,0.453,0.296c0.204-0.039,0.337-0.236,0.298-0.44
		s-0.236-0.337-0.44-0.298C386.618,453.044,386.481,453.239,386.512,453.445L386.512,453.445z M372.851,457.315
		c-0.039,0.202,0.094,0.397,0.296,0.436c0.001,0,0.002,0,0.003,0.001c0.204,0.044,0.406-0.085,0.451-0.288
		c0.038-0.207-0.095-0.407-0.301-0.45C373.094,456.978,372.896,457.11,372.851,457.315L372.851,457.315z M405.45,460.067
		c0.12,0.173,0.357,0.217,0.532,0.099c0.171-0.116,0.216-0.347,0.101-0.519c-0.106-0.174-0.333-0.229-0.507-0.123
		c-0.005,0.003-0.009,0.006-0.014,0.009c-0.177,0.112-0.231,0.346-0.119,0.523C405.445,460.061,405.447,460.064,405.45,460.067
		L405.45,460.067z M400.387,452.468c0.12,0.173,0.357,0.217,0.532,0.099c0.171-0.116,0.216-0.347,0.101-0.519
		c-0.106-0.174-0.333-0.229-0.507-0.123c-0.005,0.003-0.009,0.006-0.014,0.009c-0.177,0.112-0.23,0.346-0.119,0.523
		C400.383,452.461,400.385,452.464,400.387,452.468L400.387,452.468z M390.249,455.597c0.063,0.145,0.231,0.211,0.376,0.148
		c0.141-0.061,0.208-0.224,0.152-0.367c-0.053-0.141-0.211-0.212-0.352-0.159c-0.009,0.003-0.018,0.007-0.027,0.012
		C390.258,455.294,390.192,455.455,390.249,455.597L390.249,455.597z M375.652,454.908c0.005,0.156,0.134,0.28,0.291,0.279
		c0.154-0.011,0.275-0.137,0.278-0.291c-0.003-0.157-0.132-0.281-0.288-0.279c-0.001,0-0.002,0-0.003,0
		c-0.152-0.002-0.277,0.119-0.279,0.27C375.651,454.895,375.651,454.901,375.652,454.908L375.652,454.908z"/>
	
		<linearGradient id="L_sleeve_1_" gradientUnits="userSpaceOnUse" x1="409.6104" y1="371.6768" x2="425.4174" y2="309.9304" gradientTransform="matrix(1 0 0 -1 0 722)">
		<stop  offset="0.1291" style="stop-color:#428DFC"/>
		<stop  offset="0.9987" style="stop-color:#1D72D8"/>
	</linearGradient>
	<path id="L_sleeve" style="fill:url(#L_sleeve_1_);" d="M466.66,411.26c0,0-3.28,6.79-14.75,7.26s-14.05,2.34-22.48,7.73
		s-24.35,7.49-40.28-17.33c-14.62-22.8-19.57-47.96-17-61.35c3.901,1.433,7.906,2.566,11.98,3.39c1.32,0.27,2.55,0.48,3.71,0.64
		c2.11,0.31,6.309,0.522,7.809,0.612c2.71,8.96,5.87,42.809,26.184,38.769c12.728-2.467,25.055-6.674,36.636-12.502L466.66,411.26z"
		/>
	
		<linearGradient id="sweater_1_" gradientUnits="userSpaceOnUse" x1="344.5665" y1="346.4315" x2="370.794" y2="260.1469" gradientTransform="matrix(1 0 0 -1 0 722)">
		<stop  offset="0.1291" style="stop-color:#428DFC"/>
		<stop  offset="0.9987" style="stop-color:#1D72D8"/>
	</linearGradient>
	<path id="sweater" style="fill:url(#sweater_1_);" d="M397.69,445.86c-9.85,4.36-23.73,7.91-43.17,8.7
		c-4.56,0.19-9.437,0.213-14.63,0.07c-15.89-18.55-3.77-38.53,0.77-51.34c4.53-12.82,0.18-13.27,8.77-35.13
		c0.946-2.246,2.038-4.427,3.27-6.53c1.43,20.64,9.53,43.8,20.78,63.48C380.47,437.34,388.47,443.76,397.69,445.86z"/>
	<path id="R_sleeve" style="fill:#428DFC;" d="M471.21,420.12c0,0-3.71,10.81-22.17,13.73c-18.46,2.93-21.95,8.34-31.03,10.85
		c-7.36,2.04-14.12,2.58-20.32,1.16c-9.22-2.1-17.22-8.52-24.21-20.75c-11.25-19.68-19.35-42.84-20.78-63.48
		c2.279-4.039,4.835-7.915,7.65-11.6c3.01-3.7,5.49-6.47,7.51-8.56c2.7-1.31,23.488-4.898,26.768-4.378
		c0,0-1.361,30.591,13.399,50.131c1.6,2.11-1.218-1.803,0,0c5.775,8.548,11.04,9.703,15.94,9.703c5.7,0,25.413-5.285,36.033-14.825
		L471.21,420.12z"/>
	<path id="face" style="fill:#FFBEB6;" d="M386.407,329.974c4.312,3.703,14.09,9.905,19.978,7.52
		c7.047-2.86,9.013-8.673,10.315-8.461c1.298,0.22,4.19,0.015,4.552-1.346c0.365-1.349-2.209-6.108-1.531-11.196
		c0.062-0.473,0.115-0.931,0.141-1.383l-0.003-0.013c0.019-0.107,0.03-0.216,0.033-0.325c0.006-0.052,0.006-0.104,0.001-0.156
		c-0.002-0.018-0.001-0.036,0.002-0.055c-0.001-0.067,0.004-0.143,0.008-0.218c0.007-0.543,0.007-1.347-0.074-2.305
		c-0.033-0.446-0.083-0.936-0.158-1.455c-0.077-0.584-0.203-1.205-0.353-1.839c-0.011-0.046-0.021-0.091-0.032-0.136
		c-0.038-0.158-0.068-0.31-0.111-0.47c-0.073-0.282-0.159-0.562-0.253-0.846c-0.067-0.223-0.147-0.442-0.233-0.654
		c-0.035-0.101-0.077-0.207-0.12-0.313c-0.075-0.194-0.157-0.393-0.245-0.584c-0.014-0.043-0.032-0.084-0.053-0.124
		c-0.005,0.008-0.002,0.021-0.013,0.036c-0.106,0.404-0.247,0.798-0.421,1.178c-0.048,0.125-0.114,0.261-0.18,0.397
		c-0.251,0.504-0.545,0.985-0.88,1.437c-0.051,0.078-0.11,0.152-0.174,0.233c-0.059,0.073-0.123,0.154-0.187,0.236
		c-0.128,0.162-0.269,0.327-0.418,0.487c-0.015,0.023-0.033,0.034-0.049,0.058c-0.212,0.241-0.437,0.472-0.673,0.69
		c-0.082,0.092-0.175,0.165-0.265,0.252c-0.004,0.006-0.011,0.009-0.018,0.011c-0.175,0.165-0.37,0.328-0.574,0.486l-0.01,0.016
		c-0.098,0.082-0.203,0.158-0.309,0.234c-0.462,0.359-0.946,0.689-1.449,0.989c-0.173,0.111-0.361,0.211-0.555,0.32
		c-0.09,0.053-0.175,0.098-0.274,0.146c-0.09,0.053-0.186,0.114-0.284,0.161c-0.052,0.028-0.105,0.053-0.16,0.074
		c-0.144,0.085-0.3,0.151-0.46,0.225s-0.32,0.149-0.488,0.218c-0.16,0.074-0.32,0.149-0.496,0.213
		c-0.442,0.181-0.908,0.347-1.394,0.511c-0.272,0.091-0.551,0.177-0.836,0.271c-1.083,0.316-2.183,0.573-3.294,0.77l-0.723,0.132
		c-2.217,0.383-4.377,1.039-6.433,1.953c-0.302,0.172-0.609,0.352-0.929,0.534c-0.868,0.503-1.695,1.073-2.474,1.706
		C390.539,322.371,387.978,325.942,386.407,329.974z"/>
	<path id="eye" style="fill:#1C2868;" d="M422.138,317.764c-0.988,1.487-2.995,1.891-4.482,0.902
		c-0.538-0.358-0.957-0.869-1.202-1.467c-0.19-0.454,0.484-0.835,0.676-0.375c0.467,1.277,1.88,1.933,3.157,1.467
		c0.481-0.176,0.896-0.498,1.186-0.921C421.759,316.966,422.427,317.357,422.138,317.764L422.138,317.764z"/>
	<path id="hair" style="fill:#E94A47;" d="M399.81,287.32c-2.423-0.709-4.952-0.98-7.47-0.8h-0.1
		c-9.199,0.301-16.193,5.473-20.571,12.86c-2.491,3.788-4.331,7.966-5.442,12.362c-2.269,7.953-4.553,23.095-15.486,22.699
		c-0.483-0.017-0.482,0.733,0,0.75c6.984,0.253,10.556-5.812,12.792-11.651c1.474-3.849,2.428-7.876,3.567-11.804
		c-0.307,1.641-0.517,3.298-0.63,4.963c-1.23,17.78-14.12,20.76-14.12,20.76c6.103,4.085,12.661,7.448,19.54,10.02
		c3.983,1.476,8.076,2.64,12.24,3.48c1.32,0.27,2.55,0.48,3.71,0.64c3.369,0.562,6.789,0.76,10.2,0.59
		c5.509-7.29,3.471-14.703,1.154-20.877c3.466,6.659,5.276,12.814,1.64,20.25c-0.211,0.432,0.435,0.813,0.648,0.379
		c2.187-4.191,2.804-9.025,1.741-13.631c-1.529-6.272-7.242-11.327-6.773-17.814c0.455-1.727,1.969-2.977,5.281-3.607
		c0.15-0.03,0.3-0.05,0.46-0.08c16.42-2.71,16.08-11.19,16.08-11.21c1.249,3.007,1.793,6.26,1.59,9.51
		C426.09,299.09,412.01,290.85,399.81,287.32z"/>
</g>
</svg>
