<?xml version="1.0" encoding="utf-8"?>
<!-- Generator: Adobe Illustrator 23.0.2, SVG Export Plug-In . SVG Version: 6.00 Build 0)  -->
<svg version="1.1" id="Layer_1" xmlns="http://www.w3.org/2000/svg" xmlns:xlink="http://www.w3.org/1999/xlink" x="0px" y="0px" viewBox="0 0 900 600" style="enable-background:new 0 0 900 600;" xml:space="preserve">

<g id="illustration">
	<g id="table">
		
			<linearGradient id="lamp_3_1_" gradientUnits="userSpaceOnUse" x1="685.982" y1="320.5876" x2="684.8497" y2="350.5947" gradientTransform="matrix(1 0 0 -1 0 602)">
			<stop offset="0" style="stop-color:#A1C3FC"/>
			<stop offset="0.6955" style="stop-color:#81AEF2"/>
			<stop offset="1" style="stop-color:#78A9EF"/>
		</linearGradient>
		<rect id="lamp_3" x="681.4" y="266.7" width="8.9" height="20.5" style="fill:url(#lamp_3_1_);"/>
		
			<linearGradient id="lamp_1_1_" gradientUnits="userSpaceOnUse" x1="680.9709" y1="441.8309" x2="576.5676" y2="525.4069" gradientTransform="matrix(1 0 0 -1 0 602)">
			<stop offset="0" style="stop-color:#A1C3FC"/>
			<stop offset="0.6955" style="stop-color:#81AEF2"/>
			<stop offset="1" style="stop-color:#78A9EF"/>
		</linearGradient>
		<polygon id="lamp_1" points="710,178.8 704.3,186.2 595.8,96 610.1,96 		" style="fill:url(#lamp_1_1_);"/>
		
			<linearGradient id="lamp_2_1_" gradientUnits="userSpaceOnUse" x1="690.4478" y1="355.9234" x2="713.9439" y2="437.7353" gradientTransform="matrix(1 0 0 -1 0 602)">
			<stop offset="0" style="stop-color:#A1C3FC"/>
			<stop offset="0.6955" style="stop-color:#81AEF2"/>
			<stop offset="1" style="stop-color:#78A9EF"/>
		</linearGradient>
		<polygon id="lamp_2" points="690.3,262.8 681.4,262.8 703.4,184.8 712.3,184.8 		" style="fill:url(#lamp_2_1_);"/>
		
			<linearGradient id="lamp_bulb_1_" gradientUnits="userSpaceOnUse" x1="581.1442" y1="461.3409" x2="585.6458" y2="519.8616" gradientTransform="matrix(1 0 0 -1 0 602)">
			<stop offset="8.983001e-02" style="stop-color:#EEEEEE"/>
			<stop offset="0.8178" style="stop-color:#D6D7D8"/>
		</linearGradient>
		<path id="lamp_bulb" d="M559,96c0,0.1,0,0.1,0,0.2c0,14.1,11.5,25.5,25.6,25.5c14.1,0,25.5-11.4,25.5-25.5
			c0-0.1,0-0.1,0-0.2H559z" style="fill:url(#lamp_bulb_1_);"/>
		<polygon id="laptop" points="646,296.7 489.6,296.7 489.5,291.9 645.9,291.9 		" style="fill:#23286B;"/>
		
			<linearGradient id="wheel_3_1_" gradientUnits="userSpaceOnUse" x1="366.8879" y1="99.501" x2="348.3636" y2="73.2387" gradientTransform="matrix(1 0 0 -1 0 602)">
			<stop offset="8.983001e-02" style="stop-color:#EEEEEE"/>
			<stop offset="0.8178" style="stop-color:#D6D7D8"/>
		</linearGradient>
		<circle id="wheel_3" cx="361.7" cy="509.8" r="10.4" style="fill:url(#wheel_3_1_);"/>
		
			<linearGradient id="M_monitor_base_1_" gradientUnits="userSpaceOnUse" x1="407.6139" y1="353.0958" x2="406.9686" y2="306.6364" gradientTransform="matrix(1 0 0 -1 0 602)">
			<stop offset="0.1291" style="stop-color:#428DFC"/>
			<stop offset="0.9987" style="stop-color:#1D72D8"/>
		</linearGradient>
		<rect id="M_monitor_base" x="390.9" y="262.1" width="32.7" height="30.3" style="fill:url(#M_monitor_base_1_);"/>
		<rect id="M_monitor_base-2" x="368.2" y="292" width="80.8" height="4.8" style="fill:#428DFC;"/>
		
			<linearGradient id="L_monitor_base_1_" gradientUnits="userSpaceOnUse" x1="236.4942" y1="327.244" x2="233.7048" y2="305.9054" gradientTransform="matrix(1 0 0 -1 0 602)">
			<stop offset="0.1291" style="stop-color:#428DFC"/>
			<stop offset="0.9987" style="stop-color:#1D72D8"/>
		</linearGradient>
		<rect id="L_monitor_base" x="221.6" y="279" width="26.9" height="13.5" style="fill:url(#L_monitor_base_1_);"/>
		<rect id="L_monitor_base-2" x="203.8" y="292.5" width="63.5" height="4.3" style="fill:#428DFC;"/>
		
			<linearGradient id="chair_seat_1_" gradientUnits="userSpaceOnUse" x1="411.1169" y1="237.6446" x2="336.6707" y2="229.6682" gradientTransform="matrix(1 0 0 -1 0 602)">
			<stop offset="0.14" style="stop-color:#E94A47"/>
			<stop offset="1" style="stop-color:#C63030"/>
		</linearGradient>
		<rect id="chair_seat" x="265.5" y="360" width="136.9" height="25.3" style="fill:url(#chair_seat_1_);"/>
		
			<linearGradient id="chair_bottom_1_1_" gradientUnits="userSpaceOnUse" x1="332.4684" y1="202.7311" x2="335.0151" y2="229.048" gradientTransform="matrix(1 0 0 -1 0 602)">
			<stop offset="0" style="stop-color:#23286B"/>
			<stop offset="1" style="stop-color:#151A4F"/>
		</linearGradient>
		<path id="chair_bottom_1" d="M309,385.3h49.7l0,0l0,0c0,4.4-3.6,7.9-7.9,7.9h-33.8C312.5,393.2,309,389.7,309,385.3
			L309,385.3L309,385.3z" style="fill:url(#chair_bottom_1_1_);"/>
		
			<linearGradient id="chair_bottom_2_1_" gradientUnits="userSpaceOnUse" x1="291.9886" y1="221.321" x2="342.0756" y2="193.0941" gradientTransform="matrix(1 0 0 -1 0 602)">
			<stop offset="0" style="stop-color:#23286B"/>
			<stop offset="1" style="stop-color:#151A4F"/>
		</linearGradient>
		<rect id="chair_bottom_2" x="327.7" y="393.1" width="12.2" height="22.3" style="fill:url(#chair_bottom_2_1_);"/>
		
			<linearGradient id="chair_bottom_3_1_" gradientUnits="userSpaceOnUse" x1="334.1662" y1="160.9164" x2="332.0782" y2="89.0873" gradientTransform="matrix(1 0 0 -1 0 602)">
			<stop offset="0" style="stop-color:#23286B"/>
			<stop offset="1" style="stop-color:#151A4F"/>
		</linearGradient>
		<path id="chair_bottom_3" d="M332.5,413h2.7c4.4,0,8,3.6,8,8v65.2l0,0h-18.7l0,0V421C324.4,416.6,328,413,332.5,413z
			" style="fill:url(#chair_bottom_3_1_);"/>
		
			<linearGradient id="leg_4_1_" gradientUnits="userSpaceOnUse" x1="365.8358" y1="111.6415" x2="330.9653" y2="121.8729" gradientTransform="matrix(1 0 0 -1 0 602)">
			<stop offset="0" style="stop-color:#23286B"/>
			<stop offset="1" style="stop-color:#151A4F"/>
		</linearGradient>
		<path id="leg_4" d="M333.9,486.2l46,0c5.7,0,10.2,4.6,10.2,10.2v3.3h-3.3v-0.7l0-1.4c0-4.5-3.6-8.1-8.1-8.1
			c0,0,0,0,0,0l-44.8,0L333.9,486.2z" style="fill:url(#leg_4_1_);"/>
		<path id="leg_3" d="M333.9,486.2l19.4,0c5.7,0,10.2,4.6,10.2,10.2v3.3h-3.3v-0.7l0-1.4c0-4.5-3.6-8.1-8.1-8.1
			c0,0,0,0,0,0l-18.2,0V486.2z" style="fill:#23286B;"/>
		
			<linearGradient id="leg_1_1_" gradientUnits="userSpaceOnUse" x1="273.8864" y1="137.9773" x2="301.8663" y2="112.7119" gradientTransform="matrix(1 0 0 -1 0 602)">
			<stop offset="0" style="stop-color:#23286B"/>
			<stop offset="1" style="stop-color:#151A4F"/>
		</linearGradient>
		<path id="leg_1" d="M334.1,486.2l-46,0c-5.7,0-10.2,4.6-10.2,10.2v3.3h3.3v-0.7l0-1.4c0-4.5,3.6-8.1,8.1-8.1
			c0,0,0,0,0,0l44.8,0L334.1,486.2z" style="fill:url(#leg_1_1_);"/>
		<path id="leg_2" d="M334.1,486.2l-19.4,0c-5.7,0-10.2,4.6-10.2,10.2v3.3h3.3v-0.7l0-1.4c0-4.5,3.6-8.1,8.1-8.1
			c0,0,0,0,0,0l18.2,0V486.2z" style="fill:#23286B;"/>
		
			<linearGradient id="wheel_2_1_" gradientUnits="userSpaceOnUse" x1="312.5071" y1="97.3393" x2="280.1482" y2="71.3115" gradientTransform="matrix(1 0 0 -1 0 602)">
			<stop offset="8.983001e-02" style="stop-color:#EEEEEE"/>
			<stop offset="0.8178" style="stop-color:#D6D7D8"/>
		</linearGradient>
		<circle id="wheel_2" cx="306.1" cy="509.8" r="10.4" style="fill:url(#wheel_2_1_);"/>
		
			<linearGradient id="wheel_4_1_" gradientUnits="userSpaceOnUse" x1="396.9189" y1="101.1705" x2="372.0635" y2="74.6736" gradientTransform="matrix(1 0 0 -1 0 602)">
			<stop offset="8.983001e-02" style="stop-color:#EEEEEE"/>
			<stop offset="0.8178" style="stop-color:#D6D7D8"/>
		</linearGradient>
		<circle id="wheel_4" cx="388.5" cy="509.8" r="10.4" style="fill:url(#wheel_4_1_);"/>
		
			<linearGradient id="L_shoe_1_" gradientUnits="userSpaceOnUse" x1="324.0284" y1="120.3115" x2="394.8443" y2="92.9593" gradientTransform="matrix(1 0 0 -1 0 602)">
			<stop offset="0.1291" style="stop-color:#428DFC"/>
			<stop offset="0.9987" style="stop-color:#1D72D8"/>
		</linearGradient>
		<path id="L_shoe" d="M373.3,486.6l-12,33.5l84.8,0c0,0-4.4-8.4-18.9-14.6s-28-18.9-28-18.9L373.3,486.6" style="fill:url(#L_shoe_1_);"/>
		
			<linearGradient id="L_leg_1_" gradientUnits="userSpaceOnUse" x1="256.9962" y1="190.2112" x2="417.4368" y2="208.8788" gradientTransform="matrix(1 0 0 -1 0 602)">
			<stop offset="0" style="stop-color:#23286B"/>
			<stop offset="1" style="stop-color:#151A4F"/>
		</linearGradient>
		<path id="L_leg" d="M313.2,332.4c0,0,11.1,25.6,44.4,29.1s19.8,37.4,16.9,42.7s-6.5,9.9-8.6,18.1s0.9,18.8-2.4,24.8
			s-17.2,26.2-12.9,39.5h48.7c0,0,28.1-110.6,26.2-121.5s1.2-19.7-28.1-33.3s-49-22.1-49-22.1L313.2,332.4z" style="fill:url(#L_leg_1_);"/>
		
			<linearGradient id="wheel_1_1_" gradientUnits="userSpaceOnUse" x1="286.3033" y1="101.6775" x2="266.6066" y2="74.0082" gradientTransform="matrix(1 0 0 -1 0 602)">
			<stop offset="8.983001e-02" style="stop-color:#EEEEEE"/>
			<stop offset="0.8178" style="stop-color:#D6D7D8"/>
		</linearGradient>
		<circle id="wheel_1" cx="279.5" cy="509.8" r="10.4" style="fill:url(#wheel_1_1_);"/>
		
			<linearGradient id="lamp_2-2_1_" gradientUnits="userSpaceOnUse" x1="680.3412" y1="337.8646" x2="691.6569" y2="337.8646" gradientTransform="matrix(1 0 0 -1 0 602)">
			<stop offset="0" style="stop-color:#23286B"/>
			<stop offset="1" style="stop-color:#151A4F"/>
		</linearGradient>
		<circle id="lamp_2-2" cx="686" cy="264.1" r="5.7" style="fill:url(#lamp_2-2_1_);"/>
		
			<linearGradient id="lamp_1-2_1_" gradientUnits="userSpaceOnUse" x1="702.1306" y1="419.1065" x2="713.4462" y2="419.1065" gradientTransform="matrix(1 0 0 -1 0 602)">
			<stop offset="0" style="stop-color:#23286B"/>
			<stop offset="1" style="stop-color:#151A4F"/>
		</linearGradient>
		<circle id="lamp_1-2" cx="707.8" cy="182.9" r="5.7" style="fill:url(#lamp_1-2_1_);"/>
		
			<linearGradient id="table_top_1_" gradientUnits="userSpaceOnUse" x1="130.1459" y1="293.0173" x2="730.872" y2="293.0173" gradientTransform="matrix(1 0 0 -1 0 602)">
			<stop offset="8.983001e-02" style="stop-color:#EEEEEE"/>
			<stop offset="0.8178" style="stop-color:#D6D7D8"/>
		</linearGradient>
		<rect id="table_top" x="130.1" y="296.7" width="600.7" height="24.5" style="fill:url(#table_top_1_);"/>
		<rect id="table_bottom" x="138.5" y="321.1" width="577.8" height="7.8" style="fill:#23286B;"/>
		
			<linearGradient id="L_leg_table_1_" gradientUnits="userSpaceOnUse" x1="138.01" y1="180.18" x2="182.32" y2="180.18" gradientTransform="matrix(1 0 0 -1 0 602)">
			<stop offset="0" style="stop-color:#23286B"/>
			<stop offset="1" style="stop-color:#151A4F"/>
		</linearGradient>
		<polygon id="L_leg_table" points="182.3,329 148,514.7 138,514.7 172.4,329 		" style="fill:url(#L_leg_table_1_);"/>
		
			<linearGradient id="R_leg_table_1_" gradientUnits="userSpaceOnUse" x1="692.0675" y1="190.9904" x2="677.9116" y2="248.3592" gradientTransform="matrix(1 0 0 -1 0 602)">
			<stop offset="0" style="stop-color:#23286B"/>
			<stop offset="1" style="stop-color:#151A4F"/>
		</linearGradient>
		<polygon id="R_leg_table" points="716.9,514.7 706.9,514.7 672.6,329 682.5,329 		" style="fill:url(#R_leg_table_1_);"/>
		
			<linearGradient id="R_monitor_1_" gradientUnits="userSpaceOnUse" x1="628.5544" y1="383.7326" x2="550.7562" y2="254.1734" gradientTransform="matrix(1 0 0 -1 0 602)">
			<stop offset="0" style="stop-color:#23286B"/>
			<stop offset="1" style="stop-color:#151A4F"/>
		</linearGradient>
		<polygon id="R_monitor" points="645.9,291.9 541,291.9 557.4,234.1 662.6,234.1 		" style="fill:url(#R_monitor_1_);"/>
		
			<linearGradient id="M_monitor_1_" gradientUnits="userSpaceOnUse" x1="377.0971" y1="423.139" x2="552.3039" y2="234.8795" gradientTransform="matrix(1 0 0 -1 0 602)">
			<stop offset="0" style="stop-color:#23286B"/>
			<stop offset="1" style="stop-color:#151A4F"/>
		</linearGradient>
		<rect id="M_monitor" x="289.2" y="159.9" width="235.9" height="102.5" style="fill:url(#M_monitor_1_);"/>
		
			<linearGradient id="L_monitor_1_" gradientUnits="userSpaceOnUse" x1="159.7905" y1="404.9813" x2="322.4317" y2="310.2705" gradientTransform="matrix(1 0 0 -1 0 602)">
			<stop offset="0" style="stop-color:#23286B"/>
			<stop offset="1" style="stop-color:#151A4F"/>
		</linearGradient>
		<rect id="L_monitor" x="162" y="202.4" width="147" height="77.5" style="fill:url(#L_monitor_1_);"/>
		
			<linearGradient id="lamp_base_1_" gradientUnits="userSpaceOnUse" x1="650.7585" y1="310.0416" x2="709.0779" y2="310.0416" gradientTransform="matrix(1 0 0 -1 0 602)">
			<stop offset="0" style="stop-color:#23286B"/>
			<stop offset="1" style="stop-color:#151A4F"/>
		</linearGradient>
		<path id="lamp_base" d="M660.3,287.2h39.2c5.3,0,9.6,4.3,9.6,9.6c0,0,0,0,0,0l0,0l0,0h-58.3l0,0l0,0
			C650.8,291.5,655,287.2,660.3,287.2L660.3,287.2L660.3,287.2z" style="fill:url(#lamp_base_1_);"/>
		<g id="text">
			<rect id="_1_l" x="173.8" y="212.8" width="73.4" height="2.8" style="fill:#FFFFFF;"/>
			<rect id="_2_l" x="173.8" y="219.4" width="73.4" height="2.8" style="fill:#FFFFFF;"/>
			<rect id="_3_l" x="173.8" y="226" width="73.4" height="2.8" style="fill:#FFFFFF;"/>
			<rect id="_4_l" x="173.8" y="232.6" width="73.4" height="2.8" style="fill:#FFFFFF;"/>
			<polygon id="_1_r" points="629.3,245.4 561.8,245.2 562.6,242.7 630.1,242.9 			" style="fill:#FFFFFF;"/>
			<polygon id="_2_r" points="627.7,251.1 560.2,251 560.9,248.5 628.4,248.6 			" style="fill:#FFFFFF;"/>
			<polygon id="_3_r" points="626,256.8 558.5,256.7 559.2,254.2 626.7,254.4 			" style="fill:#FFFFFF;"/>
			<polygon id="_4_r" points="624.3,262.7 556.8,262.5 557.5,260 625,260.2 			" style="fill:#FFFFFF;"/>
			<g id="_">
				<path id="_2" d="M373.8,213.6l13.6-14.6l-3.6-3.3L367.6,213c0,0,0,0,0,0l-0.8,0.8l0.9,0.8l17.4,16.1l3.3-3.6
					L373.8,213.6z" style="fill:#FFFFFF;"/>
				<path id="_3" d="M434.6,213.6L421,199l3.6-3.3l16.1,17.4c0,0,0,0,0,0l0.8,0.8l-0.9,0.8l-17.4,16.1l-3.3-3.6
					L434.6,213.6z" style="fill:#FFFFFF;"/>
			</g>
			<polygon id="_4" points="409,189.4 394.9,235.8 399.4,237.1 413.5,190.7 			" style="fill:#FFFFFF;"/>
		</g>
	</g>
	<g id="man">
		<path id="R_shoe" d="M404.3,486.6l-12,33.5l84.8,0c0,0-4.4-8.4-18.9-14.6s-28-18.9-28-18.9L404.3,486.6" style="fill:#428DFC;"/>
		
			<linearGradient id="R_leg_1_" gradientUnits="userSpaceOnUse" x1="409.2125" y1="185.9498" x2="279.5482" y2="279.2879" gradientTransform="matrix(1 0 0 -1 0 602)">
			<stop offset="0" style="stop-color:#23286B"/>
			<stop offset="1" style="stop-color:#151A4F"/>
		</linearGradient>
		<path id="R_leg" d="M322.9,326.5c0,0-3.1,28.7,35.3,34.9s40.1,10.9,40.4,20.7s-2.6,15.6-6.2,25.7s-3.7,24-1.8,32.1
			s-6.5,18.2-10.4,27.7c-2.4,6.1-3.3,12.7-2.6,19.2h52.6c0,0,14.1-94.9,15.1-108.9s5.5-28.3-12.7-37.7s-57.2-26.6-57.2-26.6
			L322.9,326.5z" style="fill:url(#R_leg_1_);"/>
		<path id="texture" d="M352.3,331.8c-0.1,0.1-0.1,0.2,0,0.3s0.2,0.1,0.3,0c0.1-0.1,0.1-0.2,0-0.3c0,0,0,0,0,0
			C352.5,331.7,352.4,331.7,352.3,331.8C352.3,331.8,352.3,331.8,352.3,331.8z M349.2,335.1c-0.1,0.1-0.1,0.2,0,0.3
			c0.1,0.1,0.2,0.1,0.3,0c0.1-0.1,0.1-0.2,0-0.3S349.3,335.1,349.2,335.1L349.2,335.1z M366.6,342.6c-0.1,0-0.2,0.1-0.2,0.2
			c0,0.1,0.1,0.2,0.2,0.2c0.1,0,0.2-0.1,0.2-0.2c0,0,0,0,0,0C366.8,342.6,366.7,342.6,366.6,342.6
			C366.6,342.6,366.6,342.6,366.6,342.6z M362,342.7c-0.1,0-0.2,0.1-0.2,0.2c0,0,0,0,0,0c0,0.1,0.1,0.2,0.2,0.2
			c0.1,0,0.2-0.1,0.2-0.2C362.2,342.8,362.1,342.7,362,342.7C362,342.7,362,342.7,362,342.7z M357.5,342.9c-0.1,0-0.2,0.1-0.2,0.2
			c0,0.1,0.1,0.2,0.2,0.2c0.1,0,0.2-0.1,0.2-0.2c0,0,0,0,0,0C357.7,342.9,357.6,342.9,357.5,342.9z M352.9,343
			c-0.1,0-0.2,0.1-0.2,0.2c0,0,0,0,0,0c0,0.1,0.1,0.2,0.2,0.2c0.1,0,0.2-0.1,0.2-0.2c0,0,0,0,0,0C353.1,343.1,353,343,352.9,343z
			 M359.7,360.5c-0.1,0.1-0.1,0.2,0,0.3c0.1,0.1,0.2,0.1,0.2,0c0,0,0,0,0,0c0.1-0.1,0.1-0.2,0-0.3S359.8,360.5,359.7,360.5z
			 M362,333.9c-0.1,0-0.1,0.2-0.1,0.2s0.2,0.1,0.2,0.1c0.1,0,0.1-0.2,0.1-0.2c0,0,0,0,0,0C362.2,333.9,362.1,333.9,362,333.9
			C362,333.9,362,333.9,362,333.9L362,333.9z M357.8,335.8c-0.1,0-0.1,0.2-0.1,0.2c0,0,0,0.1,0.1,0.1c0.1,0,0.1,0,0.2,0c0,0,0,0,0,0
			l0,0c0.1,0,0.1-0.1,0.1-0.2C358,335.8,357.9,335.7,357.8,335.8C357.8,335.8,357.8,335.8,357.8,335.8L357.8,335.8z M353.7,337.7
			c-0.1,0-0.1,0.1-0.1,0.2s0.1,0.1,0.2,0.1c0,0,0,0,0,0c0.1,0,0.1-0.1,0.1-0.2C353.9,337.7,353.8,337.6,353.7,337.7
			C353.7,337.7,353.7,337.7,353.7,337.7L353.7,337.7z M349.5,339.5c-0.1,0-0.1,0.2-0.1,0.2c0,0.1,0.1,0.1,0.2,0.1c0,0,0,0,0,0
			c0.1,0,0.1-0.1,0.1-0.2c0,0,0,0,0,0C349.7,339.5,349.6,339.5,349.5,339.5C349.5,339.5,349.5,339.5,349.5,339.5L349.5,339.5z
			 M362.6,351.4c0,0.1,0,0.2,0.1,0.2c0.1,0,0.2,0,0.2-0.1l0,0c0-0.1,0-0.2-0.1-0.2C362.7,351.3,362.6,351.3,362.6,351.4z
			 M358.3,349.8c0,0.1,0,0.2,0.1,0.2c0.1,0,0.2,0,0.2-0.1c0,0,0,0,0,0c0-0.1,0-0.2-0.1-0.2c0,0,0,0,0,0
			C358.5,349.7,358.4,349.7,358.3,349.8L358.3,349.8z M353.3,332.1c-0.2,0.1-0.2,0.3-0.2,0.5c0,0,0,0,0,0c0.1,0.1,0.2,0.2,0.3,0.2
			l0,0c0.1,0,0.1,0,0.2,0c0,0,0.1-0.1,0.1-0.1c0.1-0.1,0.1-0.4,0-0.5C353.6,332,353.5,332,353.3,332.1L353.3,332.1z M387.2,352.1
			c-0.1,0.2,0,0.4,0.2,0.4c0.2,0.1,0.4,0,0.4-0.2c0,0,0,0,0,0c0.1-0.2,0-0.4-0.2-0.4C387.5,351.8,387.3,351.9,387.2,352.1
			C387.2,352.1,387.2,352.1,387.2,352.1z M378.9,349.6c-0.1,0.2,0.1,0.4,0.2,0.4c0,0,0,0,0,0c0.2,0.1,0.4,0,0.4-0.2
			c0.1-0.2,0-0.4-0.2-0.4C379.2,349.3,379,349.4,378.9,349.6L378.9,349.6z M370.7,347.1c0,0.2,0.1,0.4,0.2,0.5
			c0.2,0.1,0.4,0,0.4-0.2c0,0,0,0,0,0c0.1-0.2,0-0.4-0.2-0.4c0,0,0,0,0,0C370.9,346.8,370.7,346.9,370.7,347.1L370.7,347.1z
			 M362.4,344.6c-0.1,0.2,0.1,0.4,0.2,0.4c0,0,0,0,0,0c0.2,0.1,0.4,0,0.4-0.2c0.1-0.2,0-0.4-0.2-0.4
			C362.7,344.3,362.5,344.4,362.4,344.6C362.4,344.6,362.4,344.6,362.4,344.6z M354.2,342.1c-0.1,0.2,0.1,0.4,0.3,0.4
			c0.2,0.1,0.4-0.1,0.4-0.2c0.1-0.2,0-0.4-0.2-0.4c0,0,0,0,0,0C354.4,341.8,354.2,341.9,354.2,342.1L354.2,342.1z M385.2,333.2
			c-0.2,0-0.4,0.2-0.3,0.4s0.2,0.4,0.4,0.3s0.4-0.2,0.3-0.4c0,0,0,0,0,0C385.5,333.3,385.4,333.2,385.2,333.2L385.2,333.2z
			 M376.6,334c-0.2,0-0.4,0.2-0.3,0.4c0,0.2,0.2,0.4,0.4,0.3c0.2,0,0.4-0.2,0.3-0.4c0,0,0,0,0,0C377,334.2,376.8,334,376.6,334
			L376.6,334z M368,334.9c-0.2,0-0.3,0.2-0.3,0.4c0,0.2,0.2,0.3,0.4,0.3c0.2,0,0.3-0.2,0.3-0.4C368.4,335,368.2,334.9,368,334.9
			L368,334.9z M359.4,335.8c-0.2,0-0.3,0.2-0.3,0.4s0.2,0.3,0.4,0.3c0,0,0,0,0,0c0.2,0,0.3-0.2,0.3-0.4c0,0,0,0,0,0
			C359.8,335.9,359.6,335.8,359.4,335.8C359.4,335.8,359.4,335.8,359.4,335.8L359.4,335.8z M350.8,336.6c-0.2,0-0.3,0.2-0.3,0.4
			c0,0.2,0.2,0.3,0.4,0.3c0.2,0,0.3-0.2,0.3-0.4C351.2,336.8,351,336.6,350.8,336.6C350.9,336.6,350.8,336.6,350.8,336.6
			L350.8,336.6z M369,359.5c-0.1,0.1-0.1,0.4,0,0.5c0,0,0,0,0,0c0.2,0.1,0.4,0.1,0.5,0c0.1-0.2,0.1-0.4-0.1-0.5
			C369.4,359.4,369.1,359.4,369,359.5C369,359.5,369,359.5,369,359.5L369,359.5z M362.3,354.1c-0.1,0.2-0.1,0.4,0,0.5
			c0.1,0.1,0.4,0.1,0.5,0c0,0,0,0,0,0c0.1-0.1,0.1-0.4,0-0.5c0,0,0,0,0,0C362.7,353.9,362.5,353.9,362.3,354.1L362.3,354.1z
			 M355.6,348.6c-0.1,0.2-0.1,0.4,0.1,0.5c0.1,0.1,0.4,0.1,0.5,0c0,0,0,0,0,0c0.1-0.2,0.1-0.4,0-0.5
			C356,348.5,355.8,348.5,355.6,348.6L355.6,348.6z M384.1,324.9c-0.2,0-0.3,0.2-0.3,0.4c0,0.2,0.2,0.3,0.4,0.3c0,0,0,0,0,0
			c0.2,0,0.3-0.2,0.2-0.4C384.5,324.9,384.3,324.8,384.1,324.9z M376.6,326.4c-0.2,0-0.3,0.2-0.2,0.4c0,0.2,0.2,0.3,0.4,0.2
			c0.2,0,0.3-0.2,0.2-0.4v0C376.9,326.4,376.8,326.3,376.6,326.4C376.6,326.4,376.6,326.4,376.6,326.4L376.6,326.4z M369,327.9
			c-0.1,0-0.1,0-0.2,0.1l0,0c-0.1,0.1-0.1,0.2-0.1,0.3c0,0.2,0.2,0.3,0.4,0.3c0,0,0,0,0,0c0.2,0,0.3-0.2,0.2-0.4
			c0-0.1-0.1-0.1-0.1-0.2C369.2,327.9,369.1,327.8,369,327.9L369,327.9z M361.5,329.4c-0.2,0-0.3,0.2-0.2,0.4c0,0.2,0.2,0.3,0.4,0.3
			c0.2,0,0.3-0.2,0.3-0.4l0,0C361.8,329.4,361.6,329.3,361.5,329.4C361.5,329.4,361.5,329.4,361.5,329.4z M377.6,356.8
			c-0.1,0.1-0.1,0.3,0.1,0.4c0,0,0,0,0,0c0.1,0.1,0.3,0.1,0.4-0.1c0,0,0,0,0,0c0.1-0.2,0.1-0.3-0.1-0.5
			C377.9,356.6,377.7,356.6,377.6,356.8L377.6,356.8z M371.2,352.5c-0.1,0.1-0.1,0.3,0.1,0.4c0,0,0,0,0,0c0.1,0.1,0.3,0.1,0.4-0.1
			c0,0,0,0,0,0c0.1-0.1,0.1-0.3-0.1-0.4C371.5,352.3,371.3,352.4,371.2,352.5L371.2,352.5z M364.8,348.2c-0.1,0.1-0.1,0.3,0.1,0.4
			c0,0,0,0,0,0c0.1,0.1,0.3,0.1,0.4-0.1c0,0,0,0,0,0c0.1-0.1,0.1-0.3-0.1-0.4c0,0,0,0,0,0C365.1,348,364.9,348.1,364.8,348.2
			L364.8,348.2z M358.4,343.9c-0.1,0.1,0,0.3,0.1,0.4c0.1,0.1,0.3,0.1,0.4-0.1c0.1-0.1,0.1-0.3-0.1-0.4
			C358.7,343.8,358.5,343.8,358.4,343.9L358.4,343.9z M352,339.7c-0.1,0.2-0.1,0.3,0.1,0.5c0.1,0.1,0.3,0.1,0.4-0.1
			c0.1-0.1,0.1-0.3-0.1-0.4C352.3,339.5,352.1,339.5,352,339.7L352,339.7z M380.2,340.3c0,0.2,0.1,0.3,0.3,0.4
			c0.2,0,0.3-0.1,0.4-0.2c0-0.2-0.1-0.3-0.2-0.4C380.4,340,380.2,340.1,380.2,340.3L380.2,340.3z M372.7,338.8
			c0,0.2,0.1,0.3,0.3,0.4c0.2,0,0.3-0.1,0.4-0.2c0-0.2-0.1-0.3-0.2-0.4c0,0,0,0,0,0C372.9,338.5,372.7,338.6,372.7,338.8
			L372.7,338.8z M365.1,337.2c0,0.2,0.1,0.3,0.2,0.4c0,0,0,0,0,0c0.2,0,0.3-0.1,0.4-0.3c0-0.2-0.1-0.3-0.2-0.4
			C365.3,337,365.2,337.1,365.1,337.2C365.1,337.2,365.1,337.2,365.1,337.2L365.1,337.2z M357.6,335.7c0,0.2,0.1,0.3,0.2,0.4
			c0.1,0,0.1,0,0.2,0l0,0c0.1,0,0.2-0.1,0.2-0.2c0-0.2-0.1-0.3-0.3-0.4C357.8,335.5,357.6,335.6,357.6,335.7L357.6,335.7z
			 M350,334.2c0,0.1,0,0.1,0,0.2c0.1,0,0.1,0.1,0.1,0.2c0,0,0.1,0,0.1,0c0.2,0,0.3-0.1,0.4-0.2c0-0.2-0.1-0.3-0.3-0.4
			C350.2,333.9,350,334.1,350,334.2L350,334.2z M359.9,358.3c-0.1,0.1-0.2,0.3-0.1,0.5c0.1,0.1,0.3,0.2,0.4,0.1
			c0.1-0.1,0.2-0.3,0.1-0.4C360.2,358.2,360,358.2,359.9,358.3C359.9,358.3,359.9,358.3,359.9,358.3L359.9,358.3z M366.1,337.9
			c0,0.1,0,0.2,0.1,0.2c0.1,0,0.2,0,0.2-0.1c0-0.1,0-0.2-0.1-0.2C366.2,337.8,366.1,337.8,366.1,337.9
			C366.1,337.9,366.1,337.9,366.1,337.9L366.1,337.9z M361.9,336.2c0,0.1,0,0.2,0.1,0.2c0,0,0,0,0,0c0.1,0,0.2,0,0.2-0.1
			c0,0,0,0,0,0c0-0.1,0-0.2-0.1-0.3C362,336,361.9,336.1,361.9,336.2C361.9,336.2,361.9,336.2,361.9,336.2L361.9,336.2z
			 M357.7,334.4c0,0.1,0,0.2,0.1,0.2c0,0,0,0,0,0c0.1,0,0.2,0,0.2-0.1s0-0.2-0.1-0.2C357.8,334.3,357.7,334.3,357.7,334.4
			L357.7,334.4z M353.5,332.7C353.5,332.7,353.5,332.7,353.5,332.7L353.5,332.7c0,0.1,0,0.2,0.1,0.2c0.1,0,0.2,0,0.2-0.1
			c0,0,0,0,0,0c0-0.1,0-0.2-0.1-0.2l0,0C353.6,332.5,353.5,332.6,353.5,332.7C353.5,332.7,353.5,332.7,353.5,332.7L353.5,332.7z
			 M365.7,328.1c-0.1,0-0.2,0.1-0.2,0.2c0,0,0,0,0,0c0,0.1,0.1,0.2,0.2,0.2c0,0,0,0,0,0c0.1,0,0.2-0.1,0.2-0.2
			C365.9,328.2,365.8,328.1,365.7,328.1L365.7,328.1z M359,344.2c-0.1,0.1-0.1,0.2,0,0.2c0,0,0,0,0,0c0.1,0.1,0.2,0.1,0.3,0
			c0.1-0.1,0.1-0.2,0-0.3C359.2,344.1,359.1,344.1,359,344.2z M355.8,341c-0.1,0.1-0.1,0.2,0,0.2c0,0,0,0,0,0c0.1,0.1,0.2,0.1,0.3,0
			c0,0,0,0,0,0c0.1-0.1,0.1-0.2,0-0.3C356,340.9,355.9,340.9,355.8,341C355.8,341,355.8,341,355.8,341L355.8,341z M352.6,337.8
			c-0.1,0.1-0.1,0.2,0,0.3c0.1,0.1,0.2,0.1,0.3,0c0.1-0.1,0.1-0.2,0-0.3C352.8,337.7,352.7,337.7,352.6,337.8L352.6,337.8z
			 M349.5,334.5L349.5,334.5c-0.1,0-0.1,0-0.1,0c-0.1,0.1-0.1,0.2,0,0.3c0,0,0.1,0,0.1,0c0.1,0,0.1,0,0.2,0c0.1-0.1,0.1-0.2,0-0.3
			c0,0,0,0,0,0C349.6,334.5,349.6,334.5,349.5,334.5L349.5,334.5z M367.4,338.7c-0.1,0.1,0,0.2,0.1,0.3c0.1,0.1,0.2,0,0.3-0.1
			c0.1-0.1,0.1-0.2,0-0.3c0,0,0,0,0,0C367.6,338.6,367.5,338.6,367.4,338.7C367.4,338.7,367.4,338.7,367.4,338.7L367.4,338.7z
			 M363.1,335.9c-0.1,0.1,0,0.2,0.1,0.3c0.1,0.1,0.2,0,0.3-0.1c0.1-0.1,0-0.2-0.1-0.3c0,0,0,0,0,0
			C363.3,335.8,363.1,335.8,363.1,335.9L363.1,335.9z M358.7,333.1c-0.1,0.1,0,0.2,0.1,0.3c0.1,0.1,0.2,0,0.3-0.1
			c0.1-0.1,0-0.2,0-0.3c0,0,0,0,0,0C358.9,333,358.8,333,358.7,333.1L358.7,333.1z M369.1,327.8c-0.1,0-0.2,0-0.3,0.2c0,0,0,0,0,0
			l0,0c0,0.1,0.1,0.2,0.2,0.2c0.1,0,0.2,0,0.3-0.2c0,0,0,0,0,0c0,0,0-0.1,0-0.1C369.3,327.8,369.2,327.8,369.1,327.8L369.1,327.8z
			 M358.2,344.5c-0.1,0.1-0.1,0.2-0.1,0.3c0,0,0,0,0,0c0.1,0.1,0.2,0.1,0.3,0.1c0.1-0.1,0.1-0.2,0.1-0.3c0,0,0,0,0,0
			C358.5,344.5,358.3,344.4,358.2,344.5L358.2,344.5z M355.3,340.2c-0.1,0.1-0.1,0.2-0.1,0.3c0.1,0.1,0.2,0.1,0.3,0.1c0,0,0,0,0,0
			c0.1-0.1,0.1-0.2,0.1-0.3c0,0,0,0,0,0C355.5,340.2,355.4,340.1,355.3,340.2C355.3,340.2,355.3,340.2,355.3,340.2L355.3,340.2z
			 M352.4,335.9c-0.1,0.1-0.1,0.2-0.1,0.3c0,0,0,0,0,0c0.1,0.1,0.2,0.1,0.3,0c0.1-0.1,0.1-0.2,0.1-0.3
			C352.6,335.9,352.5,335.9,352.4,335.9L352.4,335.9z M391.8,328.2c0,0.2,0.1,0.4,0.3,0.4c0.2,0,0.4-0.1,0.4-0.3
			c0-0.2-0.1-0.4-0.3-0.4C392,327.8,391.8,328,391.8,328.2L391.8,328.2z M383.1,326.3c0,0.2,0.1,0.4,0.3,0.4s0.4-0.1,0.4-0.3
			c0-0.2-0.1-0.4-0.3-0.4C383.3,326,383.1,326.1,383.1,326.3z M374.4,324.5c0,0.2,0.1,0.4,0.3,0.4s0.4-0.1,0.4-0.3c0,0,0,0,0,0
			c0-0.2-0.1-0.4-0.3-0.4C374.6,324.2,374.4,324.3,374.4,324.5z M370.8,358.8c-0.2,0.1-0.2,0.3-0.1,0.5c0.1,0.2,0.3,0.2,0.5,0.1
			c0.2-0.1,0.2-0.3,0.1-0.5C371.2,358.8,371,358.7,370.8,358.8L370.8,358.8z M365.9,351.4c-0.2,0.1-0.2,0.3-0.1,0.5
			c0.1,0.2,0.3,0.2,0.5,0.1c0,0,0,0,0,0c0.2-0.1,0.2-0.3,0.1-0.5C366.3,351.3,366.1,351.3,365.9,351.4
			C365.9,351.4,365.9,351.4,365.9,351.4z M361.1,343.9c-0.2,0.1-0.2,0.3-0.1,0.5c0,0,0,0,0,0c0.1,0.2,0.3,0.2,0.5,0.1
			c0.2-0.1,0.2-0.3,0.1-0.5C361.5,343.9,361.3,343.8,361.1,343.9C361.1,343.9,361.1,343.9,361.1,343.9z M356.2,336.5
			c-0.2,0.1-0.2,0.3-0.1,0.5c0,0,0,0,0,0c0.1,0.2,0.3,0.2,0.5,0.1c0.2-0.1,0.2-0.3,0.1-0.5C356.6,336.4,356.4,336.4,356.2,336.5
			C356.2,336.5,356.2,336.5,356.2,336.5L356.2,336.5z M381.2,342.7c-0.1,0.2-0.1,0.4,0.1,0.5c0,0,0,0,0,0c0.2,0.1,0.4,0.1,0.5-0.1
			c0.1-0.2,0.1-0.4-0.1-0.5C381.6,342.5,381.3,342.5,381.2,342.7C381.2,342.7,381.2,342.7,381.2,342.7L381.2,342.7z M373.9,337.7
			c-0.1,0.2-0.1,0.4,0.1,0.5c0,0,0,0,0,0c0.2,0.1,0.4,0.1,0.5-0.1c0,0,0,0,0,0c0.1-0.2,0.1-0.4-0.1-0.5c0,0,0,0,0,0
			C374.2,337.5,374,337.5,373.9,337.7C373.9,337.7,373.9,337.7,373.9,337.7L373.9,337.7z M366.5,332.7c-0.1,0.2-0.1,0.4,0.1,0.5
			c0.2,0.1,0.4,0.1,0.5-0.1c0.1-0.2,0.1-0.4-0.1-0.5c0,0,0,0,0,0C366.9,332.5,366.7,332.5,366.5,332.7
			C366.5,332.7,366.5,332.7,366.5,332.7L366.5,332.7z M385.8,338.7c-0.1,0.2-0.1,0.4,0.1,0.5c0.2,0.1,0.4,0.1,0.5-0.1
			c0.1-0.2,0.1-0.4-0.1-0.5C386.2,338.5,385.9,338.5,385.8,338.7C385.8,338.7,385.8,338.7,385.8,338.7L385.8,338.7z M378.3,334
			c-0.1,0.2,0,0.4,0.1,0.5c0.2,0.1,0.4,0,0.5-0.1c0.1-0.2,0.1-0.4-0.1-0.5C378.6,333.8,378.4,333.8,378.3,334L378.3,334z
			 M370.8,329.3c-0.1,0.2-0.1,0.4,0.1,0.5c0.2,0.1,0.4,0.1,0.5-0.1c0.1-0.2,0.1-0.4-0.1-0.5C371.1,329.1,370.9,329.2,370.8,329.3
			L370.8,329.3z M351.7,343c-0.2,0-0.3,0.2-0.3,0.4c0,0,0,0,0,0c0,0.2,0.2,0.3,0.4,0.3c0.2,0,0.3-0.2,0.3-0.4
			C352.1,343,351.9,342.9,351.7,343C351.7,343,351.7,343,351.7,343L351.7,343z M349.7,334.3c-0.1,0-0.2,0.1-0.2,0.2l0,0
			c-0.1,0.1-0.1,0.2-0.1,0.3c0,0,0,0.1,0,0.1c0.1,0.2,0.3,0.3,0.5,0.2c0.2-0.1,0.3-0.3,0.2-0.4c0,0,0,0,0,0c0-0.1-0.1-0.1-0.1-0.2
			C349.9,334.3,349.8,334.3,349.7,334.3L349.7,334.3z M370.3,348.6c-0.2,0.1-0.2,0.3-0.1,0.5c0,0,0,0,0,0c0.1,0.2,0.3,0.2,0.5,0.1
			c0.2-0.1,0.2-0.3,0.1-0.5C370.7,348.5,370.4,348.4,370.3,348.6C370.3,348.6,370.3,348.6,370.3,348.6L370.3,348.6z M365.1,341.4
			c-0.2,0.1-0.2,0.3-0.1,0.5c0,0,0,0,0,0c0.1,0.2,0.3,0.2,0.5,0.1c0.2-0.1,0.2-0.3,0.1-0.5C365.5,341.3,365.3,341.2,365.1,341.4
			C365.1,341.4,365.1,341.4,365.1,341.4z M360,334.2c-0.2,0.1-0.2,0.3-0.1,0.5c0.1,0.2,0.3,0.2,0.5,0.1c0.2-0.1,0.2-0.3,0.1-0.5
			C360.4,334.1,360.1,334,360,334.2C360,334.2,360,334.2,360,334.2z M371.6,333.3c-0.1,0.1-0.1,0.3,0,0.4c0,0,0,0,0,0
			c0.1,0.1,0.3,0.1,0.4,0s0.1-0.3,0-0.4C371.9,333.2,371.7,333.2,371.6,333.3z M366.8,328.7c-0.1,0.1-0.1,0.3,0,0.4c0,0,0,0,0,0
			c0.1,0.1,0.3,0.1,0.4,0s0.1-0.3,0-0.4S366.9,328.6,366.8,328.7C366.8,328.7,366.8,328.7,366.8,328.7z M358.6,338.4
			c-0.1,0.1-0.2,0.2-0.2,0.3c0,0,0,0,0,0c0.1,0.1,0.2,0.2,0.4,0.2c0,0,0,0,0,0c0.1-0.1,0.2-0.2,0.1-0.4
			C358.9,338.4,358.7,338.3,358.6,338.4L358.6,338.4L358.6,338.4z M355.9,332.3c-0.1,0.1-0.2,0.2-0.1,0.4c0.1,0.1,0.2,0.2,0.4,0.1
			c0.1-0.1,0.2-0.2,0.1-0.4C356.2,332.3,356,332.2,355.9,332.3L355.9,332.3z" style="opacity:0.86;fill:#FFFFFF;enable-background:new    ;"/>
		
			<linearGradient id="sweater_1_" gradientUnits="userSpaceOnUse" x1="292.6064" y1="324.4533" x2="365.6307" y2="324.4533" gradientTransform="matrix(1 0 0 -1 0 602)">
			<stop offset="0" style="stop-color:#A1C3FC"/>
			<stop offset="0.6955" style="stop-color:#81AEF2"/>
			<stop offset="1" style="stop-color:#78A9EF"/>
		</linearGradient>
		<path id="sweater" d="M317.9,225.2c0,0-34.4,49.3-23,99.6c0,0,37.3,18.1,70.7-14.2c0,0-30.8-60.3-32.5-77.4l0,0
			L317.9,225.2" style="fill:url(#sweater_1_);"/>
		
			<linearGradient id="cup_1_" gradientUnits="userSpaceOnUse" x1="408.563" y1="379.4901" x2="421.6293" y2="341.444" gradientTransform="matrix(1 0 0 -1 0 602)">
			<stop offset="0.14" style="stop-color:#E94A47"/>
			<stop offset="1" style="stop-color:#C63030"/>
		</linearGradient>
		<path id="cup" d="M406.4,238.5h21.1l0,0v15.4c0,5.8-4.7,10.6-10.6,10.6l0,0c-5.8,0-10.6-4.7-10.6-10.6L406.4,238.5
			L406.4,238.5L406.4,238.5z" style="fill:url(#cup_1_);"/>
		
			<linearGradient id="handle_1_" gradientUnits="userSpaceOnUse" x1="417.734" y1="355.9323" x2="416.4471" y2="326.1912" gradientTransform="matrix(1 0 0 -1 0 602)">
			<stop offset="0.14" style="stop-color:#E94A47"/>
			<stop offset="1" style="stop-color:#C63030"/>
		</linearGradient>
		<path id="handle" d="M415.8,244.9h3.1c1.3,0,2.4,1.1,2.4,2.4l0,0v15.8l0,0h-7.8l0,0v-15.8
			C413.4,246,414.5,244.9,415.8,244.9z" style="fill:url(#handle_1_);"/>
		
			<linearGradient id="R_hand_1_" gradientUnits="userSpaceOnUse" x1="425.7654" y1="324.8814" x2="398.8642" y2="362.5432" gradientTransform="matrix(1 0 0 -1 0 602)">
			<stop offset="0" style="stop-color:#FFBEB6"/>
			<stop offset="1" style="stop-color:#F2A19C"/>
		</linearGradient>
		<path id="R_hand" d="M403.9,267c0,0,6-11.6,9.5-13.8c0,0,0,8,3.6,7.9c4.2-0.1,4.4-7.4,4.2-10.9
			c-0.1-2.5-0.4-2.3,1.9-1.6c1.5,0.5,10.1,4.7,8.4,16.3s-18.8,11.7-21.1,13.1c-1,0.6-2,1.2-3,1.8L403.9,267" style="fill:url(#R_hand_1_);"/>
		
			<linearGradient id="neck_1_" gradientUnits="userSpaceOnUse" x1="320.9612" y1="364.9215" x2="334.2675" y2="389.8497" gradientTransform="matrix(1 0 0 -1 0 602)">
			<stop offset="0" style="stop-color:#FFBEB6"/>
			<stop offset="1" style="stop-color:#F2A19C"/>
		</linearGradient>
		<path id="neck" d="M333.2,233.2l-15.3-8l4.7-10.2c4.2,2.4,9,3.5,13.8,3.1C335.6,220.3,332.3,230.1,333.2,233.2z" style="fill:url(#neck_1_);"/>
		
			<linearGradient id="R_sleeve_1_" gradientUnits="userSpaceOnUse" x1="371.1517" y1="301.8473" x2="306.6292" y2="354.7809" gradientTransform="matrix(1 0 0 -1 0 602)">
			<stop offset="0" style="stop-color:#A1C3FC"/>
			<stop offset="0.6955" style="stop-color:#81AEF2"/>
			<stop offset="1" style="stop-color:#78A9EF"/>
		</linearGradient>
		<path id="R_sleeve" d="M317.9,225.2c0,0,17,1.1,23.8,22.6s8.4,37.9,22.8,35.1s30.4-10.4,39.1-17.2l9.6,36.7
			c0,0-8.8,13.2-21.6,14.4s-22.4,8.8-29.9,12s-24.7,8.4-33.1-3.6s-22-50.3-20-83.9C311.3,235.8,314.4,230.4,317.9,225.2z" style="fill:url(#R_sleeve_1_);"/>
		
			<linearGradient id="chair_back_1_" gradientUnits="userSpaceOnUse" x1="322.9825" y1="330.2998" x2="246.5011" y2="171.5648" gradientTransform="matrix(1 0 0 -1 0 602)">
			<stop offset="0.14" style="stop-color:#E94A47"/>
			<stop offset="1" style="stop-color:#C63030"/>
		</linearGradient>
		<path id="chair_back" d="M357.6,385.3h-92.1l-23.2-123.8c-1.7-9.2,4.3-18.1,13.6-19.8c1-0.2,2.1-0.3,3.1-0.3h57.5
			c8.2,0,15.2,5.8,16.7,13.8L357.6,385.3z" style="fill:url(#chair_back_1_);"/>
		<path id="face" d="M350.5,206.6c0,0-2.3,9-11.6,11.1c-7.5,1.7-14-1.5-16.3-2.8c0.2-0.3,3.7-6.2,0-8.6
			c-3.8-2.5-3.8-3.8-3.9-5.6c-0.1-1.8,2.6-4.3,7.1-2.8c4.5,1.6,9-2.3,9.3-7.7c4.6,0.8,9.2,0.5,13.6-0.9c0.6,1.4,3.9,10,5.3,12.4
			C355.6,204.3,351.8,206.4,350.5,206.6z" style="fill:#FFBEB6;"/>
		<path id="eyeglasses" d="M357.3,189.2c-0.5-0.3-1.1-0.5-1.7-0.5c-1.6,0-3.3,1.3-4.1,3.5c-0.1,0.3-0.2,0.7-0.3,1.1
			c-0.3-0.1-0.6-0.2-1-0.2c-1.1,0-2.1,0.3-3,0.9c0-0.2,0-0.4-0.1-0.6c-0.2-1.2-0.7-2.3-1.5-3.2c-0.2-0.3-0.5-0.5-0.8-0.7
			c-1.8-1.1-3.9-0.6-5.4,1.2c-0.6,0.7-1,1.4-1.4,2.3c-0.6,1.6-0.8,3.4-0.5,5.2c0.2,1.2,0.8,2.4,1.6,3.3c0.2,0.2,0.4,0.4,0.7,0.6
			c1.1,0.7,2.6,0.8,3.8,0.1c1.4-0.8,2.4-2.1,2.9-3.6c0.4-1.2,0.7-2.4,0.6-3.6c0.9-0.7,2.1-1.1,3.2-1c0.1,0,0.3,0.1,0.4,0.1
			c0,0.1,0,0.1,0,0.2c0,0.1,0,0.2,0,0.2v0c0,0,0,0,0,0c0,0.2,0,0.4,0.1,0.6c0.7,1.7,1.4,3.4,2,4.7c2,1.3,4.6,0,5.8-3
			C360,194,359.3,190.5,357.3,189.2z M346,198.1c-0.5,1.3-1.4,2.5-2.6,3.2c-1,0.6-2.2,0.5-3.1-0.1c-1-0.8-1.7-1.9-1.9-3.2
			c-0.3-1.5-0.1-3.1,0.4-4.6c0.4-1,1-2,1.9-2.7c1-1,2.6-1.2,3.9-0.4c0,0,0.1,0.1,0.1,0.1c0.2,0.1,0.3,0.2,0.5,0.4
			c0.7,0.8,1.2,1.7,1.4,2.7C346.7,195,346.6,196.6,346,198.1L346,198.1z M358.2,196.5c-1,2.5-3.1,3.7-4.8,2.6s-2.2-4-1.2-6.5
			c1-2.5,3.1-3.7,4.8-2.6C358.6,191,359.2,194,358.2,196.5z" style="fill:#FFFFFF;"/>
		<path id="hair" d="M362.1,168.1c-0.1-0.2-0.3-0.3-0.5-0.2c-0.2,0.1-0.3,0.3-0.3,0.4c3.8,12.7-6.1,20.9-17.1,22.1
			c4.9-0.7,10.6-2.9,14.3-9c7.4-12.3-3.4-17-9.6-13.7s-10.6,9.7-10.6,9.7s-9.7-7.6-25.4-1.3s-9.9,25.4-4.3,30.9s14,7.9,14,7.9
			s3.8-6.1,0-8.6s-3.8-3.8-3.9-5.6s2.6-4.3,7.1-2.8c4.4,1.5,8.8-2.2,9.3-7.4c0,0,0,0,0,0c7.3,1.8,15.2,1.2,21.2-3.8
			C361.9,182.4,364.2,174.9,362.1,168.1z" style="fill:#428DFC;"/>
	</g>
</g>
</svg>
