<?xml version="1.0" encoding="iso-8859-1"?>
<!-- Generator: Adobe Illustrator 23.0.2, SVG Export Plug-In . SVG Version: 6.00 Build 0)  -->
<svg version="1.1" id="illustration" xmlns="http://www.w3.org/2000/svg" xmlns:xlink="http://www.w3.org/1999/xlink" x="0px"
	 y="0px" viewBox="0 0 1080 720" style="enable-background:new 0 0 1080 720;" xml:space="preserve">
<title>fatal error</title>
<g id="geometry">
	
		<linearGradient id="triangle_1_" gradientUnits="userSpaceOnUse" x1="258.6731" y1="335.8675" x2="609.9527" y2="100.3944" gradientTransform="matrix(1 0 0 -1 0 722)">
		<stop  offset="0" style="stop-color:#23286B"/>
		<stop  offset="1" style="stop-color:#151A4F"/>
	</linearGradient>
	<polygon id="triangle" style="fill:url(#triangle_1_);" points="361.492,612.65 178.633,394.881 484.506,379.92 	"/>
	
		<linearGradient id="circle_1_" gradientUnits="userSpaceOnUse" x1="632.3648" y1="220.8802" x2="326.1997" y2="485.3684" gradientTransform="matrix(0.9278 0.3732 0.3732 -0.9278 -63.9785 547.4761)">
		<stop  offset="0.0898" style="stop-color:#EEEEEE"/>
		<stop  offset="0.8178" style="stop-color:#D6D7D8"/>
	</linearGradient>
	<circle id="circle" style="fill:url(#circle_1_);" cx="560.785" cy="492.489" r="120.003"/>
	
		<linearGradient id="half_a_circle_1_" gradientUnits="userSpaceOnUse" x1="734.8485" y1="526.1346" x2="623.7643" y2="338.2102" gradientTransform="matrix(1 0 0 -1 0 722)">
		<stop  offset="0.1291" style="stop-color:#428DFC"/>
		<stop  offset="0.9987" style="stop-color:#1D72D8"/>
	</linearGradient>
	<path id="half_a_circle" style="fill:url(#half_a_circle_1_);" d="M623.717,108.497c-21.926,75.503,21.507,154.484,97.01,176.41
		c67.074,19.478,138.371-12.581,168.313-75.683L623.717,108.497z"/>
	<path id="rounded_rectangle" style="fill:#E94A47;" d="M498.51,161.672l255.745,147.654c32.362,18.684,43.449,60.064,24.766,92.426
		l0,0c-18.684,32.362-60.064,43.449-92.426,24.766L430.85,278.864c-32.362-18.684-43.449-60.064-24.766-92.426l0,0
		C424.768,154.076,466.149,142.988,498.51,161.672z"/>
</g>
<g id="woman">
	
		<linearGradient id="R_shoe_1_" gradientUnits="userSpaceOnUse" x1="805.1455" y1="109.3553" x2="760.8737" y2="140.3456" gradientTransform="matrix(1 0 0 -1 0 722)">
		<stop  offset="0.1291" style="stop-color:#428DFC"/>
		<stop  offset="0.9987" style="stop-color:#1D72D8"/>
	</linearGradient>
	<path id="R_shoe" style="fill:url(#R_shoe_1_);" d="M774.162,583.377l-8.422,23.495l59.46,0.002c0,0-3.049-5.88-13.212-10.236
		s-19.65-13.26-19.65-13.26H774.162"/>
	
		<linearGradient id="L_sleeve_1_" gradientUnits="userSpaceOnUse" x1="711.5605" y1="189.6414" x2="789.3367" y2="189.6414" gradientTransform="matrix(1 0 0 -1 0 722)">
		<stop  offset="0" style="stop-color:#A1C3FC"/>
		<stop  offset="0.3464" style="stop-color:#91B9F7"/>
		<stop  offset="0.6955" style="stop-color:#81AEF2"/>
		<stop  offset="1" style="stop-color:#78A9EF"/>
	</linearGradient>
	<path id="L_sleeve" style="fill:url(#L_sleeve_1_);" d="M732.206,490.14c0,0,7.109,28.826,17.609,37.521
		c3.507,2.905,9.441,4.545,15.813,3.465c5.761-1.088,11.245-3.32,16.128-6.564l-0.335,22.837c0,0,15.041,17.542,3.655,16.474
		c-12.806-1.2-16.685,3.066-21.947,6.755s-19.089,8.871-33.525-6.121s-26.863-30.272-9.751-64.794l0,0"/>
	
		<linearGradient id="R_leg_1_" gradientUnits="userSpaceOnUse" x1="776.338" y1="198.6663" x2="783.2982" y2="154.2949" gradientTransform="matrix(1 0 0 -1 0 722)">
		<stop  offset="0" style="stop-color:#23286B"/>
		<stop  offset="0.4316" style="stop-color:#1D225F"/>
		<stop  offset="1" style="stop-color:#151A4F"/>
	</linearGradient>
	<path id="R_leg" style="fill:url(#R_leg_1_);" d="M789.712,581.264c0,0-8.952,3.896-21.302-0.844c0,0,0.34-5.1,3.18-48.74
		c0.62-9.43,1.371-20.553,2.241-33.933c0,0,12.929-0.077,15.679,8.973c0.55,1.82,2,4.51,2.32,7.94
		C793.11,528.31,787.262,560.034,789.712,581.264z"/>
	<path id="R_leg-2" style="fill:#23286B;" d="M790.51,506.72c-2.75-9.05-15.704-9.026-15.704-9.026l0,0
		c-5.689-0.239-12.626,8.516-15.139,14.546c-5.209,12.501-24.481,57.036-25.262,57.296s-24.741,3.907-24.741,3.907
		s-2.344,28.908,18.751,32.034c20.741,3.073,45.258,6.897,53.007-58.078l0.029,0.051c0,0,3.35-31.95,10.38-32.79
		C791.638,511.978,791.196,509.32,790.51,506.72z"/>
	
		<linearGradient id="R_hand_1_" gradientUnits="userSpaceOnUse" x1="787.902" y1="180.3297" x2="775.6808" y2="142.0992" gradientTransform="matrix(1 0 0 -1 0 722)">
		<stop  offset="0" style="stop-color:#FFBEB6"/>
		<stop  offset="1" style="stop-color:#F2A19C"/>
	</linearGradient>
	<path id="R_hand" style="fill:url(#R_hand_1_);" d="M771.263,554.197c0,0,13.355-4.396,18.015-12.062
		c3.48-5.726,3.603-6.579,1.567-11.436s-1.567-10.339-2.82-12.532s2.82-2.193,3.76,1.567s2.036,7.206,2.193,6.109
		s-0.643-4.826-2.013-9.089c0,0-0.024-3.287,5.302,3.919s5.483,12.219,4.543,16.605s-10.652,33.994-23.185,42.923l0,0
		L771.263,554.197"/>
	
		<linearGradient id="neck_1_" gradientUnits="userSpaceOnUse" x1="735.3203" y1="222.8736" x2="738.5095" y2="239.2751" gradientTransform="matrix(1 0 0 -1 0 722)">
		<stop  offset="0" style="stop-color:#FFBEB6"/>
		<stop  offset="1" style="stop-color:#F2A19C"/>
	</linearGradient>
	<path id="neck" style="fill:url(#neck_1_);" d="M744.41,483.49c0,0-3.81,8.79-3.82,17.02l-0.05,0.02
		c-0.064,0.027-0.131,0.047-0.2,0.06c-0.84,0.18-3.89,0.31-10.43-4.75l2.79-11.65l1.16-1.93L744.41,483.49z"/>
	<path id="face" style="fill:#FFBEB6;" d="M741.414,454.651c0,0,6.521,4.729,10.449,4.927c3.782,0.19,2.176,3.78,1.489,4.582
		c0,0,6.445,21.336-17.31,20.079c0,0-4.192-1.677-6.288-9.502s-4.611-8.105-2.096-14.672s9.907-7.685,9.907-7.685L741.414,454.651z"
		/>
	<path id="texture" style="opacity:0.51;fill:#FFFFFF;enable-background:new    ;" d="M734.197,598.16
		c0.088,0.038,0.19-0.003,0.228-0.092c0.038-0.088-0.003-0.191-0.092-0.228c-0.088-0.038-0.19,0.003-0.228,0.092c0,0,0,0,0,0
		C734.067,598.02,734.108,598.122,734.197,598.16C734.197,598.16,734.197,598.16,734.197,598.16z M735.834,594.236
		c0.092,0.036,0.196-0.005,0.24-0.094c0.033-0.091-0.013-0.192-0.104-0.226c-0.081-0.041-0.18-0.008-0.22,0.073
		c-0.003,0.006-0.006,0.012-0.008,0.018C735.704,594.096,735.745,594.198,735.834,594.236
		C735.833,594.236,735.834,594.236,735.834,594.236z M737.482,590.311c0.088,0.038,0.19-0.003,0.228-0.092c0,0,0,0,0,0
		c0.036-0.092-0.005-0.196-0.093-0.24c-0.095-0.031-0.197,0.014-0.238,0.105C737.346,590.176,737.392,590.276,737.482,590.311z
		 M752.014,598.115c0.036,0.091,0.139,0.137,0.231,0.101c0,0,0,0,0,0c0.085-0.03,0.128-0.124,0.098-0.208
		c-0.003-0.007-0.006-0.014-0.009-0.021c-0.032-0.088-0.13-0.134-0.219-0.102C752.023,597.92,751.978,598.023,752.014,598.115
		C752.014,598.115,752.014,598.115,752.014,598.115L752.014,598.115z M728.078,591.275c0.066,0.067,0.174,0.069,0.241,0.003
		s0.069-0.174,0.003-0.241s-0.174-0.069-0.241-0.003l0,0c-0.067,0.059-0.074,0.162-0.015,0.229
		C728.07,591.267,728.074,591.271,728.078,591.275L728.078,591.275z M731.095,588.28c0.051,0.054,0.134,0.063,0.196,0.021
		l0.012-0.002c0.013,0,0.026-0.006,0.034-0.017c0.041-0.039,0.06-0.096,0.051-0.152c-0.006-0.038-0.024-0.073-0.05-0.102
		c-0.066-0.067-0.174-0.068-0.241-0.003c-0.07,0.066-0.074,0.176-0.008,0.246C731.091,588.276,731.093,588.278,731.095,588.28z
		 M742.989,597.557c0.006,0.097,0.084,0.174,0.181,0.18c0.1-0.001,0.179-0.083,0.178-0.183c-0.001-0.098-0.081-0.177-0.18-0.178
		C743.072,597.382,742.995,597.46,742.989,597.557z M743.003,593.304c0.003,0.096,0.084,0.171,0.179,0.168c0,0,0,0,0,0
		c0.093,0.007,0.174-0.062,0.181-0.155c0-0.005,0.001-0.01,0-0.015c-0.003-0.099-0.083-0.178-0.181-0.18
		C743.085,593.129,743.008,593.207,743.003,593.304z M717.1,593.927c0.122,0.139,0.335,0.153,0.474,0.031
		c0.139-0.122,0.153-0.335,0.031-0.474l0,0c-0.118-0.136-0.324-0.152-0.46-0.034c-0.001,0.001-0.001,0.001-0.002,0.002
		C717.004,593.573,716.985,593.782,717.1,593.927L717.1,593.927z M723.197,588.639c0.122,0.139,0.335,0.153,0.474,0.031
		s0.153-0.335,0.031-0.474s-0.335-0.153-0.474-0.031c-0.139,0.118-0.156,0.326-0.039,0.465
		C723.192,588.633,723.194,588.636,723.197,588.639L723.197,588.639z M736.357,603.328c-0.014,0.181,0.121,0.339,0.302,0.353
		c0.004,0,0.008,0.001,0.012,0.001c0.176,0.019,0.335-0.108,0.354-0.284c0.001-0.006,0.001-0.012,0.001-0.018
		c0.006-0.185-0.131-0.345-0.316-0.366C736.527,603.005,736.37,603.145,736.357,603.328z M736.919,595.29
		c-0.011,0.184,0.13,0.343,0.314,0.354s0.343-0.13,0.354-0.314l0,0c0.015-0.181-0.12-0.341-0.302-0.356c0,0,0,0,0,0
		c-0.184-0.017-0.347,0.118-0.365,0.302C736.919,595.281,736.919,595.286,736.919,595.29L736.919,595.29z M737.491,587.239
		c-0.015,0.181,0.119,0.34,0.3,0.355c0.181,0.015,0.34-0.119,0.355-0.3c0-0.005,0.001-0.009,0.001-0.014
		c0.017-0.18-0.115-0.338-0.295-0.355c-0.002,0-0.005,0-0.007-0.001C737.661,586.916,737.503,587.055,737.491,587.239
		L737.491,587.239z M727.103,597.106c0.17,0.079,0.372,0.006,0.451-0.164c0.076-0.164,0.011-0.359-0.15-0.443
		c-0.166-0.087-0.371-0.024-0.458,0.142c-0.087,0.166-0.024,0.371,0.142,0.458C727.093,597.102,727.098,597.104,727.103,597.106z
		 M730.702,589.876c0.161,0.085,0.36,0.023,0.445-0.138c0.002-0.003,0.003-0.006,0.005-0.009c0.084-0.162,0.021-0.362-0.141-0.446
		c-0.162-0.084-0.362-0.021-0.446,0.141c-0.002,0.005-0.005,0.009-0.007,0.014c-0.083,0.153-0.027,0.345,0.126,0.428
		C730.689,589.87,730.696,589.873,730.702,589.876L730.702,589.876z M747.942,606.109c0.065,0.172,0.25,0.267,0.428,0.218
		c0.173-0.062,0.265-0.252,0.206-0.426c-0.059-0.173-0.247-0.267-0.42-0.208c-0.002,0.001-0.004,0.001-0.006,0.002
		c-0.171,0.056-0.265,0.239-0.209,0.41C747.941,606.106,747.941,606.107,747.942,606.109L747.942,606.109z M745.391,598.465
		c0.052,0.169,0.23,0.264,0.399,0.213c0.005-0.002,0.01-0.003,0.015-0.005c0.175-0.052,0.275-0.236,0.223-0.411
		c-0.002-0.005-0.003-0.011-0.005-0.016c-0.06-0.175-0.25-0.268-0.425-0.208c-0.175,0.06-0.268,0.25-0.208,0.425
		C745.39,598.463,745.39,598.464,745.391,598.465z M742.826,590.812c0.062,0.173,0.252,0.265,0.426,0.206
		c0.169-0.052,0.264-0.23,0.213-0.399c-0.002-0.005-0.003-0.01-0.005-0.015c-0.056-0.174-0.241-0.271-0.416-0.219
		C742.868,590.445,742.772,590.634,742.826,590.812L742.826,590.812z M720.427,595.429c0.012,0.074,0.056,0.138,0.121,0.176
		c0.139,0.085,0.32,0.044,0.409-0.093c0.09-0.141,0.049-0.328-0.092-0.419c-0.001-0.001-0.002-0.001-0.003-0.002
		c-0.084-0.053-0.189-0.061-0.28-0.021l-0.012,0.002c-0.052,0.021-0.094,0.061-0.117,0.112
		C720.404,595.256,720.394,595.348,720.427,595.429L720.427,595.429z M724.364,589.501c0.142,0.086,0.327,0.04,0.413-0.103
		c0.085-0.141,0.041-0.323-0.099-0.41c-0.139-0.086-0.321-0.045-0.409,0.093c-0.09,0.141-0.049,0.329,0.092,0.419
		C724.362,589.5,724.363,589.501,724.364,589.501L724.364,589.501z M728.18,583.397c0.144,0.083,0.328,0.034,0.411-0.11
		c0.08-0.139,0.038-0.316-0.097-0.403c-0.139-0.09-0.326-0.051-0.416,0.089s-0.051,0.326,0.089,0.416
		C728.171,583.392,728.175,583.395,728.18,583.397z M741.058,605.616c0.039,0.157,0.198,0.253,0.355,0.216
		c0.155-0.034,0.253-0.188,0.219-0.343c-0.001-0.004-0.002-0.008-0.003-0.012c-0.034-0.16-0.191-0.263-0.351-0.229
		c-0.002,0-0.004,0.001-0.005,0.001C741.113,605.294,741.018,605.456,741.058,605.616L741.058,605.616z M739.435,598.591
		c0.034,0.16,0.191,0.263,0.351,0.229c0.002,0,0.004-0.001,0.005-0.001c0.152-0.029,0.252-0.176,0.222-0.328
		c-0.002-0.009-0.004-0.018-0.007-0.027c-0.034-0.16-0.191-0.263-0.351-0.229c-0.002,0-0.004,0.001-0.005,0.001
		C739.496,598.278,739.401,598.434,739.435,598.591L739.435,598.591z M737.816,591.589c0.042,0.16,0.206,0.256,0.366,0.213
		c0.155-0.041,0.251-0.197,0.216-0.354c-0.041-0.158-0.197-0.257-0.357-0.228C737.881,591.264,737.781,591.426,737.816,591.589
		L737.816,591.589z M728.426,602.234c-0.032,0.154,0.068,0.305,0.222,0.337c0.006,0.001,0.012,0.002,0.018,0.003
		c0.16,0.027,0.312-0.08,0.34-0.24c0.024-0.163-0.081-0.316-0.241-0.352C728.602,601.96,728.452,602.072,728.426,602.234
		L728.426,602.234z M729.611,595.133c-0.028,0.16,0.08,0.312,0.24,0.34s0.312-0.08,0.34-0.24s-0.08-0.312-0.24-0.34
		S729.639,594.973,729.611,595.133z M730.796,588.033c-0.028,0.16,0.08,0.312,0.24,0.34c0.092,0.019,0.187-0.008,0.255-0.071
		l0.012-0.001c0.044-0.047,0.073-0.105,0.085-0.168c0.022-0.162-0.09-0.313-0.252-0.339
		C730.976,587.766,730.824,587.873,730.796,588.033L730.796,588.033z M754.18,603.583c0.087,0.129,0.263,0.162,0.391,0.075
		c0.005-0.003,0.01-0.007,0.015-0.011c0.136-0.091,0.172-0.275,0.08-0.411c-0.002-0.003-0.004-0.006-0.006-0.009
		c-0.1-0.129-0.284-0.157-0.418-0.062c-0.132,0.093-0.164,0.275-0.071,0.407C754.174,603.576,754.177,603.58,754.18,603.583
		L754.18,603.583z M749.996,597.719c0.097,0.134,0.283,0.167,0.42,0.074c0.133-0.1,0.16-0.289,0.06-0.422
		c-0.095-0.126-0.272-0.158-0.405-0.072c-0.135,0.089-0.173,0.27-0.085,0.405C749.989,597.71,749.993,597.715,749.996,597.719
		L749.996,597.719z M713.386,589.973c0.072,0.066,0.185,0.062,0.251-0.011c0.066-0.072,0.062-0.185-0.011-0.251
		s-0.185-0.062-0.251,0.011c0,0,0,0,0,0C713.312,589.795,713.317,589.905,713.386,589.973z M730.073,596.117
		c0.003,0.096,0.084,0.171,0.18,0.168c0.096-0.003,0.171-0.084,0.168-0.18c-0.003-0.096-0.084-0.171-0.18-0.168
		C730.145,595.941,730.069,596.021,730.073,596.117C730.073,596.117,730.073,596.117,730.073,596.117z M729.919,591.875
		c0.009,0.098,0.094,0.171,0.192,0.166c0.096-0.003,0.171-0.084,0.168-0.179c0,0,0,0,0,0c0-0.092-0.074-0.168-0.167-0.168
		c-0.004,0-0.009,0-0.013,0c-0.099-0.001-0.179,0.079-0.18,0.177C729.919,591.873,729.919,591.874,729.919,591.875L729.919,591.875z
		 M729.777,587.632c0.002,0.096,0.082,0.172,0.178,0.17c0.096-0.002,0.172-0.082,0.17-0.178c0-0.001,0-0.003,0-0.004
		c0.001-0.092-0.074-0.168-0.166-0.168c-0.005,0-0.009,0-0.013,0C729.849,587.455,729.774,587.536,729.777,587.632
		C729.777,587.632,729.777,587.632,729.777,587.632L729.777,587.632z M721.83,592.598c0.091,0.027,0.188-0.017,0.227-0.104
		c0.036-0.088-0.007-0.188-0.094-0.223c-0.003-0.001-0.006-0.002-0.009-0.003c-0.085-0.037-0.184,0.003-0.221,0.088
		c-0.002,0.005-0.004,0.01-0.006,0.016C721.693,592.462,721.739,592.563,721.83,592.598L721.83,592.598z M723.327,588.621
		c0.091,0.027,0.188-0.017,0.227-0.104c0.031-0.091-0.015-0.19-0.104-0.227c-0.084-0.039-0.184-0.003-0.224,0.081
		c-0.002,0.004-0.003,0.007-0.005,0.011c-0.039,0.091,0.004,0.195,0.094,0.234C723.319,588.618,723.323,588.62,723.327,588.621
		L723.327,588.621z M737.979,592.073c0.039,0.088,0.141,0.128,0.229,0.089s0.128-0.141,0.089-0.229
		c-0.03-0.085-0.123-0.128-0.208-0.098c-0.007,0.003-0.014,0.006-0.021,0.009c-0.087,0.037-0.128,0.137-0.091,0.224
		C737.977,592.069,737.978,592.071,737.979,592.073L737.979,592.073z M736.216,588.21c0.043,0.09,0.15,0.128,0.241,0.087
		c0.084-0.041,0.119-0.142,0.078-0.226c0,0,0-0.001-0.001-0.001c-0.03-0.085-0.124-0.128-0.208-0.098
		c-0.007,0.003-0.014,0.006-0.021,0.009c-0.087,0.037-0.128,0.137-0.091,0.224C736.214,588.206,736.215,588.208,736.216,588.21
		L736.216,588.21z M712.958,590.104c0.094,0.061,0.22,0.034,0.281-0.061c0.061-0.094,0.034-0.22-0.061-0.281
		c-0.001-0.001-0.002-0.001-0.003-0.002c-0.089-0.058-0.207-0.033-0.265,0.056c-0.001,0.002-0.002,0.003-0.003,0.005
		c-0.065,0.086-0.048,0.208,0.039,0.273C712.95,590.098,712.954,590.101,712.958,590.104L712.958,590.104z M730.356,597.644
		c0.017,0.102,0.113,0.17,0.214,0.153c0.008-0.001,0.015-0.003,0.023-0.005c0.106-0.025,0.172-0.131,0.148-0.237
		c-0.029-0.105-0.13-0.174-0.239-0.16c-0.109,0.028-0.174,0.139-0.146,0.248C730.356,597.643,730.356,597.643,730.356,597.644
		L730.356,597.644z M729.304,592.912c0.028,0.109,0.139,0.174,0.248,0.147c0,0,0.001,0,0.001,0c0.106-0.025,0.172-0.131,0.148-0.237
		c-0.029-0.105-0.13-0.174-0.239-0.16C729.353,592.692,729.285,592.8,729.304,592.912L729.304,592.912z M728.273,588.165
		c0.012,0.103,0.105,0.178,0.209,0.166c0.01-0.001,0.02-0.003,0.03-0.006c0.106-0.025,0.172-0.131,0.148-0.237
		c-0.029-0.105-0.13-0.174-0.239-0.16C728.315,587.954,728.25,588.059,728.273,588.165L728.273,588.165z M720.427,595.429
		c0.023,0.017,0.05,0.03,0.077,0.037c0.107,0.02,0.209-0.051,0.229-0.158c0-0.002,0.001-0.005,0.001-0.007
		c0.017-0.105-0.049-0.206-0.153-0.232l-0.012,0.002c-0.107-0.02-0.209,0.051-0.229,0.157c0,0.002-0.001,0.005-0.001,0.007
		C720.325,595.313,720.36,595.39,720.427,595.429L720.427,595.429z M721.196,590.457c-0.023,0.105,0.045,0.209,0.15,0.231
		c0.001,0,0.002,0,0.003,0.001c0.109,0.019,0.215-0.047,0.244-0.154c0.014-0.111-0.057-0.215-0.166-0.242
		C721.318,590.276,721.215,590.349,721.196,590.457L721.196,590.457z M722.042,585.692c-0.018,0.109,0.055,0.212,0.164,0.23
		c0.109,0.018,0.212-0.055,0.23-0.164c0.018-0.109-0.055-0.212-0.164-0.23c0,0,0,0,0,0c-0.107-0.02-0.209,0.051-0.229,0.158
		C722.043,585.687,722.043,585.69,722.042,585.692L722.042,585.692z M738.521,591.552c0.063,0.09,0.187,0.112,0.278,0.049
		c0.002-0.001,0.004-0.003,0.006-0.004c0.087-0.062,0.108-0.183,0.047-0.271c-0.054-0.09-0.171-0.12-0.262-0.066
		c-0.004,0.002-0.008,0.005-0.011,0.007C738.484,591.331,738.459,591.458,738.521,591.552L738.521,591.552z M735.755,587.576
		c0.055,0.087,0.171,0.112,0.257,0.057c0.005-0.003,0.01-0.006,0.014-0.01c0.09-0.054,0.12-0.171,0.066-0.261
		c-0.002-0.004-0.005-0.008-0.007-0.012c-0.064-0.094-0.19-0.119-0.285-0.057C735.709,587.358,735.689,587.484,735.755,587.576
		C735.755,587.575,735.755,587.575,735.755,587.576L735.755,587.576z M716.647,590.822c-0.029,0.187,0.098,0.363,0.286,0.393
		c0.186,0.029,0.36-0.096,0.392-0.282c0.029-0.187-0.098-0.363-0.286-0.393C716.853,590.511,716.678,590.637,716.647,590.822z
		 M741.954,600.783c0.113,0.15,0.325,0.185,0.48,0.078c0.155-0.11,0.191-0.325,0.08-0.48c-0.11-0.155-0.325-0.191-0.48-0.08
		c-0.001,0.001-0.002,0.001-0.003,0.002C741.88,600.416,741.846,600.629,741.954,600.783L741.954,600.783z M737.062,594.066
		c0.112,0.152,0.326,0.187,0.48,0.078c0.152-0.118,0.185-0.334,0.076-0.492c-0.118-0.151-0.336-0.178-0.487-0.06
		C736.986,593.706,736.956,593.915,737.062,594.066z M732.171,587.349c0.112,0.152,0.326,0.187,0.48,0.078
		c0.15-0.119,0.184-0.333,0.076-0.492c-0.111-0.15-0.322-0.182-0.472-0.072c-0.002,0.002-0.005,0.004-0.007,0.005
		c-0.152,0.099-0.195,0.303-0.096,0.456C732.159,587.333,732.164,587.341,732.171,587.349L732.171,587.349z M727.164,603.119
		c0.046,0.186,0.234,0.301,0.42,0.255c0,0,0,0,0.001,0c0.18-0.045,0.289-0.227,0.245-0.407c0,0,0,0,0,0
		c-0.044-0.183-0.228-0.296-0.411-0.253C727.237,602.758,727.124,602.938,727.164,603.119z M725.215,595.043
		c0.04,0.182,0.22,0.298,0.402,0.258c0.002,0,0.005-0.001,0.007-0.002c0.188-0.04,0.308-0.224,0.268-0.411
		c-0.04-0.188-0.224-0.308-0.411-0.268c-0.188,0.04-0.308,0.224-0.268,0.411C725.213,595.036,725.214,595.04,725.215,595.043z
		 M723.266,586.968c0.048,0.183,0.236,0.291,0.418,0.243c0.178-0.047,0.287-0.227,0.246-0.407c-0.043-0.183-0.225-0.297-0.409-0.257
		C723.335,586.592,723.221,586.781,723.266,586.968C723.267,586.967,723.267,586.967,723.266,586.968L723.266,586.968z
		 M720.865,597.633c0.039,0.187,0.223,0.307,0.41,0.268c0.185-0.035,0.306-0.213,0.272-0.398s-0.213-0.306-0.398-0.272
		c-0.001,0-0.002,0-0.003,0C720.961,597.269,720.837,597.445,720.865,597.633L720.865,597.633z M719.271,589.508
		c0.029,0.18,0.197,0.303,0.377,0.274c0.007-0.001,0.014-0.003,0.021-0.004c0.184-0.037,0.304-0.214,0.27-0.399
		c-0.036-0.185-0.214-0.305-0.399-0.27S719.235,589.323,719.271,589.508z M738.038,603.638c0.109,0.157,0.324,0.197,0.482,0.09
		c0.155-0.105,0.196-0.315,0.091-0.47c-0.096-0.158-0.302-0.207-0.459-0.111c-0.004,0.003-0.008,0.005-0.013,0.008
		c-0.161,0.101-0.209,0.314-0.108,0.474C738.034,603.632,738.036,603.635,738.038,603.638z M733.447,596.746
		c0.109,0.156,0.324,0.197,0.482,0.09c0.155-0.105,0.196-0.315,0.091-0.47c-0.096-0.158-0.302-0.207-0.459-0.111
		c-0.004,0.003-0.008,0.005-0.013,0.008c-0.161,0.101-0.209,0.314-0.108,0.474C733.443,596.74,733.445,596.743,733.447,596.746z
		 M728.857,589.855c0.109,0.157,0.324,0.197,0.482,0.09c0.155-0.105,0.196-0.315,0.091-0.47c-0.104-0.159-0.317-0.204-0.476-0.1
		s-0.204,0.317-0.1,0.476C728.855,589.852,728.856,589.853,728.857,589.855z M724.254,599.584c0.058,0.131,0.21,0.19,0.341,0.133
		c0.127-0.056,0.188-0.202,0.137-0.332c-0.048-0.128-0.191-0.192-0.319-0.144c-0.008,0.003-0.016,0.007-0.024,0.011
		C724.262,599.309,724.202,599.455,724.254,599.584L724.254,599.584z M721.799,593.854c0.057,0.132,0.21,0.193,0.342,0.136
		s0.193-0.21,0.136-0.342c-0.001-0.001-0.001-0.003-0.002-0.004c-0.055-0.13-0.205-0.192-0.335-0.137
		c-0.003,0.001-0.006,0.002-0.008,0.004C721.803,593.571,721.744,593.723,721.799,593.854L721.799,593.854z M719.343,588.113
		c0.058,0.132,0.212,0.191,0.344,0.133c0.132-0.058,0.191-0.212,0.133-0.344c-0.058-0.132-0.212-0.191-0.344-0.133c0,0,0,0,0,0
		C719.346,587.829,719.287,587.981,719.343,588.113L719.343,588.113z M733.128,589.914c0.097,0.099,0.256,0.101,0.355,0.004
		c0.002-0.002,0.004-0.004,0.006-0.006c0.102-0.096,0.107-0.257,0.011-0.359c-0.005-0.005-0.009-0.01-0.014-0.014
		c-0.107-0.095-0.271-0.086-0.366,0.021C733.029,589.662,733.033,589.817,733.128,589.914L733.128,589.914z M728.66,585.559
		c0.108,0.098,0.274,0.091,0.373-0.017c0.093-0.102,0.092-0.259-0.003-0.359c-0.103-0.103-0.27-0.102-0.373,0.001
		c-0.103,0.103-0.102,0.27,0.001,0.373C728.658,585.557,728.659,585.558,728.66,585.559z M713.438,590.7
		c0.071,0.107,0.215,0.135,0.322,0.064c0,0,0,0,0,0c0.102-0.059,0.137-0.189,0.078-0.291c-0.004-0.007-0.008-0.013-0.013-0.019
		c-0.058-0.106-0.19-0.145-0.296-0.087c-0.005,0.003-0.011,0.006-0.016,0.01c-0.109,0.062-0.147,0.201-0.084,0.31
		C713.433,590.691,713.435,590.696,713.438,590.7L713.438,590.7z"/>
	
		<linearGradient id="sweater_1_" gradientUnits="userSpaceOnUse" x1="706.3738" y1="187.9797" x2="768.7708" y2="110.5213" gradientTransform="matrix(1 0 0 -1 0 722)">
		<stop  offset="0" style="stop-color:#A1C3FC"/>
		<stop  offset="0.3464" style="stop-color:#91B9F7"/>
		<stop  offset="0.6955" style="stop-color:#81AEF2"/>
		<stop  offset="1" style="stop-color:#78A9EF"/>
	</linearGradient>
	<path id="sweater" style="fill:url(#sweater_1_);" d="M749.63,570.36c-38.55,26.68-56.6,18.92-56.6,18.92
		c-9.6-7.77-7.28-22.66,0.42-39.55c3.86-8.45,5.67-21.62,12.75-34.18c5.028-8.673,11.95-16.098,20.25-21.72
		c1.269,0.217,2.504,0.604,3.67,1.15l-0.21,0.86c1.22,0.94,2.32,1.7,3.3,2.32c0.19,0.12,0.38,0.23,0.56,0.34
		c0.08,0.05,0.15,0.09,0.23,0.13c0.17,0.1,0.33,0.19,0.49,0.28c0.963,0.549,1.978,1.001,3.03,1.35L749.63,570.36z"/>
	<path id="R_sleeve" style="fill:#A1C3FC;" d="M725.662,492.232L725.662,492.232c-25.227,29.124-16.46,61.479-6.248,79.614
		s24.897,16.588,30.916,14.337s10.845-5.407,22.94-1.032c10.754,3.89,22.576-2.811,22.576-2.811l-15.926-36.076
		c-5.541,1.915-11.41,2.7-17.259,2.307c-6.439-0.554-11.771-3.63-14.438-7.322c-7.982-11.052-7.631-40.739-7.631-40.739
		S736.754,502.4,725.662,492.232z"/>
	<path id="hair" style="fill:#23286B;" d="M713.846,456.368c-8.74,6.773-7.825,17.687-6.529,20.436
		c1.435,2.764,2.718,5.604,3.843,8.508c0.167,0.638,0.318,1.28,0.429,1.932c0.508,2.971-0.024,5.57-0.501,8.461
		c-0.539,3.265-0.518,6.388,1.997,8.801c0.31,0.298,0.706-0.243,0.399-0.538c-3.878-3.721-1.076-9.082-0.966-13.614
		c0.224,1.268,0.258,2.563,0.099,3.841c-0.577,3.382,0.018,6.86,1.688,9.858c17.515-1.766,28.222-14.986,28.222-14.986
		c-5.129-4.134-8.138-7.319-8.912-11.097c1.7,4.96,5.864,8.674,10.986,9.797c0.418,0.1,0.488-0.566,0.073-0.666
		c-6.202-1.35-10.744-6.667-11.109-13.003c0.433-2.31,1.206-4.542,2.295-6.625c4.854-9.931,0.301-14.706,0.301-14.706
		c2.901,0.419,7.512,3.385,7.512,3.385C735.6,443.55,722.586,449.595,713.846,456.368z"/>
	<path id="eyeglasses" style="fill:#3E8AF8;" d="M751.646,453.807c-0.853-2.535-3.188-4.336-5.208-4.02h-0.001
		c-2.019,0.32-2.968,2.642-2.116,5.177c0.1,0.293,0.22,0.579,0.359,0.856c-1.083,0.513-1.867,1.499-2.124,2.669
		c-0.117-0.106-0.226-0.223-0.349-0.32c-0.979-0.85-2.267-1.253-3.555-1.114c-2.336,0.37-3.431,3.061-2.443,6.001
		c0.465,1.397,1.323,2.629,2.472,3.549c0.793,0.661,1.769,1.062,2.798,1.151c0.253,0.014,0.507,0.002,0.758-0.037
		c1.146-0.18,2.1-0.974,2.486-2.068c0.446-1.276,0.431-2.667-0.043-3.932c-0.333-0.978-0.858-1.881-1.544-2.654
		c0.314-1.031,0.804-2.245,1.908-2.613c0.034,0.053,0.073,0.101,0.109,0.153c0.06,0.035,0.109,0.086,0.144,0.146l0.012,0.019
		c0.006,0.005,0.013,0.007,0.019,0.013c0.654,0.674,1.428,1.221,2.282,1.612c0.379,0.15,0.765,0.272,1.152,0.393
		c0.091,0.022,0.179,0.058,0.269,0.086c0.123,0.039,0.246,0.077,0.369,0.118c0.043-0.003,0.087,0,0.13-0.006
		C751.549,458.663,752.498,456.341,751.646,453.807z M744.014,461.822c0.423,1.124,0.44,2.36,0.047,3.494
		c-0.314,0.909-1.1,1.573-2.049,1.729c-1.07,0.11-2.138-0.23-2.947-0.94c-1.018-0.818-1.779-1.914-2.189-3.154
		c-0.864-2.57,0.034-4.913,2.003-5.224c0.202-0.032,0.406-0.042,0.61-0.03c0.86,0.077,1.675,0.416,2.337,0.97
		C742.844,459.486,743.604,460.581,744.014,461.822z M749.304,458.31c-1.657,0.261-3.589-1.288-4.316-3.452
		c-0.728-2.165,0.024-4.138,1.676-4.399c1.657-0.262,3.59,1.289,4.316,3.452C751.708,456.076,750.956,458.05,749.304,458.31
		L749.304,458.31z"/>
</g>
</svg>
