<?xml version="1.0" encoding="iso-8859-1"?>
<!-- Generator: Adobe Illustrator 23.0.2, SVG Export Plug-In . SVG Version: 6.00 Build 0)  -->
<svg version="1.1" id="illustration" xmlns="http://www.w3.org/2000/svg" xmlns:xlink="http://www.w3.org/1999/xlink" x="0px"
	 y="0px" viewBox="0 0 1080 720" style="enable-background:new 0 0 1080 720;" xml:space="preserve">
<linearGradient id="R_hand_1_" gradientUnits="userSpaceOnUse" x1="686.1821" y1="420.9848" x2="701.6699" y2="402.2416" gradientTransform="matrix(1 0 0 -1 0 722)">
	<stop  offset="0" style="stop-color:#FFBEB6"/>
	<stop  offset="1" style="stop-color:#F2A19C"/>
</linearGradient>
<path id="R_hand" style="fill:url(#R_hand_1_);" d="M691.073,308.276l-7.759,8.199c-1.219-7.455-4.362-14.463-9.12-20.33
	c-7.24-9.33-5.61-14.03-1.89-18.55c3.72-4.53,4.3-2.49,5.12,1.31c0.83,3.8,2.47,8.74,4.17,9.82c1.69,1.08,2.19-2.81,4.65-3.85
	c2.45-1.04,2.85,0.57,2.01,1.36c-1.786,1.823-3.4,3.809-4.82,5.93c-1.49,2.31-1.75,2.78,1.03,7.05
	C686.472,302.372,688.68,305.398,691.073,308.276z"/>
<title>uploading</title>
<g id="geometry">
	<g id="ladder">
		
			<linearGradient id="SVGID_1_" gradientUnits="userSpaceOnUse" x1="642.9512" y1="196.1965" x2="674.5166" y2="196.1965" gradientTransform="matrix(1 0 0 -1 0 722)">
			<stop  offset="0.0898" style="stop-color:#EEEEEE"/>
			<stop  offset="0.8178" style="stop-color:#D6D7D8"/>
		</linearGradient>
		<polygon style="fill:url(#SVGID_1_);" points="646.285,641.467 668.223,413.14 674.517,413.14 674.517,410.14 665.498,410.14 
			643.271,641.467 		"/>
		
			<linearGradient id="SVGID_2_" gradientUnits="userSpaceOnUse" x1="671.014" y1="196.1965" x2="783.6888" y2="196.1965" gradientTransform="matrix(1 0 0 -1 0 722)">
			<stop  offset="0.0898" style="stop-color:#EEEEEE"/>
			<stop  offset="0.8178" style="stop-color:#D6D7D8"/>
		</linearGradient>
		<polygon style="fill:url(#SVGID_2_);" points="704.193,641.467 674.43,413.14 740.415,413.14 780.392,641.467 783.438,641.467 
			743.152,411.381 742.934,410.14 671.014,410.14 701.168,641.467 		"/>
		<g>
			
				<linearGradient id="SVGID_3_" gradientUnits="userSpaceOnUse" x1="680.83" y1="258.28" x2="749.53" y2="258.28" gradientTransform="matrix(1 0 0 -1 0 722)">
				<stop  offset="0.0898" style="stop-color:#EEEEEE"/>
				<stop  offset="0.8178" style="stop-color:#D6D7D8"/>
			</linearGradient>
			<polygon style="fill:url(#SVGID_3_);" points="749.53,465.22 681.22,465.22 680.83,462.22 749,462.22 			"/>
			
				<linearGradient id="SVGID_4_" gradientUnits="userSpaceOnUse" x1="684.62" y1="229.15" x2="754.63" y2="229.15" gradientTransform="matrix(1 0 0 -1 0 722)">
				<stop  offset="0.0898" style="stop-color:#EEEEEE"/>
				<stop  offset="0.8178" style="stop-color:#D6D7D8"/>
			</linearGradient>
			<polygon style="fill:url(#SVGID_4_);" points="754.63,494.35 685.01,494.35 684.62,491.35 754.1,491.35 			"/>
			
				<linearGradient id="SVGID_5_" gradientUnits="userSpaceOnUse" x1="688.43" y1="199.91" x2="759.75" y2="199.91" gradientTransform="matrix(1 0 0 -1 0 722)">
				<stop  offset="0.0898" style="stop-color:#EEEEEE"/>
				<stop  offset="0.8178" style="stop-color:#D6D7D8"/>
			</linearGradient>
			<polygon style="fill:url(#SVGID_5_);" points="759.75,523.59 688.83,523.59 688.43,520.59 759.22,520.59 			"/>
			
				<linearGradient id="SVGID_6_" gradientUnits="userSpaceOnUse" x1="692.23" y1="170.78" x2="764.85" y2="170.78" gradientTransform="matrix(1 0 0 -1 0 722)">
				<stop  offset="0.0898" style="stop-color:#EEEEEE"/>
				<stop  offset="0.8178" style="stop-color:#D6D7D8"/>
			</linearGradient>
			<polygon style="fill:url(#SVGID_6_);" points="764.85,552.72 692.62,552.72 692.23,549.72 764.32,549.72 			"/>
			
				<linearGradient id="SVGID_7_" gradientUnits="userSpaceOnUse" x1="676.85" y1="287.49" x2="744.41" y2="287.49" gradientTransform="matrix(1 0 0 -1 0 722)">
				<stop  offset="0.0898" style="stop-color:#EEEEEE"/>
				<stop  offset="0.8178" style="stop-color:#D6D7D8"/>
			</linearGradient>
			<polygon style="fill:url(#SVGID_7_);" points="744.41,436.01 677.24,436.01 676.85,433.01 743.89,433.01 			"/>
			
				<linearGradient id="SVGID_8_" gradientUnits="userSpaceOnUse" x1="696.04" y1="141.53" x2="769.97" y2="141.53" gradientTransform="matrix(1 0 0 -1 0 722)">
				<stop  offset="0.0898" style="stop-color:#EEEEEE"/>
				<stop  offset="0.8178" style="stop-color:#D6D7D8"/>
			</linearGradient>
			<polygon style="fill:url(#SVGID_8_);" points="769.97,581.97 696.43,581.97 696.04,578.97 769.45,578.97 			"/>
			
				<linearGradient id="SVGID_9_" gradientUnits="userSpaceOnUse" x1="699.84" y1="112.4" x2="775.07" y2="112.4" gradientTransform="matrix(1 0 0 -1 0 722)">
				<stop  offset="0.0898" style="stop-color:#EEEEEE"/>
				<stop  offset="0.8178" style="stop-color:#D6D7D8"/>
			</linearGradient>
			<polygon style="fill:url(#SVGID_9_);" points="775.07,611.1 700.23,611.1 699.84,608.1 774.55,608.1 			"/>
		</g>
	</g>
	
		<linearGradient id="R_sleeve_1_" gradientUnits="userSpaceOnUse" x1="704.6349" y1="413.7643" x2="701.22" y2="378.0966" gradientTransform="matrix(1 0 0 -1 0 722)">
		<stop  offset="0" style="stop-color:#A1C3FC"/>
		<stop  offset="0.6955" style="stop-color:#81AEF2"/>
		<stop  offset="1" style="stop-color:#78A9EF"/>
	</linearGradient>
	<path id="R_sleeve" style="fill:url(#R_sleeve_1_);" d="M715.263,306.013c0,0,3.328,4.144-3.74,8.212s-8.981,3.279-14.099-2.002
		s-5.913-6.729-5.913-6.729l-18.949,20.069c0,0,2.341,7.722,9.66,9.841s9.524,3.344,12.362,6.194s9.858,8.482,21.833,6.193
		c18.336-3.505,17.669-35.345,4.982-48.5l15.361-8.924"/>
	<polygon id="triangle" style="fill:#E94A47;" points="683.742,170.075 514.983,258.326 694.064,360.51 	"/>
	<path id="half_a_circle" style="fill:#428DFC;" d="M244.401,600.18c38.074,47.373,107.343,54.912,154.716,16.838
		c41.323-33.212,53.093-91.165,27.999-137.866L244.401,600.18z"/>
	
		<linearGradient id="circle_1_" gradientUnits="userSpaceOnUse" x1="581.4348" y1="366.6441" x2="533.6862" y2="133.778" gradientTransform="matrix(1 0 0 -1 0 722)">
		<stop  offset="0.0898" style="stop-color:#EEEEEE"/>
		<stop  offset="0.8178" style="stop-color:#D6D7D8"/>
	</linearGradient>
	<circle id="circle" style="fill:url(#circle_1_);" cx="573.069" cy="396.153" r="85.24"/>
	
		<linearGradient id="square_1_" gradientUnits="userSpaceOnUse" x1="551.0682" y1="219.864" x2="634.6607" y2="-5.1328" gradientTransform="matrix(1 0 0 -1 0 722)">
		<stop  offset="0" style="stop-color:#23286B"/>
		<stop  offset="1" style="stop-color:#151A4F"/>
	</linearGradient>
	<rect id="square" x="493.122" y="481.407" style="fill:url(#square_1_);" width="159.895" height="159.895"/>
</g>
<g id="woman">
	
		<linearGradient id="R_shoe_1_" gradientUnits="userSpaceOnUse" x1="690.6542" y1="280.1041" x2="717.2201" y2="263.8137" gradientTransform="matrix(1 0 0 -1 0 722)">
		<stop  offset="0.1291" style="stop-color:#428DFC"/>
		<stop  offset="0.9987" style="stop-color:#1D72D8"/>
	</linearGradient>
	<path id="R_shoe" style="fill:url(#R_shoe_1_);" d="M729.081,442.702l6.996,19.516l-49.391,0.002c0,0,2.533-4.885,10.975-8.503
		s16.322-11.015,16.322-11.015H729.081"/>
	<path id="L_shoe" style="fill:#428DFC;" d="M745.416,470.696l7.407,20.662l-52.291,0.002c0,0,2.681-5.172,11.619-9.002
		s17.281-11.661,17.281-11.661L745.416,470.696"/>
	
		<linearGradient id="R_trousers_1_" gradientUnits="userSpaceOnUse" x1="657.6561" y1="326.6096" x2="706.9877" y2="330.1124" gradientTransform="matrix(1 0 0 -1 0 722)">
		<stop  offset="0" style="stop-color:#23286B"/>
		<stop  offset="1" style="stop-color:#151A4F"/>
	</linearGradient>
	<path id="R_trousers" style="fill:url(#R_trousers_1_);" d="M707.308,339.581c0,0-7.324,21.81-11.228,32.289
		c-4.005,10.75-5.113,16.565,1.451,31.212c5.18,11.559,16.454,39.621,16.454,39.621h13.693c1.188-6.575,0.828-13.337-1.053-19.749
		c-3.16-10.006-5.53-8.69-6.32-16.062s-8.953-12.376-3.686-24.489s14.005-10.235,22.67-43.562L707.308,339.581z"/>
	
		<linearGradient id="L_trousers_1_" gradientUnits="userSpaceOnUse" x1="703.0046" y1="312.7433" x2="745.4188" y2="312.7433" gradientTransform="matrix(1 0 0 -1 0 722)">
		<stop  offset="0" style="stop-color:#23286B"/>
		<stop  offset="1" style="stop-color:#151A4F"/>
	</linearGradient>
	<path id="L_trousers" style="fill:url(#L_trousers_1_);" d="M745.419,470.696h-15.986c0,0-24.754-55.592-25.915-66.898
		c-1.15-11.301-0.228-24.775,1.389-35.869c0.196-1.341,1.27-18.077,1.492-19.37c4.576-0.32,9.168-0.37,13.75-0.151
		c0.792,0.02,9.351-0.055,11.653-0.255c2.348-0.011,4.553-0.138,6.578-0.334c-0.032,5.608-1.134,13.092-4.58,22.724
		c-9.244,25.867-2.306,29.561,0.694,37.39c3.005,7.818,4.622,12.605,3.933,19.999c-0.694,7.394,2.767,5.433,4.622,15.001
		C744.894,452.493,745.419,470.696,745.419,470.696z"/>
	<path id="texture" style="opacity:0.86;fill:#FFFFFF;enable-background:new    ;" d="M720.546,363.6
		c0.012-0.06-0.027-0.117-0.086-0.129c-0.06-0.012-0.117,0.027-0.129,0.086c-0.012,0.059,0.027,0.117,0.086,0.129l0,0
		C720.476,363.699,720.534,363.66,720.546,363.6C720.546,363.6,720.546,363.6,720.546,363.6z M721.09,360.971
		c0.015-0.055-0.019-0.112-0.074-0.127c-0.004-0.001-0.008-0.002-0.012-0.002c-0.06-0.014-0.12,0.022-0.135,0.081
		c-0.009,0.062,0.031,0.12,0.092,0.134C721.02,361.069,721.078,361.03,721.09,360.971C721.09,360.971,721.09,360.971,721.09,360.971
		z M711.169,357.159c-0.035-0.048-0.102-0.059-0.151-0.025c-0.05,0.026-0.069,0.089-0.043,0.139
		c0.002,0.004,0.005,0.008,0.008,0.012c0.035,0.052,0.104,0.065,0.156,0.031c0.052-0.035,0.065-0.104,0.031-0.156
		C711.17,357.16,711.17,357.159,711.169,357.159L711.169,357.159z M726.146,362.149c-0.012-0.058-0.068-0.096-0.127-0.085
		c-0.058,0.012-0.096,0.068-0.085,0.127s0.068,0.096,0.127,0.085c0,0,0,0,0,0c0.056-0.008,0.095-0.06,0.087-0.116
		C726.147,362.156,726.147,362.153,726.146,362.149z M716.016,360.081c-0.052-0.036-0.123-0.023-0.159,0.029
		c-0.036,0.052-0.023,0.123,0.029,0.159s0.123,0.023,0.159-0.029C716.081,360.188,716.068,360.117,716.016,360.081z M732.28,372.243
		c-0.027-0.112-0.139-0.181-0.251-0.155c-0.002,0.001-0.005,0.001-0.007,0.002c-0.11,0.028-0.177,0.141-0.148,0.251
		c0,0.001,0,0.001,0,0.002c0.027,0.112,0.139,0.181,0.251,0.155c0.002-0.001,0.005-0.001,0.007-0.002
		c0.11-0.028,0.177-0.141,0.148-0.251C732.281,372.244,732.281,372.243,732.28,372.243z M730.99,367.307
		c-0.028-0.11-0.141-0.177-0.251-0.148c-0.001,0-0.001,0-0.002,0c-0.114,0.029-0.182,0.145-0.153,0.258
		c0.029,0.113,0.145,0.182,0.258,0.153l0,0C730.954,367.536,731.019,367.42,730.99,367.307L730.99,367.307z M712.229,374.124
		c-0.1-0.059-0.229-0.026-0.29,0.073c-0.058,0.096-0.028,0.22,0.068,0.279c0.003,0.002,0.007,0.004,0.01,0.006
		c0.1,0.059,0.229,0.026,0.29-0.073C712.364,374.309,712.329,374.181,712.229,374.124
		C712.229,374.124,712.229,374.124,712.229,374.124L712.229,374.124z M714.799,369.721c-0.1-0.057-0.227-0.022-0.284,0.078
		c0,0,0,0,0,0c-0.06,0.1-0.027,0.23,0.073,0.29c0.1,0.06,0.23,0.027,0.29-0.073C714.932,369.912,714.898,369.784,714.799,369.721
		L714.799,369.721z M717.375,365.323c-0.104-0.055-0.232-0.021-0.295,0.078c-0.058,0.096-0.028,0.22,0.068,0.279
		c0.003,0.002,0.007,0.004,0.01,0.006c0.097,0.061,0.225,0.031,0.286-0.066c0.001-0.002,0.003-0.004,0.004-0.006
		C717.507,365.512,717.475,365.383,717.375,365.323L717.375,365.323z M719.941,360.925c-0.1-0.057-0.227-0.022-0.284,0.078
		c0,0,0,0,0,0c-0.059,0.101-0.026,0.23,0.075,0.289c0.101,0.059,0.23,0.026,0.289-0.075s0.026-0.23-0.075-0.289
		C719.944,360.927,719.943,360.926,719.941,360.925z M723.352,375.579c0.019-0.117-0.06-0.227-0.177-0.246s-0.227,0.06-0.246,0.176
		c-0.019,0.117,0.06,0.227,0.176,0.246c0.001,0,0.003,0,0.004,0.001C723.226,375.772,723.333,375.693,723.352,375.579
		L723.352,375.579z M724.046,370.53c0.019-0.117-0.06-0.227-0.176-0.246c-0.117-0.019-0.227,0.06-0.246,0.176
		c-0.019,0.117,0.06,0.227,0.176,0.246c0.001,0,0.003,0,0.004,0.001C723.919,370.724,724.027,370.645,724.046,370.53L724.046,370.53
		z M724.739,365.482c0.011-0.117-0.071-0.223-0.188-0.242c-0.118-0.013-0.224,0.071-0.237,0.189
		c-0.013,0.113,0.065,0.217,0.178,0.235C724.61,365.678,724.718,365.599,724.739,365.482L724.739,365.482z M706.395,365.718
		c-0.066-0.09-0.192-0.11-0.282-0.044c-0.004,0.003-0.009,0.007-0.013,0.01c-0.091,0.068-0.109,0.197-0.041,0.288
		c0,0.001,0.001,0.001,0.001,0.002c0.07,0.093,0.201,0.113,0.296,0.044C706.445,365.943,706.462,365.813,706.395,365.718
		L706.395,365.718z M710.454,362.645c-0.068-0.094-0.199-0.115-0.292-0.047c-0.001,0.001-0.002,0.002-0.003,0.002
		c-0.093,0.07-0.113,0.201-0.044,0.296c0.075,0.089,0.205,0.106,0.301,0.039c0.091-0.068,0.109-0.197,0.041-0.288
		C710.456,362.647,710.455,362.646,710.454,362.645L710.454,362.645z M714.513,359.562c-0.07-0.093-0.201-0.113-0.296-0.044
		c-0.093,0.068-0.113,0.199-0.045,0.292c0.002,0.003,0.004,0.006,0.007,0.008c0.065,0.09,0.192,0.111,0.282,0.045
		c0.003-0.002,0.005-0.004,0.008-0.006C714.562,359.788,714.582,359.656,714.513,359.562L714.513,359.562z M728.271,376.124
		c0.004-0.103-0.077-0.19-0.18-0.194c-0.103-0.004-0.19,0.077-0.194,0.18c0,0,0,0,0,0c-0.004,0.103,0.077,0.19,0.18,0.194
		C728.18,376.307,728.267,376.227,728.271,376.124z M728.455,371.58c0.004-0.103-0.077-0.19-0.18-0.194s-0.19,0.077-0.194,0.18
		s0.077,0.19,0.18,0.194c0.101,0.006,0.188-0.071,0.194-0.172C728.455,371.586,728.455,371.583,728.455,371.58L728.455,371.58z
		 M728.645,367.031c0.007-0.035-0.001-0.071-0.021-0.1l-0.006-0.005c-0.033-0.053-0.091-0.086-0.154-0.089
		c-0.106-0.004-0.195,0.078-0.199,0.184c0,0.001,0,0.001,0,0.002c-0.003,0.103,0.077,0.189,0.18,0.194
		c0.047,0.003,0.093-0.014,0.126-0.049C728.618,367.138,728.646,367.087,728.645,367.031L728.645,367.031z M710.856,367.944
		c-0.07-0.076-0.189-0.081-0.265-0.011c-0.001,0.001-0.002,0.002-0.003,0.002c-0.076,0.065-0.085,0.18-0.019,0.256
		c0.002,0.002,0.004,0.004,0.005,0.006c0.073,0.076,0.193,0.082,0.273,0.013C710.92,368.138,710.924,368.022,710.856,367.944
		L710.856,367.944z M714.2,364.864c-0.07-0.076-0.189-0.081-0.265-0.011c-0.001,0.001-0.002,0.002-0.003,0.002
		c-0.076,0.065-0.085,0.18-0.019,0.256c0.002,0.002,0.004,0.004,0.005,0.006c0.069,0.076,0.186,0.082,0.262,0.014
		C714.259,365.062,714.267,364.943,714.2,364.864L714.2,364.864z M717.545,361.783c-0.07-0.076-0.189-0.081-0.265-0.011
		c-0.001,0.001-0.002,0.002-0.003,0.002c-0.076,0.062-0.087,0.173-0.026,0.249c0.004,0.005,0.008,0.009,0.012,0.013
		c0.07,0.076,0.189,0.081,0.265,0.011c0.001-0.001,0.002-0.002,0.003-0.002C717.605,361.976,717.611,361.86,717.545,361.783
		L717.545,361.783z M734.333,363.88c-0.04-0.095-0.147-0.144-0.245-0.111c-0.098,0.038-0.148,0.147-0.111,0.245
		c0.041,0.097,0.152,0.143,0.249,0.102C734.318,364.078,734.365,363.974,734.333,363.88z M719.976,371.742
		c-0.096-0.038-0.206,0.004-0.251,0.098c-0.042,0.093-0.001,0.204,0.092,0.246c0.094,0.044,0.206,0.006,0.252-0.087
		C720.113,371.902,720.072,371.788,719.976,371.742L719.976,371.742z M721.888,367.616c-0.096-0.039-0.206,0.004-0.251,0.098
		c-0.042,0.093-0.001,0.204,0.092,0.246c0.089,0.044,0.197,0.008,0.242-0.082c0.002-0.003,0.003-0.007,0.005-0.01
		C722.019,367.774,721.981,367.662,721.888,367.616L721.888,367.616z M723.795,363.496c-0.089-0.044-0.197-0.008-0.242,0.082
		c-0.002,0.003-0.003,0.007-0.005,0.01c-0.043,0.093-0.001,0.204,0.092,0.246c0.093,0.043,0.204,0.001,0.246-0.092l0,0
		c0.044-0.089,0.008-0.197-0.082-0.242C723.802,363.499,723.798,363.497,723.795,363.496L723.795,363.496z M708.178,359.155
		c-0.036-0.097-0.142-0.148-0.24-0.116c-0.097,0.035-0.148,0.142-0.113,0.239c0.001,0.002,0.002,0.004,0.002,0.006
		c0.03,0.094,0.13,0.145,0.224,0.115c0.004-0.001,0.007-0.002,0.011-0.004c0.097-0.031,0.151-0.135,0.119-0.232
		C708.18,359.161,708.179,359.158,708.178,359.155L708.178,359.155z M712.443,357.582c-0.041-0.097-0.153-0.142-0.25-0.102
		c-0.092,0.039-0.138,0.142-0.107,0.236c0.039,0.097,0.147,0.146,0.245,0.111c0.097-0.033,0.148-0.138,0.115-0.235
		C712.446,357.589,712.445,357.586,712.443,357.582L712.443,357.582z M734.284,366.704c-0.009-0.061-0.066-0.104-0.127-0.095
		c-0.061,0.009-0.104,0.066-0.095,0.127s0.066,0.104,0.127,0.095l0,0C734.249,366.821,734.291,366.765,734.284,366.704
		L734.284,366.704z M733.877,364.057c-0.009-0.061-0.066-0.104-0.127-0.095c-0.061,0.009-0.104,0.066-0.095,0.127
		c0.009,0.061,0.066,0.104,0.127,0.095C733.843,364.173,733.884,364.117,733.877,364.057L733.877,364.057z M723.272,363.937
		c-0.049-0.036-0.118-0.025-0.154,0.023c-0.036,0.049-0.025,0.118,0.023,0.154s0.118,0.025,0.154-0.023
		C723.331,364.042,723.321,363.973,723.272,363.937C723.272,363.937,723.272,363.937,723.272,363.937L723.272,363.937z
		 M724.858,361.774c-0.046-0.036-0.112-0.029-0.149,0.017c-0.002,0.002-0.003,0.004-0.005,0.007
		c-0.036,0.049-0.026,0.118,0.023,0.153c0,0,0,0,0,0c0.049,0.037,0.12,0.029,0.159-0.018c0.036-0.051,0.024-0.121-0.027-0.157
		C724.859,361.775,724.859,361.775,724.858,361.774L724.858,361.774z M728.984,365.111c0.017-0.056-0.015-0.115-0.071-0.132
		c-0.003-0.001-0.007-0.002-0.01-0.003c-0.058-0.016-0.117,0.018-0.133,0.075c-0.001,0.002-0.001,0.004-0.002,0.006
		c-0.01,0.059,0.024,0.116,0.081,0.135C728.908,365.206,728.969,365.17,728.984,365.111L728.984,365.111z M734.4,369.984
		c0.004-0.067-0.048-0.124-0.114-0.127c-0.001,0-0.003,0-0.004,0c-0.068-0.005-0.127,0.046-0.132,0.114c0,0.003,0,0.006,0,0.01
		c-0.004,0.067,0.048,0.124,0.114,0.127c0.001,0,0.003,0,0.004,0C734.338,370.11,734.397,370.055,734.4,369.984L734.4,369.984z
		 M734.492,366.923c0.004-0.067-0.048-0.124-0.114-0.127c-0.001,0-0.003,0-0.004,0c-0.071-0.002-0.13,0.054-0.131,0.125
		c-0.002,0.07,0.053,0.128,0.122,0.131c0.068,0.002,0.125-0.051,0.127-0.119C734.492,366.93,734.492,366.927,734.492,366.923
		L734.492,366.923z M734.588,363.867c0.002-0.071-0.053-0.13-0.124-0.133c-0.071-0.002-0.13,0.053-0.133,0.124
		c-0.005,0.006,0,0.011,0.001,0.021c0.011,0.061,0.061,0.107,0.123,0.111C734.526,363.993,734.585,363.938,734.588,363.867
		L734.588,363.867z M722.616,364.604c-0.052-0.046-0.129-0.047-0.181-0.002c-0.05,0.047-0.054,0.125-0.007,0.176
		c0.041,0.051,0.115,0.058,0.166,0.017c0.004-0.003,0.007-0.006,0.011-0.01C722.657,364.74,722.663,364.658,722.616,364.604
		C722.617,364.604,722.617,364.604,722.616,364.604L722.616,364.604z M724.845,362.506c-0.052-0.046-0.129-0.047-0.181-0.002
		c-0.05,0.047-0.054,0.125-0.007,0.176c0.046,0.054,0.128,0.06,0.181,0.013c0,0,0,0,0.001-0.001
		C724.888,362.641,724.891,362.561,724.845,362.506L724.845,362.506z M728.685,367.099c0.03-0.062,0.004-0.136-0.057-0.166
		c-0.001-0.001-0.003-0.001-0.004-0.002l-0.006-0.005c-0.063-0.023-0.134,0.006-0.162,0.067c-0.03,0.062-0.004,0.136,0.058,0.166
		c0.001,0.001,0.003,0.001,0.004,0.002c0.017,0.006,0.035,0.009,0.054,0.008C728.62,367.172,728.666,367.144,728.685,367.099
		L728.685,367.099z M729.88,364.133c-0.066-0.025-0.141,0.004-0.173,0.067c-0.023,0.066,0.008,0.139,0.072,0.167
		c0.062,0.027,0.135-0.002,0.161-0.065c0-0.001,0-0.001,0.001-0.002C729.971,364.238,729.943,364.163,729.88,364.133L729.88,364.133
		z M725.325,380.054c-0.109-0.052-0.239-0.008-0.294,0.1c-0.05,0.109-0.003,0.237,0.105,0.288c0.109,0.05,0.238,0.007,0.294-0.1
		C725.48,380.234,725.433,380.105,725.325,380.054L725.325,380.054z M727.575,375.309c-0.109-0.051-0.238-0.004-0.288,0.105
		c-0.051,0.109-0.004,0.238,0.105,0.288c0.109,0.051,0.238,0.004,0.288-0.105C727.73,375.489,727.683,375.36,727.575,375.309
		L727.575,375.309z M729.83,370.569c-0.106-0.055-0.236-0.013-0.291,0.093s-0.013,0.236,0.093,0.291
		c0.003,0.001,0.006,0.003,0.009,0.004c0.109,0.052,0.239,0.008,0.294-0.1C729.985,370.749,729.939,370.62,729.83,370.569
		L729.83,370.569z M732.08,365.824c-0.107-0.051-0.235-0.006-0.286,0.1c-0.001,0.001-0.001,0.003-0.002,0.004
		c-0.051,0.109-0.004,0.238,0.105,0.288c0.109,0.051,0.238,0.004,0.288-0.105c0.051-0.107,0.006-0.235-0.1-0.286
		C732.083,365.825,732.082,365.825,732.08,365.824L732.08,365.824z M710.621,363.773c-0.042-0.113-0.169-0.171-0.282-0.129
		c-0.11,0.041-0.168,0.16-0.133,0.272c0.044,0.113,0.168,0.173,0.284,0.136C710.602,364.009,710.659,363.886,710.621,363.773
		L710.621,363.773z M715.566,362.013c-0.04-0.113-0.164-0.173-0.277-0.133s-0.173,0.164-0.133,0.277
		c0,0.001,0.001,0.002,0.001,0.003c0.04,0.113,0.164,0.173,0.277,0.133s0.173-0.164,0.133-0.277
		C715.567,362.015,715.566,362.014,715.566,362.013z M720.511,360.252c-0.036-0.112-0.156-0.174-0.268-0.138
		c-0.002,0.001-0.004,0.001-0.005,0.002c-0.113,0.044-0.173,0.168-0.136,0.284c0.042,0.112,0.166,0.17,0.278,0.13
		c0.112-0.038,0.171-0.16,0.133-0.271C720.513,360.257,720.512,360.254,720.511,360.252z M718.436,371.993
		c-0.079-0.087-0.214-0.094-0.301-0.015c-0.001,0.001-0.002,0.002-0.003,0.003c-0.089,0.079-0.099,0.214-0.023,0.305
		c0.084,0.085,0.218,0.092,0.31,0.017C718.509,372.222,718.517,372.083,718.436,371.993
		C718.436,371.993,718.436,371.993,718.436,371.993L718.436,371.993z M722.33,368.475c-0.075-0.087-0.207-0.097-0.294-0.021
		c-0.004,0.003-0.007,0.006-0.01,0.01c-0.088,0.078-0.095,0.212-0.018,0.299c0,0,0,0,0,0c0.081,0.09,0.22,0.098,0.31,0.017
		c0,0,0,0,0,0c0.087-0.075,0.097-0.207,0.022-0.294C722.336,368.482,722.333,368.478,722.33,368.475L722.33,368.475z
		 M726.229,364.951c-0.083-0.088-0.222-0.091-0.31-0.008c-0.086,0.082-0.091,0.218-0.011,0.306c0.079,0.087,0.214,0.094,0.301,0.015
		c0.001-0.001,0.002-0.002,0.003-0.003C726.302,365.181,726.31,365.042,726.229,364.951
		C726.229,364.951,726.229,364.951,726.229,364.951L726.229,364.951z M720.101,375.182c-0.084-0.087-0.222-0.09-0.309-0.006
		c-0.087,0.084-0.09,0.222-0.006,0.309c0.084,0.087,0.222,0.09,0.309,0.006C720.182,375.408,720.184,375.269,720.101,375.182
		C720.101,375.182,720.101,375.182,720.101,375.182L720.101,375.182z M723.833,371.517c-0.089-0.083-0.226-0.083-0.315-0.001
		c-0.08,0.085-0.081,0.218-0.001,0.304c0.084,0.087,0.222,0.09,0.31,0.006C723.911,371.742,723.913,371.605,723.833,371.517
		L723.833,371.517z M727.554,367.853c-0.084-0.084-0.22-0.085-0.304-0.001s-0.085,0.22-0.001,0.304
		c0.084,0.087,0.222,0.09,0.31,0.006C727.64,368.074,727.638,367.938,727.554,367.853L727.554,367.853z M731.286,364.188
		c-0.082-0.084-0.216-0.086-0.3-0.005c-0.001,0.001-0.002,0.002-0.004,0.004c-0.083,0.084-0.084,0.219-0.001,0.304
		c0.078,0.084,0.21,0.089,0.294,0.011c0.003-0.003,0.007-0.006,0.01-0.01c0.084-0.082,0.087-0.216,0.005-0.3
		C731.289,364.19,731.287,364.189,731.286,364.188L731.286,364.188z M732.654,374.118c-0.111-0.046-0.239,0.005-0.288,0.115
		c-0.044,0.111,0.01,0.237,0.12,0.282c0.108,0.048,0.234,0,0.282-0.108c0-0.001,0-0.001,0.001-0.002
		C732.814,374.295,732.763,374.168,732.654,374.118L732.654,374.118z M716.581,364.887c-0.043-0.108-0.166-0.161-0.274-0.118
		c-0.003,0.001-0.006,0.002-0.009,0.004c-0.11,0.044-0.163,0.168-0.12,0.278c0.045,0.112,0.171,0.168,0.284,0.125
		c0.112-0.044,0.166-0.17,0.122-0.282C716.583,364.891,716.582,364.889,716.581,364.887L716.581,364.887z M721.431,362.928
		c-0.043-0.108-0.166-0.161-0.274-0.118c-0.003,0.001-0.006,0.002-0.009,0.004c-0.11,0.044-0.163,0.168-0.12,0.278
		c0.045,0.112,0.171,0.168,0.283,0.125c0.112-0.044,0.166-0.17,0.122-0.282C721.432,362.932,721.432,362.93,721.431,362.928
		L721.431,362.928z M725.143,367.751c-0.042-0.076-0.137-0.103-0.212-0.062c-0.005,0.003-0.01,0.006-0.014,0.009
		c-0.076,0.048-0.099,0.149-0.051,0.226s0.149,0.099,0.226,0.051C725.167,367.927,725.19,367.828,725.143,367.751z M728.47,365.632
		c-0.046-0.077-0.145-0.102-0.222-0.056c-0.002,0.001-0.003,0.002-0.005,0.003c-0.077,0.048-0.101,0.149-0.053,0.227
		s0.149,0.101,0.227,0.053C728.494,365.81,728.518,365.709,728.47,365.632C728.47,365.632,728.47,365.632,728.47,365.632z
		 M731.797,363.512c-0.048-0.077-0.149-0.101-0.227-0.053c-0.077,0.048-0.101,0.149-0.053,0.227
		c0.048,0.077,0.149,0.101,0.227,0.053C731.82,363.69,731.844,363.59,731.797,363.512L731.797,363.512z M732.184,372.135
		c-0.073-0.053-0.174-0.036-0.227,0.036c0,0-0.001,0.001-0.001,0.001c-0.048,0.074-0.032,0.173,0.038,0.228
		c0.074,0.051,0.174,0.034,0.228-0.038c0.053-0.069,0.041-0.168-0.028-0.221C732.191,372.14,732.188,372.137,732.184,372.135
		L732.184,372.135z M734.444,368.905c-0.071-0.05-0.169-0.033-0.219,0.038c-0.001,0.002-0.002,0.003-0.003,0.005
		c-0.052,0.073-0.036,0.174,0.036,0.227c0,0,0.001,0.001,0.001,0.001c0.077,0.049,0.178,0.03,0.233-0.043
		c0.05-0.075,0.029-0.176-0.046-0.226C734.445,368.906,734.445,368.905,734.444,368.905L734.444,368.905z M733.978,366.996
		c-0.029-0.07-0.109-0.104-0.179-0.076c-0.004,0.001-0.007,0.003-0.011,0.005c-0.07,0.025-0.107,0.102-0.082,0.172
		c0.002,0.005,0.003,0.009,0.006,0.013c0.03,0.075,0.115,0.112,0.191,0.081l0,0c0.074-0.029,0.109-0.113,0.08-0.186
		C733.981,367.002,733.979,366.999,733.978,366.996L733.978,366.996z"/>
	
		<linearGradient id="neck_1_" gradientUnits="userSpaceOnUse" x1="714.7861" y1="414.3338" x2="716.9872" y2="431.9432" gradientTransform="matrix(1 0 0 -1 0 722)">
		<stop  offset="0" style="stop-color:#FFBEB6"/>
		<stop  offset="1" style="stop-color:#F2A19C"/>
	</linearGradient>
	<path id="neck" style="fill:url(#neck_1_);" d="M713.058,293.571c0.337,4.241-0.104,8.508-1.301,12.59c0,0,4.852-5.61,7.175-6.888
		l1.363-6.239l-7.377,0.116L713.058,293.571z"/>
	<path id="face" style="fill:#FFBEB6;" d="M722.92,290.79c-1.38,0.27-2.92,1.74-3.73,3.82c-0.97,0.02-1.64-0.01-1.64-0.01
		c-14.29-1.36-11.06-14.34-11.06-14.34c-1.27-3.1-1.19-3.85,2.36-3.91c2.65-0.04,7.07-3.66,7.07-3.66
		c0.102-0.086,0.217-0.157,0.34-0.21c0.078,2.947,0.67,5.857,1.75,8.6c2.05,5.01,3.17,5.52,5.01,5.42
		C724.86,286.39,726.08,290.18,722.92,290.79z"/>
	
		<linearGradient id="sweater_1_" gradientUnits="userSpaceOnUse" x1="733.3721" y1="392.4796" x2="686.7645" y2="379.4495" gradientTransform="matrix(1 0 0 -1 0 722)">
		<stop  offset="0" style="stop-color:#A1C3FC"/>
		<stop  offset="0.6955" style="stop-color:#81AEF2"/>
		<stop  offset="1" style="stop-color:#78A9EF"/>
	</linearGradient>
	<path id="sweater" style="fill:url(#sweater_1_);" d="M743.71,362.47c0,0-18.27,8.63-42-17.48l10.06-38.85
		c0.29-0.33,4.91-5.63,7.16-6.87l0.08-0.35c0.68-0.6,1.39-1.25,2.13-1.93c6.214,5.023,11.312,11.286,14.97,18.39
		c6.22,11.96,4.02,16.01,7.35,23.03S751.5,354.12,743.71,362.47z"/>
	
		<linearGradient id="L_hand_1_" gradientUnits="userSpaceOnUse" x1="674.8087" y1="418.2191" x2="690.2966" y2="399.4758" gradientTransform="matrix(1 0 0 -1 0 722)">
		<stop  offset="0" style="stop-color:#FFBEB6"/>
		<stop  offset="1" style="stop-color:#F2A19C"/>
	</linearGradient>
	<path id="L_hand" style="fill:url(#L_hand_1_);" d="M679.699,311.041l-7.759,8.199c-1.219-7.455-4.362-14.463-9.12-20.33
		c-7.24-9.33-5.61-14.03-1.89-18.55c3.72-4.53,4.3-2.49,5.12,1.31c0.83,3.8,2.47,8.74,4.17,9.82c1.69,1.08,2.19-2.81,4.65-3.85
		c2.45-1.04,2.85,0.57,2.01,1.36c-1.786,1.823-3.4,3.809-4.82,5.93c-1.49,2.31-1.75,2.78,1.03,7.05
		C675.099,305.137,677.306,308.164,679.699,311.041z"/>
	<path id="L_sleeve" style="fill:#A1C3FC;" d="M706.21,351.62c-11.98,2.29-19-3.34-21.84-6.19s-5.04-4.08-12.36-6.2
		s-9.66-9.84-9.66-9.84l18.95-20.07c0,0,0.79,1.45,5.91,6.73s7.03,6.07,14.1,2c7.07-4.06,10.45-11.89,10.45-11.89
		c0.001-0.008,0.004-0.015,0.01-0.02l0.04-0.04l4.09-4.38c0.015-0.008,0.029-0.018,0.04-0.03c0.916-0.902,1.918-1.711,2.993-2.416
		l-0.123-0.664l6.47-6.92v0.3C737.96,305.15,724.54,348.12,706.21,351.62z"/>
	
		<linearGradient id="hair_1_" gradientUnits="userSpaceOnUse" x1="745.2803" y1="453.2361" x2="726.5089" y2="432.2563" gradientTransform="matrix(1 0 0 -1 1.522380e-05 722)">
		<stop  offset="0" style="stop-color:#23286B"/>
		<stop  offset="1" style="stop-color:#151A4F"/>
	</linearGradient>
	<circle id="hair" style="fill:url(#hair_1_);" cx="738.849" cy="275.952" r="6.681"/>
	<path id="nouth" style="fill:#1C2868;" d="M708.965,284.272c-1.198,0.765-2.79,0.415-3.556-0.784
		c-0.277-0.434-0.418-0.941-0.404-1.456c0.008-0.392,0.621-0.453,0.613-0.056c-0.07,1.08,0.748,2.013,1.829,2.084
		c0.407,0.027,0.813-0.075,1.16-0.29C708.945,283.569,709.306,284.068,708.965,284.272L708.965,284.272z"/>
	<path id="hair-2" style="fill:#23286B;" d="M750.054,304.734c-2.336-2.907-6.182-3.9-8.896-6.196
		c-0.619-0.587-1.188-1.224-1.702-1.904c-0.082-0.126-0.17-0.245-0.246-0.378c-0.007-0.013-0.02-0.011-0.029-0.022
		c-1.636-2.471-1.487-4.765-1.549-9.328c-0.033-1.283-0.265-2.554-0.688-3.766c2.784,0.972,5.876,0.369,8.091-1.576
		c0.247-0.207-0.108-0.559-0.354-0.354c-2.187,1.917-5.273,2.427-7.961,1.315c-3.206-8.203-11.789-12.97-20.447-11.357
		c-0.095,3.387,0.496,6.759,1.737,9.912c2.044,5.007,3.168,5.518,5.007,5.416s3.066,3.679-0.102,4.292
		c-2.051,0.397-4.441,3.45-4.293,7.217c-0.007,0.176-0.027,0.345-0.024,0.525c0.12,5.997,8.68,12.824,2.474,18.187
		c-0.244,0.211,0.111,0.563,0.354,0.354c1.962-1.636,2.801-4.26,2.152-6.731c-0.561-2.196-1.372-4.32-2.416-6.331
		c0.137,0.158,0.275,0.316,0.424,0.473c3.396,3.454,4.401,8.602,2.555,13.08c0,0,15.635,4.496,26.161-2.555
		c0,0,3.066-6.745-5.007-12.978c-0.715-0.552-1.34-1.054-1.927-1.537c0.935,0.508,1.906,1.001,2.862,1.598
		c4.19,2.58,6.607,7.268,6.277,12.177c-0.016,0.322,0.484,0.321,0.5,0C753.243,310.834,752.19,307.434,750.054,304.734z"/>
</g>
</svg>
